SplineFontDB: 1.0
FontName: CMUSerif-Roman
FullName: CMU Serif Roman
FamilyName: CMU Serif
Weight: Medium
Copyright: Converted by Andrey V. Panov from TeX fonts. Some glyphs are copied from Blue Sky fonts released by AMS.
Comments: 2007-3-15: Created.
Version: 0.6.3
ItalicAngle: 0
UnderlinePosition: -100
UnderlineWidth: 50
Ascent: 800
Descent: 200
NeedsXUIDChange: 1
XUID: [1067 741758]
FSType: 0
OS2Version: 0
OS2_WeightWidthSlopeOnly: 0
OS2_UseTypoMetrics: 1
CreationTime: 1173929566
ModificationTime: 1173930346
PfmFamily: 17
TTFWeight: 500
TTFWidth: 5
LineGap: 200
VLineGap: 90
OS2TypoAscent: 0
OS2TypoAOffset: 1
OS2TypoDescent: 0
OS2TypoDOffset: 1
OS2TypoLinegap: 200
OS2WinAscent: 935
OS2WinAOffset: 0
OS2WinDescent: 250
OS2WinDOffset: 0
HheadAscent: 935
HheadAOffset: 0
HheadDescent: -250
HheadDOffset: 0
ScriptLang: 14
 1 latn 1 dflt 
 3 grek 1 dflt latn 1 dflt thai 1 dflt 
 2 cyrl 1 dflt latn 1 dflt 
 1 cyrl 1 dflt 
 3 cyrl 1 dflt grek 1 dflt latn 1 dflt 
 2 grek 1 dflt latn 1 dflt 
 1 grek 1 dflt 
 1 latn 5 AZE  NLD  TRK  VIT  dflt 
 1 cyrl 3 MKD  SRB  dflt 
 1 latn 3 NLD  VIT  dflt 
 1 latn 1 NLD  
 3 cyrl 3 MKD  SRB  dflt grek 1 dflt latn 5 AZE  NLD  TRK  VIT  dflt 
 2 cyrl 3 MKD  SRB  dflt latn 5 AZE  NLD  TRK  VIT  dflt 
 1 latn 1 VIT  
Encoding: UnicodeBmp
UnicodeInterp: none
NameList: Adobe Glyph List
DisplaySize: -24
AntiAlias: 1
FitToEm: 1
AnchorClass: "ogonek" mark 0 7 4 0 "above-mark" mkmk 0 11 3 1 "below" mark 0 11 2 0 "above" mark 0 11 1 0 
BeginChars: 65541 2213
StartChar: .notdef
Encoding: 0 0 0
Width: 760
Flags: HW
HStem: 10 60<105 655> 705 60<105 655>
VStem: 10 60<112 663> 690 60<112 663>
Fore
10 10 m 1
 10 765 l 1
 750 765 l 1
 750 10 l 1
 10 10 l 1
70 112 m 1
 346 388 l 1
 70 663 l 1
 70 112 l 1
105 70 m 1
 655 70 l 1
 380 346 l 1
 105 70 l 1
105 705 m 1
 380 429 l 1
 655 705 l 1
 105 705 l 1
414 388 m 1
 690 112 l 1
 690 663 l 1
 414 388 l 1
EndSplineSet
EndChar
StartChar: uni262D
Encoding: 9773 9773 1
Width: 700
Flags: HW
TeX: 117 0 0 0
HStem: -1 21G<593 601> 39 76<282.1 452.4> 102 51<129.8 171.4>
VStem: 129 53<105 139.506> 556 82<194.9 526.4>
Fore
40 18 m 0
 40 64 129 102 129 128 c 0
 129 148 134 153 148 153 c 0xb8
 166 153 168 165 182 180 c 1
 229 156 307 115 390 115 c 0
 438 115 463 128 463 129 c 0
 463 135 406 186 240 363 c 1
 178 301 l 1
 123 357 l 1
 252 486 l 1
 347 470 l 1
 271 393 l 1
 484 190 l 1
 513 165 l 1
 519 165 556 218 556 295 c 0
 556 473 346 588 346 593 c 1
 394 593 638 478 638 267 c 0
 638 187 612 142 580 100 c 1
 636 44 637 42 637 38 c 0
 637 17 605 -1 597 -1 c 0xd8
 589 -1 543 48 529 62 c 1
 500 51 474 39 428 39 c 0xd8
 297 39 201 138 188 138 c 0
 183 138 182 134 182 130 c 0
 182 126 183 123 183 118 c 0
 183 108 178 102 168 102 c 0
 131 102 122 0 64 -0 c 0
 48 0 40 7 40 18 c 0
EndSplineSet
EndChar
StartChar: longs
Encoding: 383 383 2
Width: 305
Flags: W
TeX: 108 0 0 0
HStem: 0 31<34 115.91 180 275> 400 31<33 112> 683 22<209.8 295.519>
VStem: 112 65<31 400 431 652> 270 87<604.1 666.5>
AnchorPoint: "above" 267 694 basechar 0
AnchorPoint: "below" 145 0 basechar 0
Fore
33 400 m 1
 33 431 l 1
 112 431 l 1
 112 546 l 2
 112 652 197 705 267 705 c 0
 320 705 357 672 357 635 c 0
 357 611 342 591 313 591 c 0
 286 591 270 611 270 634 c 0
 270 659 288 672 300 676 c 1
 285 683 270 683 267 683 c 0
 223 683 174 635 174 547 c 2
 174 547 177 476 177 431 c 0
 178 385 179 330 179 278 c 0
 179 174 177 78 177 78 c 2
 177 42 180 31 254 31 c 2
 275 31 l 1
 275 0 l 1
 235 3 188 3 148 3 c 0
 120 3 73 1 34 0 c 1
 34 31 l 1
 101 31 112 31 112 76 c 2
 112 400 l 1
 33 400 l 1
EndSplineSet
EndChar
StartChar: florin
Encoding: 402 402 3
Width: 500
Flags: HW
TeX: 102 0 0 0
HStem: -205 22<67.8273 136.2> 400 31<169.086 250 320 416.212> 683 22<359.2 431.35>
VStem: 12 84<-142 -93.5> 404 84<593.5 642>
Fore
12 -139 m 0
 12 -104 36 -84 62 -84 c 0
 78 -84 96 -94 96 -116 c 0
 96 -136 82 -160 52 -165 c 1
 62 -180 82 -183 92 -183 c 0
 126 -183 140.889 -149.978 176 27 c 2
 250 400 l 1
 188 400 l 2
 172 400 162 400 162 411 c 0
 162 431 174 431 190 431 c 2
 256 431 l 1
 277 545 293 705 406 705 c 0
 448 705 488 682 488 639 c 0
 488 604 464 584 438 584 c 0
 422 584 404 594 404 616 c 0
 404 636 418 660 448 665 c 1
 436 681 414 683 406 683 c 0
 370 683 360 630 352 593 c 0
 336 523 334 505 320 431 c 1
 398 431 l 2
 414 431 422 431 422 418 c 0
 422 400 412 400 396 400 c 2
 314 400 l 1
 244 41 l 2
 236 5 196 -205 92 -205 c 0
 54 -205 12 -184 12 -139 c 0
EndSplineSet
EndChar
StartChar: uni03F5
Encoding: 1013 1013 4
Width: 430
Flags: HW
TeX: 117 0 0 0
HStem: -11 25<205.5 381> 209 38<125 224> 215 25<257 356> 417 25<240.6 381>
Fore
48 217 m 0
 48 352 182 439 381 442 c 1
 381 417 l 1
 273 415 182 370 142 297 c 0
 134 281 129 264 125 247 c 1xd0
 356 240 l 1
 356 215 l 1xb0
 123 209 l 1
 128 163 135 148 157 114 c 0
 180 84 246 16 381 14 c 1
 381 -11 l 1xd0
 197 -11 48 80 48 217 c 0
EndSplineSet
EndChar
StartChar: uni01EB
Encoding: 491 491 5
Width: 500
Flags: HW
TeX: 0 0 0 0
HStem: -217 46<290.6 402.4> -11 25<194.1 276.307> 426 22<197 306.2>
VStem: 28 83<143.442 279.877> 213 45<-152.5 -58.2> 388 83<144.556 280.312>
Fore
28 214 m 0
 28 339 125 448 250 448 c 0
 371 448 471 342 471 214 c 0
 471 116 411 36 329 4 c 1
 294 -24 258 -50 258 -94 c 0
 258 -139 302 -171 340 -171 c 0
 388 -171 403 -127 409 -121 c 0
 418 -110 427 -120 427 -128 c 0
 427 -149 391 -217 321 -217 c 0
 262 -217 213 -173 213 -118 c 0
 213 -72 239 -45 272 -10 c 1
 265 -11 257 -11 249 -11 c 0
 132 -11 28 85 28 214 c 0
111 222 m 0
 111 186 111 125 136 81 c 0
 163 35 207 14 250 14 c 0
 300 14 343.8 43.0991 366 88 c 0
 387.803 132.097 388 186 388 222 c 0
 388 260 388 318 362 361 c 0
 336 404 293 426 249 426 c 0
 209 426 162 405 135 359 c 0
 111 315 111 261 111 222 c 0
EndSplineSet
EndChar
StartChar: phi1
Encoding: 981 981 6
Width: 578
Flags: HW
TeX: 0 0 0 0
HStem: -11 27<194.443 273>
VStem: 42 76<52.5 291.5> 251 76<-278.9 -200.534 627.093 720.9> 269 40<335.025 414> 276 26<-3.48344 357.483> 460 76<135.9 376.2>
Fore
42 215 m 0
 42 324 122 431 267 440 c 1
 260 579 251 670 251 678 c 0
 251 711 276 718 289 718 c 0
 302 718 327 711 327 678 c 0
 327 650 317 581 310 440 c 1
 448 432 536 339 536 215 c 0
 536 105 454 -3 305 -11 c 1
 309 -106 327 -223 327 -236 c 0
 327 -269 302 -276 289 -276 c 0
 276 -276 251 -269 251 -236 c 0xe4
 251 -215 266 -138 273 -11 c 1
 132 -4 42 90 42 215 c 0
118 168 m 0
 118 75 158 16 263 16 c 2
 274 16 l 1
 275 45 276 77 276 110 c 0xcc
 276 220 273 322 269 408 c 1
 164 381 118 263 118 168 c 0
302 104 m 0xcc
 302 87 303 48 304 20 c 1
 413 45 460 165 460 262 c 0
 460 355 420 414 315 414 c 2
 309 414 l 1xd4
 305 333 302 232 302 104 c 0xcc
EndSplineSet
EndChar
StartChar: uni03F1
Encoding: 1009 1009 7
Width: 472
Flags: HW
TeX: 0 0 0 0
HStem: -170 70<174.3 314.509> -11 19<129.7 351.7> 422 20<125.8 298.7>
VStem: 41 75<130.4 283.002> 355 75<92.6 384.9>
Fore
41 211 m 0
 41 235 42 254 44 267 c 0
 62 371 141 442 235 442 c 0
 342 442 430 348 430 225 c 0
 430 112 359 -11 235 -11 c 0
 154 -11 105 42 77 87 c 1
 79 76 82 64 85 53 c 0
 122 -97 186 -100 225 -100 c 2
 281 -100 l 2
 385 -100 411 -175 411 -218 c 0
 411 -236 406 -249 400 -249 c 0
 391 -249 387.979 -199.055 329 -177 c 0
 312.994 -171.015 296 -170 279 -170 c 2
 230 -170 l 2
 148 -170 100.406 -142.898 64 2 c 0
 49.1655 61.0416 41 149 41 211 c 0
116 223 m 0
 116 137 140 8 236 8 c 0
 325 8 355 122 355 220 c 0
 355 382 284 422 235 422 c 0
 151 422 116 324 116 223 c 0
EndSplineSet
EndChar
StartChar: u1D703
Encoding: 65536 120579 8
Width: 442
Flags: HW
TeX: 0 0 0 0
HStem: -11 27<139 310.6> 361 21<120 325> 678 27<142.4 301>
VStem: 41 71<179 348.159> 328 71<365.64 516>
Fore
41 348 m 0
 41 466 83 705 210 705 c 0
 341 705 399 477 399 347 c 0
 399 229 362 -11 230 -11 c 0
 112 -11 41 218 41 348 c 0
112 252 m 0
 112 160 154 16 204 16 c 0
 286 16 315 232 325 361 c 1
 118 361 l 1
 113 312 112 271 112 252 c 0
120 382 m 1
 326 382 l 1
 327 409 328 430 328 442 c 0
 328 535 286 678 236 678 c 0
 164 678 132 510 120 382 c 1
EndSplineSet
EndChar
StartChar: Gcommaaccent
Encoding: 290 290 9
Width: 784
Flags: HW
TeX: 0 0 0 0
HStem: -147 74<383.3 425.621> -22 31<337.5 465.02> 242 28<452 601 650.5 652 663.113 735> 674 31<338 532.7>
VStem: 56 103<75.5 608.5> 436 16<-230.8 -134> 577 89<9 231>
Fore
56 342 m 0
 56 547 218 705 404 705 c 0
 503 705 557 651 589 619 c 1
 646 703 645 705 655 705 c 0
 666 705 666 698 666 681 c 2
 666 444 l 2
 666 423 666 420 650 420 c 0
 636 420 636 423 634 437 c 0
 613 584 523 674 416 674 c 0
 356 674 159 641 159 342 c 0
 159 44 357 9 422 9 c 0
 450 9 577 18 577 130 c 2
 577 194 l 2
 577 231 574 242 484 242 c 2
 452 242 l 1
 452 273 l 1
 488 270 573 270 613 270 c 0
 643 270 698 272 735 273 c 1
 735 242 l 1
 670 242 666 237 666 198 c 2
 666 24 l 2
 666 9 666 1 657 1 c 0
 646 1 606 41 593 63 c 1
 559 4 479 -22 406 -22 c 0
 216 -22 56 137 56 342 c 0
EndSplineSet
Refer: 2136 806 S 1 0 0 1 505 -7 2
EndChar
StartChar: gcommaaccent
Encoding: 291 291 10
Width: 500
Flags: HW
TeX: 0 0 0 0
HStem: -206 23<118.7 377.4> 7 58<136.961 332.8> 149 23<179.828 274> 419 23<170 263.773> 431 22<401.524 445.815> 497 105<200.2 271.7>
VStem: 28 52<-147.9 -27> 60 75<247.924 347.037> 76 30<91.4 149.649> 167 23<581 627.8> 309 75<243.963 343.076> 419 52<-149.2 -31.5> 427 58<380.9 422.075>
Fore
167 582 m 0xe460
 167 672 243 730 259 730 c 0
 262 730 270 728 270 720 c 0
 270 709 253 708 227 678 c 0
 204 651 190 617 190 581 c 1
 196 587 208 602 234 602 c 0
 263 602 286 581 286 550 c 0
 286 524 269 497 233 497 c 0
 196 497 167 533 167 582 c 0xe460
EndSplineSet
Refer: 230 103 S 1 0 0 1 0 0 2
EndChar
StartChar: Hbar
Encoding: 294 294 11
Width: 750
Flags: HW
TeX: 0 0 0 0
HStem: 0 31<33 134 227 328 421 522 615 716> 3 28<33 157.1 203.9 328 421 545.1 591.9 716> 340 31<225 524> 516 32<40.9917 136 225 524 613 708.11> 652 28<33 157.1 227 328 421 545.1 615 716>
VStem: 136 89<42 340 371 516 548 641> 524 89<42 340 371 516 548 641>
Fore
33 0 m 1
 33 31 l 1xbe
 57 31 l 2
 134 31 136 42 136 78 c 2
 136 516 l 1
 58 516 l 2
 44 516 33 518 33 532 c 0
 33 546 45 548 65 548 c 2
 136 548 l 1
 136 605 l 2
 136 641 134 652 57 652 c 2
 33 652 l 1
 33 683 l 1
 68 680 143 680 181 680 c 0
 219 680 293 680 328 683 c 1
 328 652 l 1
 304 652 l 2
 227 652 225 641 225 605 c 2
 225 548 l 1
 524 548 l 1
 524 605 l 2
 524 641 522 652 445 652 c 2
 421 652 l 1
 421 683 l 1
 456 680 531 680 569 680 c 0
 607 680 681 680 716 683 c 1
 716 652 l 1
 692 652 l 2
 615 652 613 641 613 605 c 2
 613 548 l 1
 687 548 l 2
 702 548 716 547 716 532 c 0
 716 518 703 516 690 516 c 2
 613 516 l 1
 613 78 l 2
 613 42 615 31 692 31 c 2
 716 31 l 1
 716 0 l 1xbe
 681 3 606 3 568 3 c 0x7e
 530 3 456 3 421 0 c 1
 421 31 l 1
 445 31 l 2
 522 31 524 42 524 78 c 2
 524 340 l 1
 225 340 l 1
 225 78 l 2
 225 42 227 31 304 31 c 2
 328 31 l 1
 328 0 l 1xbe
 293 3 218 3 180 3 c 0x7e
 142 3 68 3 33 0 c 1
225 371 m 1x3e
 524 371 l 1
 524 516 l 1
 225 516 l 1
 225 371 l 1x3e
EndSplineSet
EndChar
StartChar: Iogonek
Encoding: 302 302 12
Width: 361
Flags: HW
TeX: 0 0 0 0
HStem: -217 46<177.9 296.7> 0 31<28 133 228 333> 3 28<28 156.7 213 333> 652 28<28 156.7 228 333>
VStem: 99 45<-153.8 -86.8> 136 89<31.2 641>
Fore
28 0 m 1
 28 31 l 1
 54 31 l 2
 133 31 136 42 136 78 c 2
 136 605 l 2
 136 641 133 652 54 652 c 2
 28 652 l 1
 28 683 l 1
 63 680 142 680 181 680 c 0
 219 680 298 680 333 683 c 1
 333 652 l 1
 307 652 l 2
 228 652 225 641 225 605 c 2
 225 78 l 2
 225 42 228 31 307 31 c 2
 333 31 l 1
 333 0 l 1xd4
 305 2 254 3 213 3 c 1
 201 -1 144 -45 144 -94 c 0xb8
 144 -140 189 -171 226 -171 c 0
 281 -171 289 -116 303 -116 c 0
 307 -116 312 -118 312 -127 c 0
 312 -151 276 -217 207 -217 c 0
 155 -217 99 -180 99 -118 c 0
 99 -94 109 -48 170 3 c 1xb8
 130 3 61 3 28 0 c 1
EndSplineSet
EndChar
StartChar: iogonek
Encoding: 303 303 13
Width: 277
Flags: HW
TeX: 0 0 0 0
HStem: -217 46<137.9 256.7> 0 31<33 120.1 172.818 247> 400 31<37 75.1818> 563 106<87.7 164.4>
VStem: 59 45<-153.8 -86.8> 75 106<580.9 649.8> 111 66<24.3 394>
Fore
33 0 m 1
 33 31 l 1
 100 31 111 31 111 76 c 2
 111 345 l 2
 111 394 102 400 37 400 c 1
 37 431 l 1
 177 442 l 1
 177 75 l 2
 177 36 181 31 247 31 c 1
 247 0 l 1
 228 0 209 2 189 2 c 1
 183 0 154 -8 139 -24 c 0
 120 -42 104 -66 104 -94 c 0xfa
 104 -140 149 -171 186 -171 c 0
 241 -171 249 -116 263 -116 c 0
 267 -116 272 -118 272 -127 c 0
 272 -151 236 -217 167 -217 c 0
 115 -217 59 -180 59 -118 c 0
 59 -94 69 -48 129 3 c 1
 33 0 l 1
75 616 m 0xf4
 75 642 97 669 128 669 c 0
 156 669 181 648 181 616 c 0
 181 584 156 563 128 563 c 0
 97 563 75 589 75 616 c 0xf4
EndSplineSet
EndChar
StartChar: ncommaaccent
Encoding: 326 326 17
Width: 555
Flags: HW
TeX: 0 0 0 0
HStem: -147 74<265.3 307.621> 0 31<32 114.33 172.845 257 310 392.33 464.364 535> 400 31<32 70.4545> 420 22<230.8 395.9>
VStem: 110 63<337 407.7> 110 69<31 395.2> 318 16<-230.8 -134> 388 69<31 382.6>
Fore
32 0 m 1
 32 31 l 1
 99 31 110 31 110 76 c 2xd7
 110 344 l 2
 110 393 102 400 32 400 c 1
 32 431 l 1xeb
 173 442 l 1
 173 337 l 1
 201 399 248 442 321 442 c 0xdb
 451 442 457 358 457 276 c 2
 457 61 l 2
 458 31 483 31 535 31 c 1
 535 0 l 1
 501 1 449 3 423 3 c 0
 396 3 345 1 310 0 c 1
 310 31 l 1
 377 31 388 31 388 76 c 2
 388 309 l 2
 388 366 377 420 314 420 c 0
 250 420 179 364 179 260 c 2
 179 76 l 2
 179 31 190 31 257 31 c 1
 257 0 l 1
 223 1 171 3 145 3 c 0
 118 3 67 1 32 0 c 1
EndSplineSet
Refer: 2136 806 S 1 0 0 1 387 -7 2
EndChar
StartChar: napostrophe
Encoding: 329 329 18
Width: 601
Flags: HW
TeX: 0 0 0 0
HStem: 0 31<78 160.33 218.845 303 356 438.33 510.364 581> 400 31<78 116.455> 420 22<276.8 441.9> 631 105<29.3 100.8>
VStem: 111 23<605.2 652> 156 63<337 407.7> 156 69<31 395.2> 434 69<31 382.6>
Fore
15 683 m 0
 15 709 32 736 68 736 c 0
 105 736 134 700 134 651 c 0
 134 561 58 503 42 503 c 0
 39 503 31 505 31 513 c 0
 31 524 48 525 74 555 c 0
 97 582 111 616 111 652 c 1
 105 646 93 631 67 631 c 0
 38 631 15 652 15 683 c 0
78 0 m 1
 78 31 l 1
 145 31 156 31 156 76 c 2xbb
 156 344 l 2
 156 393 148 400 78 400 c 1
 78 431 l 1xdd
 219 442 l 1
 219 337 l 1
 247 399 294 442 367 442 c 0xbd
 497 442 503 358 503 276 c 2
 503 61 l 2
 504 31 529 31 581 31 c 1
 581 0 l 1
 547 1 495 3 469 3 c 0
 442 3 391 1 356 0 c 1
 356 31 l 1
 423 31 434 31 434 76 c 2
 434 309 l 2
 434 366 423 420 360 420 c 0
 296 420 225 364 225 260 c 2
 225 76 l 2
 225 31 236 31 303 31 c 1
 303 0 l 1
 269 1 217 3 191 3 c 0
 164 3 113 1 78 0 c 1
EndSplineSet
EndChar
StartChar: Rcommaaccent
Encoding: 342 342 19
Width: 736
Flags: HW
TeX: 0 0 0 0
HStem: -147 74<346.3 388.621> -22 22<598 673.5> 0 31<35 136 226 327> 3 28<35 159.1 202.9 327> 331 22<224 372.166> 652 31<35 159.1 226 422>
VStem: 138 86<42 331 353 651.8> 399 16<-230.8 -134> 507 103<413.3 627.8>
Fore
35 0 m 1
 35 31 l 1xcf80
 59 31 l 2xcf80
 136 31 138 42 138 78 c 2
 138 605 l 2
 138 641 136 652 59 652 c 2
 35 652 l 1
 35 683 l 1
 349 683 l 2
 496 683 610 599 610 503 c 0
 610 425 532 364 435 340 c 1
 555 299 557 229 570 144 c 0
 584.218 51.0331 592 0 641 0 c 0
 666 0 701 18 707 89 c 0
 708 96 708 105 719 105 c 0
 732 105 732 94 732 88 c 0
 732 60 715 -22 637 -22 c 0
 607 -22 552 -16 511 20 c 0
 470 58 470 98 470 163 c 0
 470 230 470 261 432 297 c 0
 397 331 355 331 339 331 c 2
 224 331 l 1
 224 78 l 2
 224 42 226 31 303 31 c 2xcf80
 327 31 l 1xcf80
 327 0 l 1
 291 3 220 3 181 3 c 0xdf80
 142 3 71 3 35 0 c 1
224 353 m 1
 335 353 l 2
 483 353 507 434 507 503 c 0
 507 648 395 652 305 652 c 2xcf80
 304 652 l 2
 226 652 224 652 224 612 c 2
 224 353 l 1
EndSplineSet
Refer: 2136 806 S 1 0 0 1 468 -7 2
EndChar
StartChar: Tbar
Encoding: 358 358 21
Width: 722
Flags: HW
TeX: 0 0 0 0
HStem: 0 31<171 316 405 550> 3 28<171 347.5 373.5 550> 334 32<188.992 316 405 533.11> 646 31<55 334.6 383.8 666>
VStem: 36 25<454.166 664.256> 316 89<45 334 366 656.7> 660 25<452 662.09>
CounterMasks: 1 0e
Fore
36 452 m 1
 55 677 l 1
 666 677 l 1
 685 452 l 1
 660 452 l 1
 646 613 631 646 480 646 c 0
 406 646 405 645 405 606 c 2
 405 366 l 1
 512 366 l 2
 527 366 541 365 541 350 c 0
 541 336 528 334 515 334 c 2
 405 334 l 1
 405 79 l 2
 405 45 405 31 510 31 c 2
 550 31 l 1
 550 0 l 1xbe
 509 3 406 3 360 3 c 0x7e
 314 3 212 3 171 0 c 1
 171 31 l 1
 211 31 l 2
 316 31 316 45 316 79 c 2
 316 334 l 1
 206 334 l 2
 192 334 181 336 181 350 c 0
 181 364 193 366 213 366 c 2
 316 366 l 1
 316 606 l 2xbe
 316 645 313 646 241 646 c 0
 90 646 75 613 61 452 c 1
 36 452 l 1
EndSplineSet
EndChar
StartChar: tbar
Encoding: 359 359 22
Width: 388
Flags: W
TeX: 0 0 0 0
HStem: -11 25<186.2 288.1> 268 32<20.3833 104 173 308.11> 400 31<173 316> 400 22<19 104>
VStem: 104 69<84.9384 268 300 400> 148 25<508.4 615> 307 25<40.8 181>
Fore
19 284 m 0xea
 19 298 31 300 51 300 c 2
 104 300 l 1
 104 400 l 1
 19 400 l 1
 19 422 l 1xda
 117 426 147 533 148 615 c 1
 173 615 l 1
 173 431 l 1xe6
 316 431 l 1
 316 400 l 1
 173 400 l 1
 173 300 l 1
 287 300 l 2
 302 300 316 299 316 284 c 0
 316 270 303 268 290 268 c 2
 173 268 l 1
 173 122 l 2
 173 105 173 14 240 14 c 0
 277 14 307 52 307 126 c 2
 307 181 l 1
 332 181 l 1
 332 124 l 2
 332 60 304 -11 233 -11 c 0
 197 -11 104 1 104 124 c 2
 104 268 l 1
 44 268 l 2
 30 268 19 270 19 284 c 0xea
EndSplineSet
EndChar
StartChar: Uogonek
Encoding: 370 370 23
Width: 750
Flags: HW
TeX: 0 0 0 0
HStem: -217 46<361.9 480.7> -22 31<359.827 513.5> 652 28<33 157.1 227 328 479 546.661 645.917 716>
VStem: 136 89<68.1 641> 283 45<-153.8 -88.4925> 582 31<165.509 605.582>
Fore
33 652 m 1
 33 683 l 1
 68 680 143 680 181 680 c 0
 219 680 293 680 328 683 c 1
 328 652 l 1
 304 652 l 2
 227 652 225 641 225 605 c 2
 225 224 l 2
 225 34 343 9 390 9 c 0
 485 9 582 89 582 231 c 2
 582 578 l 2
 582 605 582 652 479 652 c 1
 479 683 l 1
 515 682 563 680 598 680 c 0
 632 680 680 682 716 683 c 1
 716 652 l 1
 613 652 613 607 613 574 c 2
 613 254 l 2
 613 214 612.991 205.001 610 185 c 0
 592.951 71.0073 503 -22 388 -22 c 0
 380 -22 373 -21 366 -21 c 1
 345 -42 328 -64 328 -94 c 0
 328 -140 373 -171 410 -171 c 0
 465 -171 473 -116 487 -116 c 0
 491 -116 496 -118 496 -127 c 0
 496 -151 460 -217 391 -217 c 0
 339 -217 283 -180 283 -118 c 0
 283 -97 291 -60 335 -16 c 1
 223 7 136 105 136 228 c 2
 136 605 l 2
 136 641 134 652 57 652 c 2
 33 652 l 1
EndSplineSet
EndChar
StartChar: uogonek
Encoding: 371 371 24
Width: 555
Flags: HW
TeX: 0 0 0 0
HStem: -217 46<410.9 529.7> -11 22<157.8 334.8> 0 31<495.25 535> 400 31<32 72.0909 310 350.091>
VStem: 110 69<56.6 397> 332 45<-153.8 -88.6629> 388 69<52.9 393> 391 66<23.3 79>
Fore
32 400 m 1
 32 431 l 1
 179 442 l 1
 179 110 l 2
 179 58 183 11 267 11 c 0
 340 11 388 79 388 166 c 2
 388 344 l 2xde
 388 393 380 400 310 400 c 1
 310 431 l 1
 457 442 l 1xdd
 457 87 l 2
 457 38 465 31 535 31 c 1
 535 0 l 1
 429 -8 l 1
 405 -27 377 -58 377 -94 c 0
 377 -140 422 -171 459 -171 c 0
 514 -171 522 -116 536 -116 c 0xbe
 540 -116 545 -118 545 -127 c 0
 545 -151 509 -217 440 -217 c 0
 388 -217 332 -180 332 -118 c 0
 332 -96 340 -56 391 -10 c 1
 391 79 l 1xbd
 362 17 318 -11 262 -11 c 0
 110 -11 110 80 110 158 c 2
 110 308 l 2
 110 397 110 400 32 400 c 1
EndSplineSet
EndChar
StartChar: uni0181
Encoding: 385 385 25
Width: 818
Flags: HW
TeX: 0 0 0 0
HStem: 0 31<147 248 320.9 610> 344 22<333 521> 652 31<92 271.1 335 632.1>
VStem: 21 92<542.5 596.765> 250 83<42 344 366 645> 638 97<430.8 582.9> 662 100<91.7 271.1>
Fore
21 578 m 0
 21 641 92 683 175 683 c 2
 513 683 l 2
 643 683 735 601 735 514 c 0xfc
 735 440 666 376 569 357 c 1
 680 345 762 270 762 183 c 0
 762 89 672 0 539 0 c 2
 147 0 l 1
 147 31 l 1
 171 31 l 2
 248 31 250 42 250 78 c 2
 250 605 l 2
 250 641 248 652 171 652 c 0
 98 652 76 630 66 622 c 1
 106 618 113 590 113 575 c 0
 113 550 92 530 67 530 c 0
 40 530 21 550 21 578 c 0
333 71 m 2
 333 38 335 31 382 31 c 2
 507 31 l 2
 610 31 662 113 662 184 c 0xfa
 662 251 620 344 521 344 c 2
 333 344 l 1
 333 71 l 2
333 366 m 1xfc
 478 366 l 2
 589 366 638 450 638 514 c 0
 638 567 603 652 506 652 c 2
 382 652 l 2
 335 652 333 645 333 612 c 2
 333 366 l 1xfc
EndSplineSet
EndChar
StartChar: uni0182
Encoding: 386 386 26
Width: 683
Flags: HW
TeX: 0 0 0 0
HStem: 0 31<35 136 211.9 521> 341 26<227 552> 652 31<35 159.1 229 525>
VStem: 138 86<31.2 341 367 641> 514 25<513 644.82> 521 103<122.3 247.1>
Fore
35 0 m 1
 35 31 l 1
 59 31 l 2
 136 31 138 42 138 78 c 2
 138 605 l 2
 138 641 136 652 59 652 c 2
 35 652 l 1
 35 683 l 1
 525 683 l 1
 539 513 l 1
 514 513 l 1xf8
 505 614 499 652 388 652 c 2
 306 652 l 2
 229 652 227 641 227 605 c 2
 227 367 l 1
 396 367 l 2
 516 367 624 286 624 186 c 0
 624 88 525 0 388 0 c 2
 35 0 l 1
224 71 m 2xf4
 224 38 226 31 273 31 c 2
 362 31 l 2
 521 31 521 137 521 186 c 0
 521 233 521 341 362 341 c 2
 224 341 l 1
 224 71 l 2xf4
EndSplineSet
EndChar
StartChar: uni0183
Encoding: 387 387 27
Width: 514
Flags: HW
TeX: 0 0 0 0
HStem: -11 22<194.5 323.2> 420 22<228.471 321.5> 652 31<133 447>
VStem: 65 69<83.9625 343.03 377 651.8> 397 83<149.89 283.536> 436 25<513 644.82>
Fore
65 0 m 1
 65 683 l 1
 447 683 l 1
 461 513 l 1
 436 513 l 1xf4
 427 614 421 652 310 652 c 2
 210 652 l 2
 133 652 131 641 131 605 c 2
 131 377 l 1
 147 395 190 442 268 442 c 0
 382 442 480 343 480 216 c 0
 480 87 376 -11 257 -11 c 0
 183 -11 141 39 126 62 c 1
 90 0 l 1
 65 0 l 1
134 114 m 2xf8
 134 96 134 93 148 72 c 0
 172 35 208 11 253 11 c 0
 307 11 345 44 366 75 c 0
 395 120 397 180 397 217 c 0
 397 258 393.962 314.976 368 356 c 0
 343.965 393.978 308 420 263 420 c 0
 239 420 184 412 145 356 c 0
 134 340 134 339 134 320 c 2
 134 114 l 2xf8
EndSplineSet
EndChar
StartChar: uni0184
Encoding: 388 388 28
Width: 682
Flags: HW
TeX: 0 0 0 0
HStem: 0 31<35 136 211.9 521> 341 26<227 552>
VStem: 138 86<31.2 341> 521 103<122.3 247.1>
Fore
35 0 m 1
 35 31 l 1
 59 31 l 2
 136 31 138 42 138 78 c 2
 138 367 l 1
 35 505 l 1
 227 683 l 1
 227 367 l 1
 396 367 l 2
 516 367 624 286 624 186 c 0
 624 88 525 0 388 0 c 2
 35 0 l 1
224 71 m 2
 224 38 226 31 273 31 c 2
 362 31 l 2
 521 31 521 137 521 186 c 0
 521 233 521 341 362 341 c 2
 224 341 l 1
 224 71 l 2
EndSplineSet
EndChar
StartChar: uni0185
Encoding: 389 389 29
Width: 556
Flags: HW
TeX: 0 0 0 0
HStem: -11 22<236.5 365.2> 420 22<270.471 363.5>
VStem: 107 69<83.9625 343.03> 439 83<149.89 283.536>
Fore
28 505 m 1
 173 683 l 1
 173 377 l 1
 189 395 232 442 310 442 c 0
 424 442 522 343 522 216 c 0
 522 87 418 -11 299 -11 c 0
 225 -11 183 39 168 62 c 1
 132 0 l 1
 107 0 l 1
 107 370 l 1
 28 505 l 1
176 114 m 2
 176 96 176 93 190 72 c 0
 214 35 250 11 295 11 c 0
 349 11 387 44 408 75 c 0
 437 120 439 180 439 217 c 0
 439 258 435.962 314.976 410 356 c 0
 385.965 393.978 350 420 305 420 c 0
 281 420 226 412 187 356 c 0
 176 340 176 339 176 320 c 2
 176 114 l 2
EndSplineSet
EndChar
StartChar: uni0187
Encoding: 391 391 30
Width: 756
Flags: W
TeX: 0 0 0 0
HStem: -22 31<336.7 557.7> 674 31<335.7 528.8> 846 23<702.7 771.329>
VStem: 56 103<72.9 607.2> 640 25<681 865.6> 737 92<761.9 832.1>
Fore
56 342 m 0
 56 546 217 705 404 705 c 0
 500 705 551 655 588 619 c 1
 638 694 639 695 640 696 c 1
 641 839 703 869 745 869 c 0
 788 869 829 839 829 798 c 0
 829 770 808 752 783 752 c 0
 758 752 737 770 737 797 c 0
 737 824 756 836 769 842 c 1
 761 844 752 846 743 846 c 0
 712 846 665 823 665 681 c 2
 665 444 l 2
 665 423 665 420 649 420 c 0
 635 420 635.013 423.002 633 437 c 0
 612 583 524 674 415 674 c 0
 354 674 159 640 159 341 c 0
 159 43 355 9 416 9 c 0
 525 9 632 91 640 234 c 0
 641 244 641 250 652 250 c 0
 665 250 665 243 665 233 c 0
 665 117 567 -22 404 -22 c 0
 218 -22 56 135 56 342 c 0
EndSplineSet
EndChar
StartChar: uni018A
Encoding: 394 394 31
Width: 874
Flags: HW
TeX: 0 0 0 0
HStem: 0 31<146 247 322.9 586> 652 31<92 270.1 337 564.6>
VStem: 21 92<542.5 596.765> 249 86<31.2 641> 718 100<191.7 437.4>
Fore
21 578 m 0
 21 641 92 683 175 683 c 2
 512 683 l 2
 683 683 818 526 818 336 c 0
 818 148 680 0 512 0 c 2
 146 0 l 1
 146 31 l 1
 170 31 l 2
 247 31 249 42 249 78 c 2
 249 605 l 2
 249 641 247 652 170 652 c 0
 97 652 76 630 66 622 c 1
 106 618 113 590 113 575 c 0
 113 550 92 530 67 530 c 0
 40 530 21 550 21 578 c 0
335 71 m 2
 335 38 337 31 384 31 c 2
 485 31 l 2
 586 31 643 89 663 116 c 0
 699 165 718 225 718 336 c 0
 718 414 708.796 499.852 666 559 c 0
 614.756 629.823 546 652 484 652 c 2
 384 652 l 2
 337 652 335 645 335 612 c 2
 335 71 l 2
EndSplineSet
EndChar
StartChar: uni018B
Encoding: 395 395 32
Width: 668
Flags: HW
TeX: 0 0 0 0
HStem: 0 31<99.9 440 506.9 631> 341 26<114 439> 652 31<167 460.1 530 631>
VStem: 42 103<122.3 247.1> 127 25<515.219 647.039> 439 89<367 641> 442 86<31.2 341>
Fore
42 186 m 0
 42 286 150 367 270 367 c 2
 439 367 l 1
 439 605 l 2
 439 641 437 652 360 652 c 2
 278 652 l 2
 167 652 161 614 152 513 c 1
 127 513 l 1
 141 683 l 1
 631 683 l 1
 631 652 l 1
 607 652 l 2
 530 652 528 641 528 605 c 2xec
 528 78 l 2
 528 42 530 31 607 31 c 2
 631 31 l 1
 631 0 l 1
 278 0 l 2
 141 0 42 88 42 186 c 0
145 186 m 0xf2
 145 137 145 31 304 31 c 2
 393 31 l 2
 440 31 442 38 442 71 c 2
 442 341 l 1
 304 341 l 2
 145 341 145 233 145 186 c 0xf2
EndSplineSet
EndChar
StartChar: uni018C
Encoding: 396 396 33
Width: 555
Flags: HW
TeX: 0 0 0 0
HStem: -11 22<192.5 306.9> 0 31<486.909 527> 420 22<190.8 306.5> 652 31<93 391.1>
VStem: 34 83<147.464 281.11> 53 25<515.219 647.039> 380 69<23.3 55 88.0417 346.045>
Fore
34 215 m 0
 34 344 139 442 257 442 c 0
 311 442 354 416 383 380 c 1
 383 606 l 2
 381 645 371 652 304 652 c 2
 204 652 l 2
 93 652 87 614 78 513 c 1
 53 513 l 1
 67 683 l 1
 449 683 l 1
 449 87 l 2
 449 38 457 31 527 31 c 1
 527 0 l 1x76
 380 -11 l 1
 380 55 l 1
 355 23 310 -11 246 -11 c 0
 132 -11 34 88 34 215 c 0
117 214 m 0xba
 117 173 120.038 116.024 146 75 c 0
 170.035 37.022 206 11 251 11 c 0
 294 11 339 33 369 81 c 0
 380 98 380 100 380 118 c 2
 380 323 l 2
 380 341 380 343 369 360 c 0
 338 405 296 420 261 420 c 0
 207 420 169 387 148 356 c 0
 119 311 117 251 117 214 c 0xba
EndSplineSet
EndChar
StartChar: uni018D
Encoding: 397 397 34
Width: 495
Flags: HW
TeX: 0 0 0 0
HStem: -120 36<307.61 421.7> 522 26<153.7 377.3>
VStem: 58 70<190.7 476.9> 372 75<196.7 425> 417 23<-56.3195 35.6>
Fore
58 335 m 0
 58 455 144 548 249 548 c 0
 363 548 447 441 447 315 c 0xf0
 447 224 402 136 327 101 c 0
 318 97 309 94 300 90 c 1
 351 56 440 31 440 -37 c 0xe8
 440 -65 423 -120 355 -120 c 0
 280 -120 98 -63 98 -7 c 0
 98 5 106 22 132 22 c 0
 187 22 217.066 -40.8743 246 -56 c 0
 299.121 -83.7693 344 -84 371 -84 c 0
 410 -84 417 -47 417 -32 c 0xe8
 417 20 264.953 68.9151 200 105 c 0
 128 145 58 224 58 335 c 0
128 369 m 0xf0
 128 229 257 113 276 113 c 0
 295 113 372 150 372 308 c 0
 372 398 347 522 246 522 c 0
 175 522 128 452 128 369 c 0xf0
EndSplineSet
EndChar
StartChar: uni0191
Encoding: 401 401 35
Width: 652
Flags: W
TeX: 0 0 0 0
HStem: -205 23<41.9873 141.3> 325 31<225 311> 649 31<33 157.1 227 582>
VStem: -29 91<-148.4 -88.6> 136 89<-119.1 325 356 638> 417 25<208 318.5 363.8 473> 585 25<455 635.602>
Fore
-29 -126 m 0
 -29 -96 -6 -79 16 -79 c 0
 40 -79 62 -97 62 -125 c 0
 62 -143 53 -163 26 -170 c 1
 43 -179 59 -182 73 -182 c 0
 133 -182 136 -90 136 7 c 2
 136 602 l 2
 136 638 134 649 57 649 c 2
 33 649 l 1
 33 680 l 1
 582 680 l 1
 610 455 l 1
 585 455 l 1
 569 593 544 649 394 649 c 2
 274 649 l 2
 227 649 225 642 225 609 c 2
 225 356 l 1
 311 356 l 2
 407 356 417 389 417 473 c 1
 442 473 l 1
 442 208 l 1
 417 208 l 1
 417 293 407 325 311 325 c 2
 225 325 l 1
 225 7 l 2
 222 -178 126 -205 75 -205 c 0
 25 -205 -29 -177 -29 -126 c 0
EndSplineSet
EndChar
StartChar: uni0193
Encoding: 403 403 36
Width: 784
Flags: W
TeX: 0 0 0 0
HStem: -22 31<337.5 465.02> 242 28<452 601 650.5 652 663.113 735> 674 31<338 532.7> 846 23<704 771.329>
VStem: 56 103<75.5 608.5> 577 89<9 231> 640 26<689.464 821.8> 737 92<761.9 832.1>
Fore
56 342 m 0xfd
 56 547 218 705 404 705 c 0
 503 705 557 651 589 619 c 1
 639 694 639.993 695 640 696 c 0
 641 839 703 869 745 869 c 0
 788 869 829 839 829 798 c 0
 829 770 808 752 783 752 c 0
 758 752 737 770 737 797 c 0
 737 824 756 836 769 842 c 1
 761 844 752 846 743 846 c 0
 713 846 669 825 665 697 c 1
 666 693 666 688 666 681 c 2
 666 444 l 2xfb
 666 423 666 420 650 420 c 0
 636 420 636 423 634 437 c 0
 613 584 523 674 416 674 c 0
 356 674 159 641 159 342 c 0
 159 44 357 9 422 9 c 0
 450 9 577 18 577 130 c 2
 577 194 l 2
 577 231 574 242 484 242 c 2
 452 242 l 1
 452 273 l 1
 488 270 573 270 613 270 c 0
 643 270 698 272 735 273 c 1
 735 242 l 1
 670 242 666 237 666 198 c 2
 666 24 l 2
 666 9 666 1 657 1 c 0
 646 1 606 41 593 63 c 1
 559 4 479 -22 406 -22 c 0
 216 -22 56 137 56 342 c 0xfd
EndSplineSet
EndChar
StartChar: uni0194
Encoding: 404 404 37
Width: 751
Flags: HW
TeX: 0 0 0 0
HStem: -217 29<336.5 434> 652 31<19 103.5 227.792 289 519 565.435 641.6 666.8 672.892 730>
VStem: 280 29<-179 -47.7> 441 77<-165.6 -39.5>
Fore
19 652 m 1
 19 683 l 1
 55 682 98 680 146 680 c 0
 184 680 253 680 289 683 c 1
 289 652 l 1
 264 652 207 652 207 623 c 0
 207 621 207 619 213 605 c 2
 404 172 l 1
 587 582 l 2
 589 588 592 594 592 602 c 0
 592 625 571 651 519 652 c 1
 519 683 l 1
 545 682 603 680 633 680 c 0
 659 680 699 681 730 683 c 1
 730 652 l 1
 662 651 635 622 621 585 c 2
 425 131 l 1
 477 50 518 -4 518 -72 c 0
 518 -148 462 -217 386 -217 c 0
 322 -217 280 -159 280 -85 c 0
 280 -52 284 -7 346 79 c 1
 117 614 l 2
 103 652 84 652 19 652 c 1
309 -88 m 0
 309 -158 347 -188 382 -188 c 0
 422 -188 441 -153 441 -111 c 0
 441 -56 401 -7 370 45 c 1
 315 -23 309 -57 309 -88 c 0
EndSplineSet
EndChar
StartChar: uni0196
Encoding: 406 406 38
Width: 417
Flags: W
TeX: 0 0 0 0
HStem: -25 31<249.9 317> 652 31<33 78.5455>
VStem: 111 89<1.7 645> 360 30<8.5 94>
Fore
33 652 m 1
 33 683 l 1
 200 694 l 1
 200 181 l 2
 200 17 258 6 285 6 c 2
 295 6 l 2
 317 6 360 28 360 93 c 1
 390 94 l 1
 390 13 341 -25 293 -25 c 0
 177 -25 111 44 111 185 c 2
 111 596 l 2
 111 645 103 652 33 652 c 1
EndSplineSet
EndChar
StartChar: uni0197
Encoding: 407 407 39
Width: 361
Flags: HW
TeX: 0 0 0 0
HStem: 0 31<28 133 228 333> 3 28<28 156.7 204.3 333> 326 32<28 136 225 333> 652 28<28 156.7 228 333>
VStem: 136 89<31.2 326 358 641>
Fore
28 0 m 1
 28 31 l 1xb8
 54 31 l 2
 133 31 136 42 136 78 c 2
 136 326 l 1
 28 326 l 1
 28 358 l 1
 136 358 l 1
 136 605 l 2
 136 641 133 652 54 652 c 2
 28 652 l 1
 28 683 l 1
 63 680 142 680 181 680 c 0
 219 680 298 680 333 683 c 1
 333 652 l 1
 307 652 l 2
 228 652 225 641 225 605 c 2
 225 358 l 1
 333 358 l 1
 333 326 l 1
 225 326 l 1
 225 78 l 2
 225 42 228 31 307 31 c 2
 333 31 l 1
 333 0 l 1xb8
 298 3 219 3 180 3 c 0x78
 142 3 63 3 28 0 c 1
EndSplineSet
EndChar
StartChar: uni0198
Encoding: 408 408 40
Width: 765
Flags: HW
TeX: 0 0 0 0
HStem: 0 31<33 134 227 328 478 521.543 665.8 736> 3 28<33 157.1 203.9 328> 652 28<33 157.1 227 328> 668 22<658.135 711.336>
VStem: 136 89<31.2 253 287 641> 677 87<589.2 662>
Fore
33 0 m 1
 33 31 l 1x8c
 57 31 l 2
 134 31 136 42 136 78 c 2
 136 605 l 2
 136 641 134 652 57 652 c 2
 33 652 l 1
 33 683 l 1
 68 680 143 680 181 680 c 0
 219 680 293 680 328 683 c 1
 328 652 l 1
 304 652 l 2xac
 227 652 225 641 225 605 c 2
 225 287 l 1
 620 663 l 2
 641.005 682.995 657 690 682 690 c 0
 732 690 764 663 764 624 c 0
 764 591 738 579 721 579 c 0
 699 579 677 597 677 623 c 0
 677 653 705 664 707 664 c 1
 706 665 697 668 683 668 c 0
 670 668 660 665 650 658 c 1
 400 419 l 1
 631 79 l 2
 661 35 682 31 736 31 c 1
 736 0 l 1x9c
 694 2 656 3 621 3 c 0x4c
 583 3 513 3 478 0 c 1
 478 31 l 1
 498 31 537 31 537 61 c 0
 537 73 528 86 522 95 c 2
 341 363 l 1
 225 253 l 1
 225 78 l 2
 225 42 227 31 304 31 c 2
 328 31 l 1
 328 0 l 1x8c
 293 3 218 3 180 3 c 0x4c
 142 3 68 3 33 0 c 1
EndSplineSet
EndChar
StartChar: uni019C
Encoding: 412 412 41
Width: 1056
Flags: W
TeX: 0 0 0 0
HStem: -23 33<199.2 416.2 583.3 773.1> 0 31<931.816 1037> 652 31<20 109 226 315 381 484.238 587 676 742 845.238 948 1037>
VStem: 123 89<133 655.5> 482 90<65.5 645> 844 90<26.2 645>
Fore
20 652 m 1xbc
 20 683 l 1
 71 681 123 680 174 680 c 0
 231 680 273 682 315 683 c 1
 315 652 l 1
 299 652 l 2
 226 652 213 645 212 610 c 2
 211 176 l 2
 211 91 224 10 307 10 c 0
 391 10 481.571 93.0006 482 248 c 2
 483 609 l 2
 482 645 470 652 395 652 c 2
 381 652 l 1
 381 683 l 1
 432 681 484 680 535 680 c 0
 592 680 634 682 676 683 c 1
 676 652 l 1
 660 652 l 2
 587 652 574 645 573 610 c 2
 572 176 l 2
 572 91 587 10 668 10 c 0xbc
 751 10 843.571 93.0006 844 248 c 2
 845 609 l 2
 844 645 831 652 756 652 c 2
 742 652 l 1
 742 683 l 1
 793 681 845 680 896 680 c 0
 953 680 995 682 1037 683 c 1
 1037 652 l 1
 1021 652 l 2
 948 652 936 645 935 610 c 2
 934 73 l 2
 935 37 949 31 1022 31 c 2
 1037 31 l 1
 1037 0 l 1
 984 2 935 3 905 3 c 0
 877 3 854 1 844 0 c 1x7c
 844 115 l 1
 806 34 747 -23 660 -23 c 0
 601 -23 505 -6 486 123 c 1
 464 66 407 -23 298 -23 c 0
 222 -23 179 7 160 33 c 0
 122 87 122 133 122 260 c 2
 123 609 l 2
 122 645 109 652 34 652 c 2
 20 652 l 1xbc
EndSplineSet
EndChar
StartChar: uni019D
Encoding: 413 413 42
Width: 750
Flags: W
TeX: 0 0 0 0
HStem: -205 23<40.2524 128.8> 0 21G<595.5 606> 652 31<33 126.081 482 551.434 646.566 716>
VStem: -29 91<-148.4 -88.6> 136 28<-117.4 625> 585 28<151 605.582>
Fore
-29 -126 m 0
 -29 -96 -6 -79 16 -79 c 0
 40 -79 62 -97 62 -125 c 0
 62 -143 53 -163 26 -170 c 1
 43 -179 53 -182 67 -182 c 0
 128 -182 136 -88 136 10 c 2
 136 627 l 2
 136 646 135 647 112 650 c 0
 97 651 77 652 62 652 c 2
 33 652 l 1
 33 683 l 1
 203 683 l 2
 222 683 223 682 232 670 c 2
 585 151 l 1
 585 578 l 2
 585 605 585 652 482 652 c 1
 482 683 l 1
 517 682 566 680 599 680 c 0
 632 680 681 682 716 683 c 1
 716 652 l 1
 613 652 613 605 613 578 c 2
 613 26 l 2
 613 7 613 0 599 0 c 0
 592 0 591 1 582 13 c 2
 174 613 l 2
 169.945 618.963 169 620 164 625 c 1
 164 10 l 2
 164 -180 115 -205 69 -205 c 0
 19 -205 -29 -177 -29 -126 c 0
EndSplineSet
EndChar
StartChar: uni019F
Encoding: 415 415 43
Width: 777
Flags: HW
TeX: 0 0 0 0
HStem: -22 26<269.4 503.4> 321 40<159 617> 680 25<281.4 499.8>
VStem: 56 103<236.973 321 361 606.8> 618 103<235.909 321 361 604.2>
Fore
56 339 m 0
 56 545 209 705 388 705 c 0
 570 705 721 543 721 339 c 0
 721 137 570 -22 388 -22 c 0
 210 -22 56 134 56 339 c 0
159 321 m 1
 170 84 297 4 389 4 c 0
 477 4 606 81 617 321 c 1
 159 321 l 1
159 361 m 1
 618 361 l 1
 615 610 474 680 388 680 c 0
 306 680 162 613 159 361 c 1
EndSplineSet
EndChar
StartChar: uni01A2
Encoding: 418 418 44
Width: 852
Flags: HW
TeX: 0 0 0 0
HStem: -200 31<575 680 775 880> -197 28<575 703.7 751.3 880> -22 26<263.2 482.9> 621 14<597 679.4> 680 25<279.1 450.7>
VStem: 55 103<72.5 606.8> 511 89<73 547> 683 89<-168.8 616>
Fore
55 339 m 0
 55 545 208 705 387 705 c 0
 460 705 527 635 597 635 c 0
 685 635 735 706 772 706 c 1
 772 -122 l 2
 772 -158 775 -169 854 -169 c 2
 880 -169 l 1
 880 -200 l 1xbf
 845 -197 766 -197 727 -197 c 0x7f
 689 -197 610 -197 575 -200 c 1
 575 -169 l 1
 601 -169 l 2xbf
 680 -169 683 -158 683 -122 c 2
 683 605 l 2
 683 616 677 621 669 621 c 0
 654 621 632 607 622 597 c 0
 602 577 600 547 600 547 c 1
 600 58 l 1
 543 10 464 -22 387 -22 c 0
 209 -22 55 134 55 339 c 0
158 353 m 0x3f
 158 92 292 4 388 4 c 0
 461 4 491 48 511 73 c 1
 511 614 l 1
 475 660 436 680 387 680 c 0
 304 680 158 612 158 353 c 0x3f
EndSplineSet
EndChar
StartChar: uni01A3
Encoding: 419 419 45
Width: 611
Flags: HW
TeX: 0 0 0 0
HStem: -199 31<397 480.505 536.149 619> -13 24<188.4 330.1> 389 26<404 473.2> 427 21<199.1 309.6>
VStem: 38 83<48.7 391.9> 348 66<48 368> 475 66<-181.5 388.316>
Fore
38 219 m 0
 38 352 153 448 268 448 c 0
 315 448 359 415 404 415 c 0
 461 415 517 448 541 448 c 1
 541 -123 l 2
 541 -168 552 -168 619 -168 c 1
 619 -199 l 1
 582 -198 533 -196 508 -196 c 0
 483 -196 430 -198 397 -199 c 1
 397 -168 l 1
 464 -168 475 -168 475 -123 c 2
 475 384 l 1
 474 388 472 389 468 389 c 0
 456 389 414 368 414 337 c 2
 414 39 l 1
 378 8 326 -13 268 -13 c 0
 154 -13 38 88 38 219 c 0
121 228 m 0
 121 61 207 11 269 11 c 0
 316 11 335 32 348 48 c 1
 348 385 l 1
 325 415 300 427 268 427 c 0
 215 427 121 395 121 228 c 0
EndSplineSet
EndChar
StartChar: uni01A4
Encoding: 420 420 46
Width: 791
Flags: HW
TeX: 0 0 0 0
HStem: 0 31<146 247 340 441> 3 28<146 270.1 316.9 441> 316 26<338 663> 652 31<92 270.1 337 677.1>
VStem: 21 92<542.5 596.765> 249 86<42 316 342 645> 632 103<435.9 560.7>
Fore
21 578 m 0
 21 641 92 683 175 683 c 2
 499 683 l 2
 636 683 735 595 735 497 c 0
 735 397 627 316 507 316 c 2
 338 316 l 1
 338 78 l 2
 338 42 340 31 417 31 c 2
 441 31 l 1
 441 0 l 1xbe
 406 3 331 3 293 3 c 0x7e
 255 3 181 3 146 0 c 1
 146 31 l 1
 170 31 l 2xbe
 247 31 249 42 249 78 c 2
 249 605 l 2
 249 641 247 652 170 652 c 0
 104 652 76 630 66 622 c 1
 106 618 113 590 113 575 c 0
 113 550 92 530 67 530 c 0
 40 530 21 550 21 578 c 0
335 342 m 1x3e
 473 342 l 2
 632 342 632 450 632 497 c 0
 632 546 632 652 473 652 c 2
 384 652 l 2
 337 652 335 645 335 612 c 2
 335 342 l 1x3e
EndSplineSet
EndChar
StartChar: uni01A6
Encoding: 422 422 47
Width: 722
Flags: HW
TeX: 0 0 0 0
HStem: -177 22<598 673.5> 0 31<35 136 226 327> 3 28<35 159.1 202.9 327> 331 22<224 372.166> 580 32<226 445.6> 652 28<35 159.1 234 330>
VStem: 138 86<42 331 353 592 611 651.3> 470 87<63 202.139> 507 103<383.3 596.5>
Fore
35 0 m 1
 35 31 l 1
 59 31 l 2xdf
 136 31 138 42 138 78 c 2
 138 605 l 2
 138 641 136 652 59 652 c 2
 35 652 l 1
 35 683 l 1
 70 680 145 680 183 680 c 0
 221 680 295 680 330 683 c 1
 330 652 l 1
 306 652 l 2
 234 652 227 642 227 611 c 1
 329 612 341 612 354 612 c 0
 499 612 610 568 610 473 c 0xde80
 610 395 532 364 435 340 c 1
 490 321 557 267 557 186 c 2
 570 -11 l 2
 576.202 -104.987 592 -155 641 -155 c 0
 666 -155 701 -137 707 -66 c 0
 708 -59 708 -50 719 -50 c 0
 732 -50 732 -61 732 -67 c 0
 732 -95 715 -177 637 -177 c 0
 607 -177 552 -171 511 -135 c 0
 470 -97 470 -2 470 63 c 0
 470 130 470 261 432 297 c 0
 397 331 355 331 339 331 c 2
 224 331 l 1
 224 78 l 2
 224 42 226 31 303 31 c 2
 327 31 l 1
 327 0 l 1xdf
 291 3 220 3 181 3 c 0xbf
 142 3 71 3 35 0 c 1
224 353 m 1
 335 353 l 2
 483 353 507 404 507 473 c 0
 507 574 421 580 339 580 c 2x9e80
 304 580 l 2
 226 580 224 580 224 540 c 2
 224 353 l 1
EndSplineSet
EndChar
StartChar: uni01A9
Encoding: 425 425 48
Width: 722
Flags: W
TeX: 0 0 0 0
HStem: 0 42<120 552> 652 31<169 614.3>
VStem: 640 26<211.607 237 458 482.107>
Fore
56 667 m 0
 56 682 67 683 78 683 c 2
 638 683 l 1
 666 458 l 1
 640 458 l 1
 618 630 560 652 379 652 c 2
 169 652 l 1
 365 368 l 2
 373.981 354.987 379 348 379 342 c 0
 379 335 373 328 362 315 c 2
 120 42 l 1
 359 42 l 2
 552 42 617 55 640 237 c 1
 666 237 l 1
 638 0 l 1
 77 0 l 2
 69 0 57 2 57 12 c 0
 57 19 64 26 69 32 c 2
 305 298 l 1
 295 311 286 325 277 339 c 2
 66 644 l 2
 61 651 56 659 56 667 c 0
EndSplineSet
EndChar
StartChar: uni01AC
Encoding: 428 428 49
Width: 722
Flags: HW
TeX: 0 0 0 0
HStem: 0 31<171 316 405 550> 3 28<171 347.5 373.5 550> 646 31<98 334.6 383.8 666>
VStem: 21 92<536.5 590.765> 316 89<45 656.7> 660 25<452 662.09>
Fore
21 572 m 0
 21 635 92 677 175 677 c 2
 666 677 l 1
 685 452 l 1
 660 452 l 1
 646 613 631 646 480 646 c 0
 406 646 405 645 405 606 c 2
 405 79 l 2
 405 45 405 31 510 31 c 2
 550 31 l 1
 550 0 l 1xbc
 509 3 406 3 360 3 c 0x7c
 314 3 212 3 171 0 c 1
 171 31 l 1
 211 31 l 2
 316 31 316 45 316 79 c 2
 316 606 l 2xbc
 316 645 313 646 241 646 c 2
 171 646 l 2
 98 646 76 624 66 616 c 1
 106 612 113 584 113 569 c 0
 113 544 92 524 67 524 c 0
 40 524 21 544 21 572 c 0
EndSplineSet
EndChar
StartChar: uni01AE
Encoding: 430 430 50
Width: 722
Flags: HW
TeX: 0 0 0 0
HStem: -205 23<399.7 499.013> 646 31<55 334.6 383.8 666>
VStem: 36 25<454.166 664.256> 316 89<-90 656.7> 479 91<-148.4 -88.6> 660 25<452 662.09>
Fore
36 452 m 1
 55 677 l 1
 666 677 l 1
 685 452 l 1
 660 452 l 1
 646 613 631 646 480 646 c 0
 406 646 405 645 405 606 c 2
 405 6 l 2
 405 -90 408 -182 468 -182 c 0
 482 -182 498 -179 515 -170 c 1
 488 -163 479 -143 479 -125 c 0
 479 -97 501 -79 525 -79 c 0
 547 -79 570 -96 570 -126 c 0
 570 -177 516 -205 466 -205 c 0
 415 -205 319 -178 316 6 c 2
 316 606 l 2
 316 645 313 646 241 646 c 0
 90 646 75 613 61 452 c 1
 36 452 l 1
EndSplineSet
EndChar
StartChar: uni01B1
Encoding: 433 433 51
Width: 722
Flags: HW
TeX: 0 0 0 0
HStem: 0 22<240.4 482.2> 640 65<82 233 488 644>
VStem: 55 103<74.5 442.4> 563 103<73.2 438.5>
Fore
44 543 m 1
 77 705 l 1
 230 705 l 2
 254 705 262 704 262 682 c 0
 262 546 158 398 158 250 c 0
 158 92 268 22 360 22 c 0
 454 22 563 93 563 250 c 0
 563 395 459 546 459 683 c 0
 459 704 469 705 484 705 c 2
 644 705 l 1
 677 543 l 1
 651 543 l 1
 631 637 637 640 555 640 c 2
 488 640 l 1
 526 498 666 400 666 250 c 0
 666 114 533 0 360 0 c 0
 186 0 55 115 55 250 c 0
 55 401 195 499 233 640 c 1
 166 640 l 2
 82 640 89 636 69 543 c 1
 44 543 l 1
EndSplineSet
EndChar
StartChar: uni01B2
Encoding: 434 434 52
Width: 724
Flags: W
TeX: 0 0 0 0
HStem: -22 31<269.9 444.1> 652 31<33 134 227 328> 674 23<525.671 594.3>
VStem: 136 89<87 651.8> 468 92<589.9 660.1> 626 31<420.65 697.6>
Fore
33 652 m 1xdc
 33 683 l 1
 68 680 143 680 181 680 c 0
 219 680 293 680 328 683 c 1
 328 652 l 1
 304 652 l 2xdc
 227 652 225 641 225 605 c 2
 225 224 l 2
 225 34 284 9 331 9 c 0
 418 9 510 107 554 184 c 0
 577 223 617 273 626 513 c 0
 626 655 585 674 554 674 c 0
 545 674 536 672 528 670 c 1
 541 664 560 652 560 625 c 0
 560 598 539 580 514 580 c 0
 489 580 468 598 468 626 c 0
 468 667 509 697 552 697 c 0xbc
 594 697 656 667 657 524 c 0
 647 259 606 206 580 163 c 0
 530 82 434 -22 329 -22 c 0
 193 -22 136 87 136 228 c 2
 136 605 l 2
 136 641 134 652 57 652 c 2
 33 652 l 1xdc
EndSplineSet
EndChar
StartChar: uni01B3
Encoding: 435 435 53
Width: 749
Flags: W
TeX: 0 0 0 0
HStem: 0 31<228 329 420 520> 3 28<228 352.1 396.9 520> 652 31<11 97 230.5 289> 667 22<664.873 712.336>
VStem: 331 86<42 273> 678 87<588.2 661>
Fore
11 652 m 1xac
 11 683 l 1
 53 681 99 680 141 680 c 0
 180 680 253 680 289 683 c 1
 289 652 l 1xac
 244 652 219 648 219 627 c 0
 219 622 219 620 226 610 c 2
 407 315 l 1
 622 665 l 2
 635 685 659 689 683 689 c 0
 733 689 765 662 765 623 c 0
 765 590 739 578 722 578 c 0
 700 578 678 596 678 622 c 0
 678 652 706 663 708 663 c 1
 707 664 698 667 684 667 c 0
 672 667 656 661 645 644 c 2
 417 273 l 1
 417 80 l 2
 417 41 420 31 497 31 c 2
 520 31 l 1
 520 0 l 1x9c
 484 3 413 3 374 3 c 0x4c
 335 3 264 3 228 0 c 1
 228 31 l 1
 252 31 l 2
 329 31 331 42 331 78 c 2
 331 273 l 1
 121 615 l 2
 105 641 97 652 29 652 c 2
 11 652 l 1xac
EndSplineSet
EndChar
StartChar: uni01B4
Encoding: 436 436 54
Width: 640
Flags: W
TeX: 0 0 0 0
HStem: -205 22<84.0187 192.9> 400 31<19 81.7266 180.763 225> 667 22<563.06 613.336>
VStem: 19 84<-143.833 -89.2> 579 87<588.2 661>
Fore
19 -124 m 0
 19 -94 41 -81 61 -81 c 0
 84 -81 103 -97 103 -123 c 0
 103 -139 95 -161 64 -165 c 1
 83 -183 106 -183 111 -183 c 0
 175 -183 200 -124 250 0 c 1
 100 365 l 2
 85.6712 399.867 67 400 19 400 c 1
 19 431 l 1
 49 429 89 428 116 428 c 0
 133 428 199 430 225 431 c 1
 225 400 l 1
 206 400 169 400 169 374 c 0
 169 370 171 366 175 356 c 2
 286 87 l 1
 515 643 l 2
 529 678 559 689 584 689 c 0
 634 689 666 662 666 623 c 0
 666 590 640 578 623 578 c 0
 601 578 579 596 579 622 c 0
 579 652 607 663 609 663 c 1
 608 664 599 667 585 667 c 0
 572 667 546 662 535 626 c 2
 239 -91 l 2
 215 -148 174 -205 111 -205 c 0
 61 -205 19 -169 19 -124 c 0
EndSplineSet
EndChar
StartChar: uni01B5
Encoding: 437 437 55
Width: 611
Flags: W
TeX: 0 0 0 0
HStem: 0 34<159 508> 326 32<124 246 363 484> 652 31<131 452>
VStem: 69 25<459.546 606.727> 535 25<86.001 267>
Fore
56 17 m 0
 56 25 56.0247 25.9843 63 37 c 2
 246 326 l 1
 124 326 l 1
 124 358 l 1
 266 358 l 1
 452 652 l 1
 295 652 l 2
 131 652 101 571 94 458 c 1
 69 458 l 1
 80 683 l 1
 528 683 l 2
 548 683 554 683 554 667 c 0
 554 660 553.985 659.009 547 648 c 2
 363 358 l 1
 484 358 l 1
 484 326 l 1
 343 326 l 1
 159 34 l 1
 323 34 l 2
 508 34 527 128 535 267 c 1
 560 267 l 1
 543 0 l 1
 82 0 l 2
 61 0 56 0 56 17 c 0
EndSplineSet
EndChar
StartChar: uni01B6
Encoding: 438 438 56
Width: 443
Flags: W
TeX: 0 0 0 0
HStem: 0 25<112 346> 199 32<91 160 264 334> 409 22<92 316>
VStem: 42 25<271.468 404.297> 376 25<33.1545 187>
Fore
28 14 m 0
 28 19 28 21 37 32 c 2
 160 199 l 1
 91 199 l 1
 91 231 l 1
 184 231 l 1
 316 409 l 1
 202 409 l 2
 92 409 73 372 67 270 c 1
 42 270 l 1
 53 431 l 1
 373 431 l 2
 391 431 399 431 399 418 c 0
 399 414 399 412 390 401 c 2
 264 231 l 1
 334 231 l 1
 334 199 l 1
 241 199 l 1
 112 25 l 1
 230 25 l 2
 346 25 367 69 376 187 c 1
 401 187 l 1
 384 0 l 1
 54 0 l 2
 35 0 28 0 28 14 c 0
EndSplineSet
EndChar
StartChar: uni01B8
Encoding: 440 440 57
Width: 550
Flags: W
TeX: 0 0 0 0
HStem: -22 25<214.3 401.5> 355 33<231.6 316.712> 622 61<74 460.6>
VStem: 41 103<54 275> 400 112<92.3 172.9> 487 25<458 657.477>
Fore
41 184 m 0xf8
 41 298 150 388 286 388 c 0
 294 388 302 388 310 387 c 1
 61 600 l 2
 48.0593 611.07 43 614 43 632 c 2
 43 661 l 2
 43 675 45 683 69 683 c 2
 484 683 l 1
 512 458 l 1
 487 458 l 1xf4
 466 610 415 622 263 622 c 2
 74 622 l 1
 356 382 l 2
 373 367 377 364 378 358 c 1
 380 352 376 345 366 345 c 0
 351 345 362 354 294 355 c 0
 246 355 208 342 178 309 c 0
 159 287 144 254 144 184 c 0
 144 27 232 3 291 3 c 0
 376 3 437 24 469 75 c 1
 458 75 l 2
 420 75 400 101 400 130 c 0
 400 163 426 186 456 186 c 0
 476 186 512 174 512 127 c 0
 512 9 392 -22 289 -22 c 0
 131 -22 41 84 41 184 c 0xf8
EndSplineSet
EndChar
StartChar: uni01BB
Encoding: 443 443 58
Width: 499
Flags: W
TeX: 0 0 0 0
HStem: 0 77<127 384.384> 281 32<71 278 376 455> 429 21G<101.5 111.5> 635 31<148.6 342.3>
VStem: 50 105<428.7 515.8> 358 91<400.5 578.6>
Fore
50 0 m 1
 50 24 50 26 61 37 c 2
 253 251 l 2
 261 260 270 270 278 281 c 1
 71 281 l 1
 71 313 l 1
 301 313 l 1
 334 362 358 417 358 472 c 0
 358 554 315 635 224 635 c 0
 166 635 112 598 89 533 c 1
 92 534 94 534 102 534 c 0
 137 534 155 508 155 482 c 0
 155 441 120 429 103 429 c 0
 100 429 50 429 50 485 c 0
 50 574 124 666 237 666 c 0
 359 666 449 586 449 472 c 0
 449 412 427 368 376 313 c 1
 455 313 l 1
 455 281 l 1
 344 281 l 1
 314 252 278 219 233 180 c 2
 127 77 l 1
 307 77 l 2
 329 77 395 77 402 85 c 0
 412 100 419 144 424 174 c 1
 449 174 l 1
 421 0 l 1
 50 0 l 1
EndSplineSet
EndChar
StartChar: uni01BC
Encoding: 444 444 59
Width: 519
Flags: W
TeX: 0 0 0 0
HStem: -22 28<153.1 307.8> 116 98<97.7849 160.9> 398 22<215.6 343.6> 637 46<17 118 160 454>
VStem: 69 99<133.8 196.2> 120 31<369 636.7> 379 89<131.33 273> 443 25<513 644.82>
Fore
17 637 m 1xf6
 17 683 l 1
 454 683 l 1
 468 513 l 1
 443 513 l 1
 434 614 428 637 317 637 c 2
 230 637 l 2
 160 637 152 628 151 599 c 2
 151 369 l 1xf5
 187 404 230 420 278 420 c 0
 386 420 468 320 468 201 c 0
 468 74 366 -22 250 -22 c 0
 138 -22 69 75 69 161 c 0
 69 207 104 214 118 214 c 0
 151 214 168 189 168 165 c 0xfa
 168 141 151 116 118 116 c 0
 107 116 104 117 101 118 c 1
 118 59 175 6 248 6 c 0
 294 6 331 32 355 71 c 0
 379 113 379 173 379 208 c 0
 379 258 377 297 361 334 c 0
 353 352 328 398 276 398 c 0
 195 398 158 344 147 328 c 0
 143 322 141 319 134 319 c 0
 120 319 120 327 120 345 c 2
 120 590 l 2
 120 626 118 637 41 637 c 2
 17 637 l 1xf6
EndSplineSet
EndChar
StartChar: uni01BD
Encoding: 445 445 60
Width: 399
Flags: HW
TeX: 0 0 0 0
HStem: -22 26<123.2 249.3> 67 76<83.9236 129.8> 252 26<170.6 270> 394 36<27 106.6 128 356>
VStem: 56 79<80.3 129.7> 94 27<238 393.6> 298 69<8.6 193.15> 348 19<298 401.102>
Fore
27 394 m 1
 27 430 l 1
 356 430 l 1
 367 298 l 1
 348 298 l 1
 341 377 336 394 250 394 c 2
 182 394 l 2
 128 394 122 387 121 365 c 2
 121 238 l 1xf5
 149 266 182 278 220 278 c 0
 303 278 367 228 367 136 c 0
 367 38 288 -22 198 -22 c 0
 111 -22 56 35 56 102 c 0
 56 138 86 143 96 143 c 0
 122 143 135 124 135 105 c 0
 135 86 124 67 98 67 c 0
 90 67 89 68 86 69 c 1
 99 23 140 4 196 4 c 0xfa
 237 4 298 22 298 141 c 0xfa
 298 180 294 200 286 213 c 0
 278 226 258 252 218 252 c 0
 155 252 126 210 118 198 c 0
 115 193 113 191 108 191 c 0
 97 191 94 197 94 211 c 2
 94 367 l 2
 94 388 91 394 39 394 c 2
 27 394 l 1
EndSplineSet
EndChar
StartChar: uni01BE
Encoding: 446 446 61
Width: 460
Flags: HW
TeX: 0 0 0 0
HStem: -11 22<225.663 371.4> 400 31<173 316> 400 22<19 104>
VStem: 104 69<279.5 400> 148 25<508.4 615> 383 48<35.7 195.6>
Fore
19 400 m 1
 19 422 l 1xb4
 117 426 147 533 148 615 c 1
 173 615 l 1
 173 431 l 1xcc
 316 431 l 1
 316 400 l 1
 173 400 l 1
 173 331 l 2
 173 289 219 282 275 271 c 0
 316.953 262.759 356 255 389 223 c 0
 401 211 431 181 431 128 c 0
 431 56 385 -11 270 -11 c 0
 249 -11 204 -10 160 32 c 1
 142 13 126 -11 115 -11 c 0xd4
 104 -11 104 -4 104 13 c 2
 104 145 l 2
 104 163 104 170 117 170 c 0
 127 170 127.944 165.987 131 153 c 0
 151 68 186 11 270 11 c 0
 348 11 383 51 383 102 c 0
 383 174 301 190 279 194 c 0
 207 208 179 214 147 240 c 0
 120 262 104 290 104 325 c 2
 104 400 l 1
 19 400 l 1
EndSplineSet
EndChar
StartChar: uni01D6
Encoding: 470 470 63
Width: 555
Flags: HW
TeX: 0 0 0 0
HStem: -11 22<157.8 334.8> 0 31<495.727 535> 400 31<32 72.0909 310 350.091> 554 105<149.9 218.8 346.2 413.8> 721 32<103 463>
VStem: 110 69<56.6 397> 132 105<572.2 646.3> 327 105<565.7 646.3> 388 69<52.9 393> 391 66<23.3 79>
Fore
327 606 m 0x39
 327 637 353 659 380 659 c 0
 407 659 432 637 432 606 c 0
 432 575 406 554 380 554 c 0
 354 554 327 575 327 606 c 0x39
EndSplineSet
Refer: 244 117 S 1 0 0 1 0 0 2
Refer: 138 729 S 1 0 0 1 33 -9 2
Refer: 137 175 S 1 0 0 1 34 72 2
EndChar
StartChar: uni01D8
Encoding: 472 472 65
Width: 555
Flags: HW
TeX: 0 0 0 0
HStem: -11 22<157.8 334.8> 0 31<495.727 535> 400 31<32 72.0909 310 350.091> 554 105<149.9 218.8 346.2 413.8> 696 152<206 341>
VStem: 110 69<56.6 397> 132 105<572.2 646.3> 191 185<716 811> 327 105<565.7 646.3> 388 69<52.9 393> 391 66<23.3 79>
Fore
327 606 m 0x3880
 327 637 353 659 380 659 c 0
 407 659 432 637 432 606 c 0
 432 575 406 554 380 554 c 0
 354 554 327 575 327 606 c 0x3880
EndSplineSet
Refer: 244 117 S 1 0 0 1 0 0 2
Refer: 138 729 S 1 0 0 1 33 -9 2
Refer: 129 180 S 1 0 0 1 -23 206 2
EndChar
StartChar: uni01D9
Encoding: 473 473 66
Width: 750
Flags: HW
TeX: 0 0 0 0
HStem: -22 31<328.9 513.5> 652 31<33 134 227 328 479 546.661 645.917 716> 761 105<236.7 310.8 431.7 505.8>
VStem: 136 89<87 651.8> 224 105<778.9 849.1> 419 105<778.9 849.1> 582 31<165.509 605.582>
Fore
222 993 m 1
 233 1009 l 1
 234 1009 l 1
 340 947 364 930 377 930 c 0xe6
 387 930 461 980 516 1009 c 1
 528 993 l 1
 384 871 382 868 375 868 c 0
 363 868 281 946 222 993 c 1
EndSplineSet
Refer: 212 85 S 1 0 0 1 0 0 2
Refer: 173 46 S 1 0 0 1 139 761 2
Refer: 173 46 S 1 0 0 1 334 761 2
EndChar
StartChar: uni01DA
Encoding: 474 474 67
Width: 555
Flags: HW
TeX: 0 0 0 0
HStem: -11 22<157.8 334.8> 0 31<495.727 535> 400 31<32 72.0909 310 350.091> 554 105<149.9 218.8 346.2 413.8>
VStem: 110 69<56.6 397> 124 306<803 803> 132 105<572.2 646.3> 327 105<565.7 646.3> 388 69<52.9 393> 391 66<23.3 79>
Fore
327 606 m 0x31
 327 637 353 659 380 659 c 0
 407 659 432 637 432 606 c 0
 432 575 406 554 380 554 c 0
 354 554 327 575 327 606 c 0x31
EndSplineSet
Refer: 244 117 S 1 0 0 1 0 0 2
Refer: 138 729 S 1 0 0 1 33 -9 2
Refer: 135 711 S 1 0 0 1 28 172 2
EndChar
StartChar: uni01DC
Encoding: 476 476 69
Width: 555
Flags: HW
TeX: 0 0 0 0
HStem: -11 22<157.8 334.8> 0 31<495.727 535> 400 31<32 72.0909 310 350.091> 554 105<149.9 218.8 346.2 413.8> 685 152<209 344>
VStem: 110 69<56.6 397> 132 105<572.2 646.3> 174 185<705 800> 327 105<565.7 646.3> 388 69<52.9 393> 391 66<23.3 79>
Fore
327 606 m 0x3880
 327 637 353 659 380 659 c 0
 407 659 432 637 432 606 c 0
 432 575 406 554 380 554 c 0
 354 554 327 575 327 606 c 0x3880
EndSplineSet
Refer: 244 117 S 1 0 0 1 0 0 2
Refer: 138 729 S 1 0 0 1 33 -9 2
Refer: 128 96 S 1 0 0 1 74 195 2
EndChar
StartChar: uni01DE
Encoding: 478 478 70
Width: 750
Flags: HW
TeX: 0 0 0 0
HStem: 0 31<32 91.9625 201.535 249 442 502.655 621.546 717> 228 31<233 458> 696 20G<367 383> 761 105<236.7 310.8 431.7 505.8> 906 32<195 555>
VStem: 224 105<778.9 849.1> 419 105<778.9 849.1>
Fore
32 0 m 1
 32 31 l 1
 86 32 126 47 144 98 c 2
 351 696 l 2
 356 710 359 716 375 716 c 0
 391 716 393 709 398 696 c 2
 614 71 l 2
 625 38 639 31 699 31 c 2
 717 31 l 1
 717 0 l 1
 675 2 629 3 586 3 c 0
 548 3 478 3 442 0 c 1
 442 31 l 1
 469 31 525 31 525 61 c 0
 525 72 472 217 469 228 c 1
 222 228 l 1
 181 112 174 96 174 82 c 0
 174 56 199 31 249 31 c 1
 249 0 l 1
 217 1 165 3 134 3 c 0
 98 3 55 1 32 0 c 1
233 259 m 1
 458 259 l 1
 345 584 l 1
 233 259 l 1
EndSplineSet
Refer: 137 175 S 1 0 0 1 126 257 2
Refer: 173 46 S 1 0 0 1 139 761 2
Refer: 173 46 S 1 0 0 1 334 761 2
EndChar
StartChar: uni01DF
Encoding: 479 479 71
Width: 500
Flags: HW
TeX: 0 0 0 0
HStem: -11 22<145.3 267.5> -6 31<389.1 438.3> 426 22<178.4 283.7> 554 105<116.9 185.8 311.9 380.8> 721 32<71 431>
VStem: 42 77<31 152.2> 71 92<300.2 355.74> 100 105<569.6 646.3> 294 105<572.2 646.3> 326 69<68.5 240 261 326.63> 468 25<13.6 145>
Fore
100 606 m 0x3920
 100 637 125 659 152 659 c 0
 178 659 205 637 205 606 c 0
 205 575 179 554 153 554 c 0
 122 554 100 578 100 606 c 0x3920
EndSplineSet
Refer: 224 97 S 1 0 0 1 0 0 2
Refer: 138 729 S 1 0 0 1 195 -9 2
Refer: 137 175 S 1 0 0 1 2 72 2
EndChar
StartChar: uni01E0
Encoding: 480 480 72
Width: 750
Flags: HW
TeX: 0 0 0 0
HStem: 0 31<32 91.9625 201.535 249 442 502.655 621.546 717> 228 31<233 458> 696 20G<367 383> 766 105<339.9 408.8> 906 32<195 555>
VStem: 322 105<784.2 858.3>
Fore
32 0 m 1
 32 31 l 1
 86 32 126 47 144 98 c 2
 351 696 l 2
 356 710 359 716 375 716 c 0
 391 716 393 709 398 696 c 2
 614 71 l 2
 625 38 639 31 699 31 c 2
 717 31 l 1
 717 0 l 1
 675 2 629 3 586 3 c 0
 548 3 478 3 442 0 c 1
 442 31 l 1
 469 31 525 31 525 61 c 0
 525 72 472 217 469 228 c 1
 222 228 l 1
 181 112 174 96 174 82 c 0
 174 56 199 31 249 31 c 1
 249 0 l 1
 217 1 165 3 134 3 c 0
 98 3 55 1 32 0 c 1
233 259 m 1
 458 259 l 1
 345 584 l 1
 233 259 l 1
EndSplineSet
Refer: 138 729 S 1 0 0 1 223 203 2
Refer: 137 175 S 1 0 0 1 126 257 2
EndChar
StartChar: uni01E4
Encoding: 484 484 74
Width: 784
Flags: HW
TeX: 0 0 0 0
HStem: -22 31<337.5 464.856> 129 32<382.992 577 666 727.11> 242 28<452 601 650.5 652 663.113 735> 674 31<338 532.7>
VStem: 56 103<75.5 608.5> 577 89<9 129 161 231>
Fore
56 342 m 0
 56 547 218 705 404 705 c 0
 503 705 557 651 589 619 c 1
 646 703 645 705 655 705 c 0
 666 705 666 698 666 681 c 2
 666 444 l 2
 666 423 666 420 650 420 c 0
 636 420 636 423 634 437 c 0
 613 584 523 674 416 674 c 0
 356 674 159 641 159 342 c 0
 159 44 357 9 422 9 c 0
 450 9 576 18 577 129 c 1
 400 129 l 2
 386 129 375 131 375 145 c 0
 375 159 387 161 407 161 c 2
 577 161 l 1
 577 194 l 2
 577 231 574 242 484 242 c 2
 452 242 l 1
 452 273 l 1
 488 270 573 270 613 270 c 0
 643 270 698 272 735 273 c 1
 735 242 l 1
 670 242 666 237 666 198 c 2
 666 161 l 1
 706 161 l 2
 721 161 735 160 735 145 c 0
 735 131 722 129 709 129 c 2
 666 129 l 1
 666 24 l 2
 666 9 666 1 657 1 c 0
 646 1 606 41 593 63 c 1
 559 4 479 -22 406 -22 c 0
 216 -22 56 137 56 342 c 0
EndSplineSet
EndChar
StartChar: uni01E5
Encoding: 485 485 75
Width: 500
Flags: HW
TeX: 0 0 0 0
HStem: -206 23<130.4 365.7> -94 32<81 417 470 494.11> 7 58<136.961 332.58> 149 23<179.828 274> 419 23<170 263.773> 431 22<401.524 445.815>
VStem: 60 75<247.924 347.037> 76 30<91.4 149.649> 309 75<243.963 343.076> 427 58<380.9 422.075>
Fore
-2 -78 m 0
 -2 -64 10 -62 30 -62 c 1
 37 -27 68 6 120 21 c 1
 89 41 76 79 76 110 c 0xf5c0
 76 145 94 178 107 193 c 1
 82 214 60 252 60 296 c 0
 60 373 129 442 222 442 c 0xfac0
 244 442 286 439 328 406 c 1
 370 447 414 453 434 453 c 0
 473 453 485 421 485 404 c 0
 485 381 466 374 456 374 c 0
 440 374 427 386 427 403 c 0
 427 415 432 426 443 430 c 1
 440 431 435 431 433 431 c 0
 415 431 379 426 343 392 c 1
 368 369 384 332 384 295 c 0
 384 218 315 149 222 149 c 0
 203 149 162 152 123 180 c 1
 106 160 106 137 106 133 c 0xf5c0
 106 101 127 70 159 66 c 0
 166 65 209 65 234 65 c 0
 295 65 353 65 406 37 c 0
 450 12 467 -28 470 -62 c 1
 473 -62 l 2
 488 -62 502 -63 502 -78 c 0
 502 -92 489 -94 476 -94 c 2
 469 -94 l 1
 455 -162 358 -206 249 -206 c 0
 135 -206 42 -158 29 -94 c 1
 23 -94 l 2
 9 -94 -2 -92 -2 -78 c 0
81 -62 m 1
 417 -62 l 1
 403 7 301 7 221 7 c 2
 162 7 l 2
 123 4 89 -24 81 -62 c 1
81 -94 m 1
 93 -141 158 -183 250 -183 c 0
 339 -183 405 -142 417 -94 c 1
 81 -94 l 1
135 295 m 0xfac0
 135 272 135 172 222 172 c 0
 262 172 285 200 293 212 c 0
 308 237 309 269 309 296 c 0
 309 319 309 419 222 419 c 0
 182 419 159 391 151 379 c 0
 136 354 135 322 135 295 c 0xfac0
EndSplineSet
EndChar
StartChar: uni01EA
Encoding: 490 490 76
Width: 777
Flags: HW
TeX: 0 0 0 0
HStem: -217 46<437.9 556.7> -22 26<264.2 408.841> 680 25<280.1 501.1>
VStem: 56 103<72.5 606.8> 359 45<-153.8 -85.8975> 618 103<105 604.2>
Fore
56 339 m 0
 56 545 209 705 388 705 c 0
 570 705 721 543 721 339 c 0
 721 159 601 13 446 -16 c 1
 428 -36 404 -57 404 -94 c 0
 404 -140 449 -171 486 -171 c 0
 541 -171 549 -116 563 -116 c 0
 567 -116 572 -118 572 -127 c 0
 572 -151 536 -217 467 -217 c 0
 415 -217 359 -180 359 -118 c 0
 359 -97 364 -63 406 -21 c 1
 400 -22 394 -22 388 -22 c 0
 210 -22 56 134 56 339 c 0
159 353 m 0
 159 92 293 4 389 4 c 0
 481 4 618 88 618 353 c 0
 618 609 475 680 388 680 c 0
 305 680 159 612 159 353 c 0
EndSplineSet
EndChar
StartChar: uni01F6
Encoding: 502 502 81
Width: 983
Flags: HW
TeX: 0 0 0 0
HStem: -11 25<675.1 796> 0 31<33 134 227 328> 3 28<33 157.1 203.9 328> 340 31<225 524> 400 31<739 863.1> 652 28<33 157.1 227 328 421 545.1 615 716>
VStem: 136 89<31.2 340 371 641> 524 89<146.171 340 371 641> 842 89<140.3 389>
Fore
33 0 m 1
 33 31 l 1x5f80
 57 31 l 2x5f80
 134 31 136 42 136 78 c 2
 136 605 l 2
 136 641 134 652 57 652 c 2
 33 652 l 1
 33 683 l 1
 68 680 143 680 181 680 c 0
 219 680 293 680 328 683 c 1
 328 652 l 1
 304 652 l 2
 227 652 225 641 225 605 c 2
 225 371 l 1
 524 371 l 1
 524 605 l 2
 524 641 522 652 445 652 c 2
 421 652 l 1
 421 683 l 1
 456 680 531 680 569 680 c 0
 607 680 681 680 716 683 c 1
 716 652 l 1
 692 652 l 2
 615 652 613 641 613 605 c 2
 613 197 l 2
 614 162 618 116 638 81 c 0
 665 35 688 14 731 14 c 0
 781 14 803.8 43.0991 826 88 c 0
 839.875 116.062 842 149 842 178 c 2
 842 353 l 2
 842 389 840 400 763 400 c 2
 739 400 l 1
 739 431 l 1
 931 431 l 1
 931 214 l 2
 931 87 851 -11 730 -11 c 0x9f80
 613 -11 524 85 524 214 c 2
 524 340 l 1
 225 340 l 1
 225 78 l 2
 225 42 227 31 304 31 c 2
 328 31 l 1
 328 0 l 1x5f80
 293 3 218 3 180 3 c 0x3f80
 142 3 68 3 33 0 c 1
EndSplineSet
EndChar
StartChar: uni01F7
Encoding: 503 503 82
Width: 642
Flags: HW
TeX: 0 0 0 0
HStem: 660 34<334.8 448.4>
VStem: 124 88<-175 70 103 616 648 657.3> 478 104<316.9 597.5>
Fore
27 -199 m 1
 103 -178 124 -175 124 -123 c 2
 124 578 l 2
 124 639 115 656 86 656 c 0
 66 656 41 649 27 646 c 1
 27 675 l 1
 210 720 l 1
 210 648 l 1
 344 691 345 694 379 694 c 0
 479 694 582 596 582 456 c 0
 582 349 528 244 428 174 c 0
 388 146 344 105 212 70 c 1
 212 -175 l 1
 27 -228 l 1
 27 -199 l 1
212 103 m 1
 396 147 478 259 478 448 c 0
 478 563 428 660 360 660 c 0
 332 660 224 618 212 616 c 1
 212 103 l 1
EndSplineSet
EndChar
StartChar: Aringacute
Encoding: 506 506 83
Width: 750
Flags: HW
TeX: 0 0 0 0
HStem: -0 31<32 97 197.3 248 442 487.854 622.589 717> 228 31<232 458> 717 21G<360.5 389> 891 22<337.6 411.7> 912 152<297 432>
VStem: 279 25<761.1 870.3> 282 185<932 1027> 445 25<761.1 874.2>
Fore
32 -0 m 1
 32 31 l 1
 122 33 135 73 151 121 c 2
 329 632 l 2
 336 654 344 675 351 697 c 1
 292 719 279 771 279 804 c 0
 279 855 314 912 374 913 c 0
 433 913 470 858 470 804 c 0
 470 771 457 719 398 697 c 1
 405 675 413 654 420 633 c 2
 608 90 l 2
 627 37 628 31 713 31 c 2
 717 31 l 1
 717 -0 l 1
 653 3 614 3 589 3 c 0
 540 3 491 2 442 -0 c 1
 442 31 l 1
 444 31 l 2
 476 31 523 32 523 63 c 0
 523 83 487 166 469 228 c 1
 221 228 l 1
 205 176 174 100 174 81 c 0
 174 62 191 33 248 31 c 1
 248 -0 l 1
 209 2 170 3 131 3 c 0
 112 3 82 3 32 -0 c 1
232 259 m 1
 458 259 l 1
 345 584 l 1
 232 259 l 1
304 805 m 0xf5
 304 730 346 717 375 717 c 0
 403 717 445 731 445 803 c 0
 445 877 403 891 374 891 c 0
 346 891 304 877 304 805 c 0xf5
EndSplineSet
Refer: 129 180 S 1 0 0 1 68 422 2
EndChar
StartChar: uni021C
Encoding: 540 540 85
Width: 579
Flags: W
TeX: 0 0 0 0
HStem: 625 65<128.3 376.4>
VStem: 400 88<474.1 644.4> 425 97<119.9 316.2>
Fore
31 -44 m 0xa0
 31 -34 41 -28 48 -27 c 0
 58 -26 105.955 -24.8068 252 9 c 0
 364.965 35.1495 425 141 425 222 c 0xa0
 425 306 366 359 313 359 c 0
 277 359 176 320 161 320 c 0
 154 320 152 323 152 329 c 0
 152 354 260.933 366.097 333 416 c 0
 374.961 445.056 400 466 400 516 c 0
 400 621 353 625 275 625 c 2
 254 625 l 2
 127 625 108 606 87 606 c 0
 78 606 65 612 65 643 c 2
 65 676 l 2
 65 687 66 698 77 698 c 0
 83 698 86 692 98 680 c 1
 131 684 158 690 257 690 c 0
 421 690 488 615 488 517 c 0xc0
 488 484 474 421 384 392 c 1
 485 377 522 294 522 220 c 0
 522 143 442.968 28.1201 255 -22 c 0
 153.983 -48.9354 68 -61 48 -61 c 0
 40 -61 31 -55 31 -44 c 0xa0
EndSplineSet
EndChar
StartChar: uni021D
Encoding: 541 541 86
Width: 480
Flags: W
TeX: 0 0 0 0
HStem: 394 58<106 321.4>
VStem: 342 78<260.3 411.1> 364 86<-54.4 119.8>
Fore
14 -200 m 0xa0
 14 -191 23 -186 29 -185 c 0
 38 -184 80.9318 -182.704 210 -153 c 0
 310.947 -129.768 364 -36 364 36 c 0xa0
 364 111 312 158 265 158 c 0
 228 158 150 124 130 124 c 0
 124 124 121 126 121 131 c 0
 121 153 194.897 155.167 282 209 c 0
 320.954 233.075 342 253 342 297 c 0
 342 390 301 394 233 394 c 2
 212 394 l 2
 106 394 77 377 64 377 c 0
 55 377 44 382 44 410 c 2
 44 439 l 2
 44 449 45 459 55 459 c 0
 60 459 63 454 74 443 c 1
 103 447 127 452 215 452 c 0
 360 452 420 385 420 298 c 0xc0
 420 269 407 213 328 187 c 1
 417 174 450 100 450 34 c 0
 450 -34 379.934 -135.751 213 -180 c 0
 107.958 -207.843 33 -215 29 -215 c 0
 22 -215 14 -210 14 -200 c 0xa0
EndSplineSet
EndChar
StartChar: uni0220
Encoding: 544 544 87
Width: 852
Flags: HW
TeX: 0 0 0 0
HStem: -200 31<543 632 734.762 838> 0 31<33 122 224.762 328> 652 31<33 142.9> 679 31<314.8 547.1>
VStem: 136 89<27.5 566.719 613 646> 646 89<-162 492>
Fore
33 0 m 1
 33 31 l 1xdc
 49 31 l 2
 122 31 135 38 136 73 c 2
 136 610 l 2
 135 646 121 652 48 652 c 2
 33 652 l 1
 33 683 l 1
 128 681 l 1
 195 681 l 1
 225 683 l 1xec
 225 613 l 1
 275 665 346 710 450 710 c 0
 587 710 735 621 735 444 c 2
 735 -126 l 2
 736 -162 749 -169 824 -169 c 2
 838 -169 l 1
 838 -200 l 1
 787 -198 735 -197 684 -197 c 0
 627 -197 585 -199 543 -200 c 1
 543 -169 l 1
 559 -169 l 2
 632 -169 645 -162 646 -127 c 2
 646 441 l 2
 646 492 639 520 623 553 c 0
 591 618 518 679 421 679 c 0
 303 679 235 590 227 567 c 0
 225 561 225 555 225 549 c 2
 225 74 l 2
 226 38 239 31 314 31 c 2
 328 31 l 1
 328 0 l 1
 277 2 225 3 174 3 c 0
 117 3 75 1 33 0 c 1
EndSplineSet
EndChar
StartChar: uni0222
Encoding: 546 546 88
Width: 552
Flags: HW
TeX: 0 0 0 0
HStem: -20 26<151.3 402.2>
VStem: 42 88<44.3 240.6> 73 80<530 631.8> 402 83<469.4 620.2> 429 87<37.6 293.7>
Fore
42 160 m 0xc8
 42 265 140 325 207 356 c 1
 178 374 136 400 123 413 c 0
 75 463 73 510 73 530 c 0
 73 609 131 675 213 698 c 1
 213 670 l 1
 160 655 153 618 153 572 c 0
 153 554 166 494 218 462 c 2
 322 400 l 1
 390 437 402 488 402 550 c 0
 402 604 398 647 346 668 c 1
 346 699 l 1
 422 679 485 626 485 550 c 0xb0
 485 479 429 423 347 384 c 1
 401 353 516 302 516 178 c 0
 516 64 407 -20 278 -20 c 0
 158 -20 42 47 42 160 c 0xc8
130 160 m 0xc8
 130 71 181 6 280 6 c 0
 374 6 429 61 429 139 c 0
 429 258 360 258 233 340 c 1
 136 290 130 222 130 160 c 0xc8
EndSplineSet
EndChar
StartChar: uni0223
Encoding: 547 547 89
Width: 500
Flags: HW
TeX: 0 0 0 0
HStem: -22 28<138.2 356.6>
VStem: 42 50<43.1 226.4> 69 44<499 595.2> 386 44<442.9 583.3> 407 50<35.8 242.5>
Fore
42 151 m 0xc8
 42 250 128 306 186 335 c 1
 161 352 124 377 113 389 c 0
 71 436 69 481 69 499 c 0
 69 573 120 635 192 657 c 1
 192 631 l 1
 146 616 113 582 113 538 c 0
 113 521 117 487 163 457 c 2
 287 377 l 1
 347 412 386 460 386 517 c 0
 386 568 353 609 308 629 c 1
 308 658 l 1
 375 639 430 589 430 517 c 0xb0
 430 451 381 399 309 362 c 1
 356 332 457 284 457 168 c 0
 457 61 362 -22 249 -22 c 0
 144 -22 42 45 42 151 c 0xc8
92 151 m 0xc8
 92 68 164 6 250 6 c 0
 332 6 407 58 407 132 c 0
 407 217 322 243 209 320 c 1
 124 273 92 209 92 151 c 0xc8
EndSplineSet
EndChar
StartChar: uni0224
Encoding: 548 548 90
Width: 611
Flags: W
TeX: 0 0 0 0
HStem: -167 25<442.797 545.4> 0 34<159 510> 652 31<131 452>
VStem: 69 25<459.546 606.727> 561 30<-122.2 -16.9>
Fore
56 17 m 0
 56 25 56.0302 25.9809 63 37 c 2
 452 652 l 1
 295 652 l 2
 131 652 101 571 94 458 c 1
 69 458 l 1
 80 683 l 1
 528 683 l 2
 548 683 554 683 554 667 c 0
 554 660 553.965 659.022 547 648 c 2
 159 34 l 1
 427 34 l 2
 526 33 591 -14 591 -77 c 0
 591 -122 550 -167 483 -167 c 0
 460 -167 394 -157 391 -139 c 0
 388 -129 398 -125 409 -128 c 0
 431 -136 455 -142 483 -142 c 0
 531 -142 561 -112 561 -78 c 0
 561 -31 510 0 427 0 c 2
 82 0 l 2
 61 0 56 0 56 17 c 0
EndSplineSet
EndChar
StartChar: uni0228
Encoding: 552 552 91
Width: 680
Flags: W
TeX: 0 0 0 0
HStem: -204 23<218 353.5> 0 31<33 134 212.9 302 372 579> 338 31<225 315> 649 31<33 157.1 227 596>
VStem: 136 89<31.2 338 369 638> 302 70<-54 0> 384 71<-182.9 -97.1> 423 25<221 331.5 374.2 486> 599 25<455 636.893>
Fore
33 0 m 1xfe80
 33 31 l 1
 57 31 l 2
 134 31 136 42 136 78 c 2
 136 602 l 2
 136 638 134 649 57 649 c 2
 33 649 l 1
 33 680 l 1
 596 680 l 1
 624 455 l 1
 599 455 l 1
 583 594 556 649 403 649 c 2
 274 649 l 2
 227 649 225 642 225 609 c 2
 225 369 l 1
 315 369 l 2
 412 369 423 400 423 486 c 1
 448 486 l 1
 448 221 l 1
 423 221 l 1xfd80
 423 306 412 338 315 338 c 2
 225 338 l 1
 225 71 l 2
 225 38 227 31 274 31 c 2
 407 31 l 2
 579 31 602 104 627 258 c 1
 652 258 l 1
 610 0 l 1
 372 0 l 1
 372 -54 l 1
 383 -56 455 -68 455 -126 c 0
 455 -188 378 -204 232 -204 c 2
 218 -204 l 1
 218 -181 l 1
 230 -181 l 2
 325 -181 384 -170 384 -127 c 0
 384 -104 368 -74 302 -71 c 1
 302 0 l 1
 33 0 l 1xfe80
EndSplineSet
EndChar
StartChar: uni0229
Encoding: 553 553 92
Width: 444
Flags: HW
TeX: 0 0 0 0
HStem: -204 23<124 259.5> -71 85<208 267> 231 21<112 349> 426 22<191.8 369.9>
VStem: 28 84<149.18 231 252 348.85> 208 70<-54 -8> 290 71<-182.9 -97.1> 349 66<252 304.349>
Fore
28 220 m 0
 28 345 120 448 236 448 c 0
 361 448 415 351 415 252 c 0
 415 231 412 231 390 231 c 2
 111 231 l 1
 111 195 111.058 129.036 141 81 c 0
 164.045 44.028 204 14 254 14 c 0
 264 14 354 14 389 117 c 0
 391 125 393 131 402 131 c 0
 407 131 415 129 415 119 c 0xfd
 415 101 377 7 278 -8 c 1
 278 -54 l 1
 289 -56 361 -68 361 -126 c 0
 361 -188 284 -204 138 -204 c 2
 124 -204 l 1
 124 -181 l 1
 136 -181 l 2
 231 -181 290 -170 290 -127 c 0xfe
 290 -104 274 -74 208 -71 c 1
 208 -7 l 1
 110 12 28 102 28 220 c 0
112 252 m 1
 349 252 l 1xfd
 349 291 339 426 236 426 c 0
 202 426 118 401 112 252 c 1
EndSplineSet
EndChar
StartChar: uni0234
Encoding: 564 564 99
Width: 383
Flags: HW
TeX: 0 0 0 0
HStem: -11 26<202.9 311.3> 148 25<225.8 301.2> 652 31<33 72.2727>
VStem: 111 66<147 659.7> 112 70<83.6 119.176> 322 25<42.4 132.1>
Fore
-3 -142 m 0
 -3 -128 27 -21 79 53 c 0
 107.873 94.0892 112 89 112 107 c 0xec
 112 111 112 118 111 127 c 2
 111 596 l 2
 111 645 103 652 33 652 c 1
 33 683 l 1
 177 694 l 1
 177 147 l 1xf4
 192 154 225 173 257 173 c 0
 302 173 347 138 347 84 c 0
 347 37 311 -11 251 -11 c 0
 214 -11 150 -1 121 65 c 1
 54 -11 33 -107 22 -141 c 0
 20 -148 16 -154 7 -154 c 0
 3 -154 -3 -153 -3 -142 c 0
182 105 m 0xec
 182 79 197 15 258 15 c 0
 299 15 322 52 322 84 c 0
 322 121 291 148 257 148 c 0
 233 148 189 127 184 116 c 1
 182 114 182 110 182 105 c 0xec
EndSplineSet
EndChar
StartChar: uni023A
Encoding: 570 570 100
Width: 750
Flags: HW
TeX: 0 0 0 0
HStem: 0 31<32 91.9625 213.534 249 442 502.655 621.546 717> 228 31<233 275 326 458> 696 20G<367 389.5>
Fore
32 0 m 1
 32 31 l 1
 86 32 126 47 144 98 c 2
 351 696 l 2
 356 710 359 716 375 716 c 0
 404 716 395 689 443 564 c 1
 519 715 520 717 520 718 c 1
 523 727 528 741 540 741 c 0
 546 741 555 735 555 724 c 0
 555 719 554 716 553 713 c 2
 553 711 552 711 552 710 c 1
 458 522 l 1
 614 71 l 2
 625 38 639 31 699 31 c 2
 717 31 l 1
 717 0 l 1
 675 2 629 3 586 3 c 0
 548 3 478 3 442 0 c 1
 442 31 l 1
 469 31 525 31 525 61 c 0
 525 72 472 217 469 228 c 1
 310 228 l 1
 214 36 l 1
 224 33 235 31 249 31 c 1
 249 0 l 1
 234 0 216 1 197 2 c 1
 166 -61 167 -68 153 -68 c 0
 145 -68 140 -61 140 -52 c 0
 140 -34 156 -12 162 3 c 1
 134 3 l 2
 98 3 55 1 32 0 c 1
174 82 m 0
 174 71 178 60 187 51 c 1
 275 228 l 1
 222 228 l 1
 181 112 174 96 174 82 c 0
233 259 m 1
 291 259 l 1
 389 456 l 1
 345 584 l 1
 233 259 l 1
326 259 m 1
 458 259 l 1
 404 414 l 1
 326 259 l 1
EndSplineSet
EndChar
StartChar: uni023B
Encoding: 571 571 101
Width: 722
Flags: HW
TeX: 0 0 0 0
HStem: -22 31<372.007 557.7> 674 31<335.7 457.9>
VStem: 56 103<141.8 607.2>
Fore
56 342 m 0
 56 546 217 705 404 705 c 0
 452 705 488 692 518 675 c 1
 523 689 534 717 534 718 c 1
 537 727 542 741 554 741 c 0
 560 741 569 735 569 724 c 0
 569 719 568 716 567 713 c 2
 567 711 566 711 566 710 c 1
 546 657 l 1
 562 644 576 631 588 619 c 1
 645 703 644 705 654 705 c 0
 665 705 665 698 665 681 c 2
 665 444 l 2
 665 423 665 420 649 420 c 0
 635 420 635 423 633 437 c 0
 620.72 522.96 585 589 536 630 c 1
 311 34 l 1
 353 14 393 9 416 9 c 0
 525 9 632 91 640 234 c 0
 641 244 641 250 652 250 c 0
 665 250 665 243 665 233 c 0
 665 117 567 -22 404 -22 c 0
 367 -22 331 -15 297 -4 c 1
 278 -55 275 -68 260 -68 c 0
 252 -68 247 -61 247 -52 c 0
 247 -40 254 -28 267 8 c 1
 145 63 56 188 56 342 c 0
159 341 m 0
 159 176 219 92 283 50 c 1
 508 649 l 1
 480 665 448 674 415 674 c 0
 354 674 159 640 159 341 c 0
EndSplineSet
EndChar
StartChar: uni023C
Encoding: 572 572 102
Width: 444
Flags: HW
TeX: 0 0 0 0
HStem: -11 25<226.461 306.1> 423 25<183.1 295.168>
VStem: 34 83<128.3 377.2> 312 92<306.2 361.753>
Fore
34 216 m 0
 34 340 126 448 251 448 c 0
 266 448 281 447 295 444 c 1
 337 556 337 555 337 557 c 1
 340 566 345 580 357 580 c 0
 363 580 372 574 372 563 c 0
 372 558 371 555 370 552 c 2
 370 550 369 550 369 549 c 1
 326 435 l 1
 371 418 404 386 404 341 c 0
 404 311 384 294 358 294 c 0
 330 294 312 314 312 340 c 0
 312 353 318 383 359 386 c 1
 347 398 332 406 317 411 c 1
 180 44 l 1
 206 22 235 14 258 14 c 0
 295 14 360 26 389 119 c 0
 391 125 393 129 402 129 c 0
 405 129 415 129 415 119 c 0
 415 109 383 -11 249 -11 c 0
 220 -11 191 -5 166 6 c 1
 118 -123 119 -130 102 -130 c 0
 94 -130 89 -123 89 -114 c 0
 89 -101 107 -59 137 22 c 1
 76 62 34 133 34 216 c 0
117 218 m 0
 117 149 132 102 155 71 c 1
 286 420 l 1
 269 423 256 423 252 423 c 0
 199 423 117 381 117 218 c 0
EndSplineSet
EndChar
StartChar: uni023D
Encoding: 573 573 103
Width: 625
Flags: W
TeX: 0 0 0 0
HStem: 0 31<33 134 212.9 532> 334 32<40.9917 136 225 345.11> 652 28<33 157.1 225 353>
VStem: 136 89<31.2 334 366 638> 557 25<124.631 258>
Fore
33 0 m 1
 33 31 l 1
 57 31 l 2
 134 31 136 42 136 78 c 2
 136 334 l 1
 58 334 l 2
 44 334 33 336 33 350 c 0
 33 364 45 366 65 366 c 2
 136 366 l 1
 136 605 l 2
 136 641 134 652 57 652 c 2
 33 652 l 1
 33 683 l 1
 68 680 146 680 185 680 c 0
 226 680 317 680 353 683 c 1
 353 652 l 1
 320 652 l 2
 225 652 225 638 225 604 c 2
 225 366 l 1
 324 366 l 2
 339 366 353 365 353 350 c 0
 353 336 340 334 327 334 c 2
 225 334 l 1
 225 71 l 2
 225 38 227 31 274 31 c 2
 356 31 l 2
 532 31 546 156 557 258 c 1
 582 258 l 1
 554 0 l 1
 33 0 l 1
EndSplineSet
EndChar
StartChar: uni023E
Encoding: 574 574 104
Width: 722
Flags: HW
TeX: 0 0 0 0
HStem: 0 31<405 550> 3 28<198 347.5 373.5 550> 646 31<55 334.6 383.8 526.129>
VStem: 36 25<454.166 664.256> 316 89<34.8 235 298 390 452 656.7> 660 25<452 623.013>
CounterMasks: 1 1c
Fore
36 452 m 1
 55 677 l 1
 534 677 l 1
 554 712 557 715 557 718 c 1
 560 727 565 741 577 741 c 0
 583 741 592 735 592 724 c 0
 592 719 591 716 590 713 c 2
 590 711 589 711 589 710 c 1
 570 677 l 1
 666 677 l 1
 685 452 l 1
 660 452 l 1
 648 583 636 629 550 642 c 1
 405 390 l 1
 405 79 l 2
 405 45 405 31 510 31 c 2
 550 31 l 1
 550 0 l 1xbc
 509 3 406 3 360 3 c 0x7c
 317 3 226 3 181 0 c 1xbc
 143 -64 148 -68 134 -68 c 0
 126 -68 121 -61 121 -52 c 0
 121 -48 121 -45 125 -34 c 1
 316 298 l 1
 316 606 l 2
 316 645 313 646 241 646 c 0
 90 646 75 613 61 452 c 1
 36 452 l 1
198 31 m 1
 211 31 l 2x7c
 316 31 316 45 316 79 c 2
 316 235 l 1
 198 31 l 1
405 452 m 1
 516 645 l 1
 505 646 493 646 480 646 c 0x3c
 406 646 405 645 405 606 c 2
 405 452 l 1
EndSplineSet
EndChar
StartChar: uni023F
Encoding: 575 575 105
Width: 394
Flags: HW
TeX: 0 0 0 0
HStem: -205 23<184.2 287.497> -11 22<155.701 300.4> 429 19<81.2 238.819>
VStem: 33 48<279.5 397.8> 267 91<-162.7 -92.2> 312 48<35.7 195.6>
Fore
33 13 m 2
 33 145 l 2
 33 163 33 170 46 170 c 0
 56 170 56.9442 165.987 60 153 c 0
 80 68 115 11 199 11 c 0
 277 11 312 51 312 102 c 0
 312 174 230 190 208 194 c 0
 136 208 108 214 76 240 c 0
 49 262 33 290 33 325 c 0
 33 381 71 448 193 448 c 0
 208 448 249 448 287 420 c 1
 303 432 311 448 324 448 c 0
 335 448 335 441 335 424 c 2
 335 323 l 2
 335 304 335 299 322 299 c 0
 320 299 311 299 310 308 c 0
 308 339 303 429 193 429 c 0
 107 429 81 388 81 353 c 0
 81 295 148 282 204 271 c 0
 245.953 262.759 285 255 318 223 c 0
 330 211 360 181 360 128 c 0xf4
 360 56 314 -11 199 -11 c 0
 182 -11 151 -10 117 10 c 1
 138 -117 201 -182 257 -182 c 0
 271 -182 286 -179 304 -171 c 1
 288 -165 267 -154 267 -125 c 0
 267 -97 289 -79 313 -79 c 0
 340 -79 358 -100 358 -126 c 0
 358 -179 301 -205 258 -205 c 0
 141 -205 89 -42 89 32 c 1
 71 13 55 -11 44 -11 c 0xf8
 33 -11 33 -4 33 13 c 2
EndSplineSet
EndChar
StartChar: uni0240
Encoding: 576 576 106
Width: 444
Flags: W
TeX: 0 0 0 0
HStem: -205 23<214.8 328.497> 409 22<92 316>
VStem: 42 25<271.468 404.297> 308 91<-162.7 -92.2>
Fore
28 14 m 0
 28 19 28 21 37 32 c 2
 316 409 l 1
 202 409 l 2
 92 409 73 372 67 270 c 1
 42 270 l 1
 53 431 l 1
 373 431 l 2
 391 431 399 431 399 418 c 0
 399 414 399 412 390 401 c 2
 112 25 l 1
 148 3 172.702 -17.1809 191 -47 c 0
 218 -91 234 -182 298 -182 c 0
 312 -182 327 -179 345 -171 c 1
 329 -165 308 -154 308 -125 c 0
 308 -97 330 -79 354 -79 c 0
 381 -79 399 -100 399 -126 c 0
 399 -179 342 -205 299 -205 c 0
 217 -205 205.096 -125.942 167 -63 c 0
 144 -25 77 -6 54 0 c 1
 35 0 28 0 28 14 c 0
EndSplineSet
EndChar
StartChar: uni0241
Encoding: 577 577 107
Width: 444
Flags: HW
TeX: 0 0 0 0
HStem: 0 31<28 133 228 333> 3 28<28 156.7 204.3 333> 680 25<144.131 254.9>
VStem: 34 92<563.2 618.753> 136 89<31.2 344> 321 83<380 677.7>
Fore
28 0 m 1
 28 31 l 1xbc
 54 31 l 2
 133 31 136 42 136 78 c 2
 136 372 l 1
 151 367 168 366 180 366 c 0
 233 366 321 376 321 525 c 0
 321 676 239 680 186 680 c 0
 177 680 114 679 79 643 c 1
 120 640 126 610 126 597 c 0
 126 571 108 551 80 551 c 0
 54 551 34 568 34 598 c 0
 34 666 110 705 187 705 c 0
 312 705 404 642 404 523 c 0
 404 413 325 362 225 344 c 1
 225 78 l 2
 225 42 228 31 307 31 c 2
 333 31 l 1
 333 0 l 1xbc
 298 3 219 3 180 3 c 0x7c
 142 3 63 3 28 0 c 1
EndSplineSet
EndChar
StartChar: uni0242
Encoding: 578 578 108
Width: 444
Flags: HW
TeX: 0 0 0 0
HStem: 0 31<28 133 228 333> 3 28<28 156.7 204.3 333> 423 25<144.131 254.9>
VStem: 34 92<306.2 361.753> 136 89<31.2 87> 321 83<123 420.7>
Fore
28 0 m 1
 28 31 l 1xbc
 54 31 l 2
 133 31 136 42 136 78 c 2
 136 115 l 1
 151 110 168 109 180 109 c 0
 233 109 321 119 321 268 c 0
 321 419 239 423 186 423 c 0
 177 423 114 422 79 386 c 1
 120 383 126 353 126 340 c 0
 126 314 108 294 80 294 c 0
 54 294 34 311 34 341 c 0
 34 409 110 448 187 448 c 0
 312 448 404 385 404 266 c 0
 404 156 325 105 225 87 c 1
 225 78 l 2
 225 42 228 31 307 31 c 2
 333 31 l 1
 333 0 l 1xbc
 298 3 219 3 180 3 c 0x7c
 142 3 63 3 28 0 c 1
EndSplineSet
EndChar
StartChar: uni0243
Encoding: 579 579 109
Width: 708
Flags: HW
TeX: 0 0 0 0
HStem: 0 31<36 137 209.9 499> 166 32<43.9917 139 222 401.11> 344 22<222 410> 652 31<36 160.1 224 521.1>
VStem: 139 83<31.2 166 198 344 366 641> 527 97<430.8 582.9> 551 100<91.7 271.1>
Fore
36 0 m 1
 36 31 l 1
 60 31 l 2
 137 31 139 42 139 78 c 2
 139 166 l 1
 61 166 l 2
 47 166 36 168 36 182 c 0
 36 196 48 198 68 198 c 2
 139 198 l 1
 139 605 l 2
 139 641 137 652 60 652 c 2
 36 652 l 1
 36 683 l 1
 402 683 l 2
 532 683 624 601 624 514 c 0xfc
 624 440 555 376 458 357 c 1
 569 345 651 270 651 183 c 0
 651 89 561 0 428 0 c 2
 36 0 l 1
222 71 m 2
 222 38 224 31 271 31 c 2
 396 31 l 2
 499 31 551 113 551 184 c 0xfa
 551 251 509 344 410 344 c 2
 222 344 l 1
 222 198 l 1
 380 198 l 2
 395 198 409 197 409 182 c 0
 409 168 396 166 383 166 c 2
 222 166 l 1
 222 71 l 2
222 366 m 1xfc
 367 366 l 2
 478 366 527 450 527 514 c 0
 527 567 492 652 395 652 c 2
 271 652 l 2
 224 652 222 645 222 612 c 2
 222 366 l 1xfc
EndSplineSet
EndChar
StartChar: uni0244
Encoding: 580 580 110
Width: 750
Flags: HW
TeX: 0 0 0 0
HStem: -22 31<328.9 513.5> 334 32<41.9917 136 225 582 613 707.11> 652 31<33 134 227 328 479 546.661 645.917 716>
VStem: 136 89<44.7 334 366 651.8> 582 31<165.509 334 366 605.582>
Fore
33 652 m 1
 33 683 l 1
 68 680 143 680 181 680 c 0
 219 680 293 680 328 683 c 1
 328 652 l 1
 304 652 l 2
 227 652 225 641 225 605 c 2
 225 366 l 1
 582 366 l 1
 582 578 l 2
 582 605 582 652 479 652 c 1
 479 683 l 1
 515 682 563 680 598 680 c 0
 632 680 680 682 716 683 c 1
 716 652 l 1
 613 652 613 607 613 574 c 2
 613 366 l 1
 686 366 l 2
 701 366 715 365 715 350 c 0
 715 336 702 334 689 334 c 2
 613 334 l 1
 613 254 l 2
 613 214 612.991 205.001 610 185 c 0
 592.951 71.0073 503 -22 388 -22 c 0
 252 -22 136 87 136 228 c 2
 136 334 l 1
 59 334 l 2
 45 334 34 336 34 350 c 0
 34 364 46 366 66 366 c 2
 136 366 l 1
 136 605 l 2
 136 641 134 652 57 652 c 2
 33 652 l 1
225 224 m 2
 225 34 343 9 390 9 c 0
 485 9 582 89 582 231 c 2
 582 334 l 1
 225 334 l 1
 225 224 l 2
EndSplineSet
EndChar
StartChar: uni0245
Encoding: 581 581 111
Width: 750
Flags: HW
TeX: 0 0 0 0
HStem: 0 31<32 91.9625 201.535 249 442 502.655 621.546 717> 696 20G<367 383>
Fore
32 0 m 1
 32 31 l 1
 86 32 126 47 144 98 c 2
 351 696 l 2
 356 710 359 716 375 716 c 0
 391 716 393 709 398 696 c 2
 614 71 l 2
 625 38 639 31 699 31 c 2
 717 31 l 1
 717 0 l 1
 675 2 629 3 586 3 c 0
 548 3 478 3 442 0 c 1
 442 31 l 1
 469 31 525 31 525 61 c 0
 525 65 523 71 522 75 c 2
 345 584 l 1
 176 97 l 2
 175 95 174 85 174 82 c 0
 174 56 199 31 249 31 c 1
 249 0 l 1
 217 1 165 3 134 3 c 0
 98 3 55 1 32 0 c 1
EndSplineSet
EndChar
StartChar: uni0246
Encoding: 582 582 112
Width: 680
Flags: HW
TeX: 0 0 0 0
HStem: 0 31<33 134 229.62 579> 338 31<225 317> 648 32<33 157.1 227 442.691>
VStem: 136 89<93 338 369 642> 423 25<221 315.9 397.6 486> 599 25<455 608.185>
Fore
33 0 m 1
 33 31 l 1
 57 31 l 2
 134 31 136 42 136 78 c 2
 136 602 l 2
 136 638 134 649 57 649 c 2
 33 649 l 1
 33 680 l 1
 446 680 l 1
 451 693 460 717 460 718 c 1
 463 727 468 741 480 741 c 0
 486 741 495 735 495 724 c 0
 495 719 494 716 493 713 c 2
 493 711 492 711 492 710 c 1
 480 680 l 1
 596 680 l 1
 624 455 l 1
 599 455 l 1
 585 572 564 629 467 644 c 1
 365 373 l 1
 416 384 423 418 423 486 c 1
 448 486 l 1
 448 221 l 1
 423 221 l 1
 423 294 415 328 351 336 c 1
 237 35 l 1
 244 32 256 31 274 31 c 2
 407 31 l 2
 579 31 602 104 627 258 c 1
 652 258 l 1
 610 0 l 1
 224 0 l 1
 205 -54 201 -68 186 -68 c 0
 178 -68 173 -61 173 -52 c 0
 173 -42 179 -31 190 0 c 1
 33 0 l 1
225 93 m 1
 317 338 l 1
 225 338 l 1
 225 93 l 1
225 369 m 1
 328 369 l 1
 434 648 l 1
 424 648 414 649 403 649 c 2
 274 649 l 2
 227 649 225 642 225 609 c 2
 225 369 l 1
EndSplineSet
EndChar
StartChar: uni0247
Encoding: 583 583 113
Width: 444
Flags: HW
TeX: 0 0 0 0
HStem: -11 25<216.3 288.484> 231 21<112 215 258 349> 426 22<191.8 267.058>
VStem: 28 84<149.626 231 252 348.85>
Fore
28 220 m 0
 28 345 120 448 236 448 c 0
 257 448 276 445 293 440 c 1
 337 555 337 555 337 557 c 1
 340 566 345 580 357 580 c 0
 363 580 372 574 372 563 c 0
 372 558 371 555 370 552 c 2
 370 550 369 550 369 549 c 1
 324 428 l 1
 387 394 415 323 415 252 c 0
 415 231 412 231 390 231 c 2
 250 231 l 1
 178 39 l 1
 199 24 225 14 254 14 c 0
 264 14 354 14 389 117 c 0
 391 125 393 131 402 131 c 0
 407 131 415 129 415 119 c 0
 415 100 370 -11 248 -11 c 0
 219 -11 191 -5 166 6 c 1
 118 -123 119 -130 102 -130 c 0
 94 -130 89 -123 89 -114 c 0
 89 -101 97 -86 136 21 c 1
 73 60 28 132 28 220 c 0
111 231 m 1
 111 180 113 112 153 64 c 1
 215 231 l 1
 111 231 l 1
112 252 m 1
 223 252 l 1
 283 414 l 1
 270 421 254 426 236 426 c 0
 202 426 118 401 112 252 c 1
258 252 m 1
 349 252 l 1
 349 278 344 348 310 391 c 1
 258 252 l 1
EndSplineSet
EndChar
StartChar: uni0248
Encoding: 584 584 114
Width: 513
Flags: W
TeX: 0 0 0 0
HStem: -22 22<165.034 267.9> 334 32<175.992 302 388 457.11> 652 28<168 331.4 383.1 465>
VStem: 41 112<80.2 160.8> 302 86<110.282 334 366 639>
Fore
41 112 m 0
 41 156 75 170 97 170 c 0
 125 170 153 150 153 114 c 0
 153 88 141 58 89 58 c 1
 125 0 193 0 199 0 c 0
 252 0 302 56 302 148 c 2
 302 334 l 1
 193 334 l 2
 179 334 168 336 168 350 c 0
 168 364 180 366 200 366 c 2
 302 366 l 1
 302 604 l 2
 302 639 302 652 204 652 c 2
 168 652 l 1
 168 683 l 1
 206 680 294 680 336 680 c 0
 383 680 421 681 465 683 c 1
 465 652 l 1
 402 652 388 652 388 611 c 2
 388 366 l 1
 436 366 l 2
 451 366 465 365 465 350 c 0
 465 336 452 334 439 334 c 2
 388 334 l 1
 388 167 l 2
 388 133 388 131 387 123 c 0
 376 48 303 -22 201 -22 c 0
 112 -22 41 38 41 112 c 0
EndSplineSet
EndChar
StartChar: uni0249
Encoding: 585 585 115
Width: 312
Flags: HW
TeX: 0 0 0 0
HStem: -205 22<37.4618 154.2> 199 32<63.9917 144 210 290.11> 400 31<58 99.4545> 563 106<119.3 194.7>
VStem: -40 92<-160.1 -91.2> 104 106<578.3 653.7> 144 66<-110.5 199 231 393>
Fore
-40 -125 m 0
 -40 -99 -22 -79 6 -79 c 0
 34 -79 52 -99 52 -125 c 0
 52 -152 32 -166 17 -170 c 1
 43 -183 66 -183 71 -183 c 0
 135 -183 144 -97 144 -52 c 2
 144 199 l 1
 81 199 l 2
 67 199 56 201 56 215 c 0
 56 229 68 231 88 231 c 2
 144 231 l 1
 144 344 l 2
 144 393 135 400 58 400 c 1
 58 431 l 1
 210 442 l 1
 210 231 l 1
 269 231 l 2
 284 231 298 230 298 215 c 0
 298 201 285 199 272 199 c 2
 210 199 l 1
 210 -50 l 2xfa
 210 -141 148 -205 73 -205 c 0
 16 -205 -40 -177 -40 -125 c 0
104 616 m 0xfc
 104 645 128 669 157 669 c 0
 186 669 210 645 210 616 c 0
 210 587 186 563 157 563 c 0
 128 563 104 587 104 616 c 0xfc
EndSplineSet
EndChar
StartChar: uni024A
Encoding: 586 586 116
Width: 715
Flags: HW
TeX: 0 0 0 0
HStem: -205 23<581.7 681.013> 51 28<208.8 444.3> 650 33<220.5 471.2>
VStem: 56 100<174.3 566.9> 502 85<154.2 538> 661 91<-148.4 -88.6>
Fore
56 368 m 0
 56 535 187 683 336 683 c 0
 440 683 493 601 510 565 c 1
 559 683 l 1
 587 683 l 1
 587 -10 l 2
 587 -100 593 -182 650 -182 c 0
 664 -182 680 -179 697 -170 c 1
 670 -163 661 -143 661 -125 c 0
 661 -97 683 -79 707 -79 c 0
 729 -79 752 -96 752 -126 c 0
 752 -177 698 -205 648 -205 c 0
 597 -205 501 -178 498 7 c 2
 498 144 l 1
 469 106 417 51 326 51 c 0
 176 51 56 206 56 368 c 0
156 368 m 0
 156 219 237 79 331 79 c 0
 429 79 502 174 502 240 c 2
 502 470 l 2
 502 538 448 650 344 650 c 0
 249 650 156 521 156 368 c 0
EndSplineSet
EndChar
StartChar: uni024B
Encoding: 587 587 117
Width: 593
Flags: HW
TeX: 0 0 0 0
HStem: -205 23<463.7 563.013> -11 22<156.1 338> 417 25<164.8 359>
VStem: 34 83<65.5 369.7> 383 66<71 330> 543 91<-148.4 -88.6>
Fore
34 215 m 0
 34 345 139 442 255 442 c 0
 335 442 376 379 389 351 c 1
 427 442 l 1
 449 442 l 1
 449 7 l 2
 449 -90 472 -182 532 -182 c 0
 546 -182 562 -179 579 -170 c 1
 552 -163 543 -143 543 -125 c 0
 543 -97 565 -79 589 -79 c 0
 611 -79 634 -96 634 -126 c 0
 634 -177 580 -205 530 -205 c 0
 479 -205 383 -178 380 8 c 2
 380 61 l 1
 358 32 317 -11 247 -11 c 0
 131 -11 34 90 34 215 c 0
117 215 m 0
 117 100 178 11 251 11 c 0
 328 11 383 86 383 136 c 2
 383 277 l 2
 383 330 341 417 261 417 c 0
 187 417 117 334 117 215 c 0
EndSplineSet
EndChar
StartChar: uni024C
Encoding: 588 588 118
Width: 736
Flags: HW
TeX: 0 0 0 0
HStem: -22 22<598 673.5> 0 31<35 136 226 327> 3 28<35 159.1 202.9 327> 327 32<42.9917 138> 331 22<224 372.166> 652 31<35 159.1 226 422>
VStem: 138 86<31.2 327 359 651.8> 507 103<413.3 627.8>
Fore
35 0 m 1
 35 31 l 1x87
 59 31 l 2x87
 136 31 138 42 138 78 c 2
 138 327 l 1
 60 327 l 2
 46 327 35 329 35 343 c 0
 35 357 47 359 67 359 c 2
 138 359 l 1x97
 138 605 l 2
 138 641 136 652 59 652 c 2
 35 652 l 1
 35 683 l 1
 349 683 l 2
 496 683 610 599 610 503 c 0
 610 425 532 364 435 340 c 1
 555 299 557 229 570 144 c 0
 584.218 51.0331 592 0 641 0 c 0
 666 0 701 18 707 89 c 0
 708 96 708 105 719 105 c 0
 732 105 732 94 732 88 c 0
 732 60 715 -22 637 -22 c 0
 607 -22 552 -16 511 20 c 0
 470 58 470 98 470 163 c 0
 470 230 470 261 432 297 c 0
 397 331 355 331 339 331 c 2
 224 331 l 1x8f
 224 78 l 2
 224 42 226 31 303 31 c 2x87
 327 31 l 1x87
 327 0 l 1
 291 3 220 3 181 3 c 0xa7
 142 3 71 3 35 0 c 1
224 353 m 1
 335 353 l 2
 483 353 507 434 507 503 c 0
 507 648 395 652 305 652 c 2x8f
 304 652 l 2
 226 652 224 652 224 612 c 2
 224 353 l 1
EndSplineSet
EndChar
StartChar: uni024D
Encoding: 589 589 119
Width: 391
Flags: HW
TeX: 0 0 0 0
HStem: 0 31<28 109.91 174 269> 199 32<35.9917 106 172 260.11> 400 31<28 65.9091> 420 22<195.1 302.878>
VStem: 106 61<343.979 407.7> 106 66<31.2 199> 278 86<343.6 412.5>
Fore
28 0 m 1
 28 31 l 1xd6
 95 31 106 31 106 76 c 2
 106 199 l 1
 53 199 l 2
 39 199 28 201 28 215 c 0
 28 229 40 231 60 231 c 2
 106 231 l 1xd6
 106 344 l 2
 106 393 98 400 28 400 c 1
 28 431 l 1xea
 167 442 l 1
 167 332 l 1xda
 181 375 217 442 290 442 c 0
 333 442 364 413 364 381 c 0
 364 349 339 337 321 337 c 0
 299 337 278 352 278 380 c 0
 278 405 297 417 300 419 c 1
 298 420 296 420 290 420 c 0
 214 420 172 331 172 232 c 2
 172 231 l 1
 239 231 l 2
 254 231 268 230 268 215 c 0
 268 201 255 199 242 199 c 2
 172 199 l 1
 172 78 l 2
 172 42 174 31 248 31 c 2
 269 31 l 1
 269 0 l 1
 229 3 182 3 142 3 c 0
 114 3 67 1 28 0 c 1
EndSplineSet
EndChar
StartChar: uni024E
Encoding: 590 590 120
Width: 750
Flags: HW
TeX: 0 0 0 0
HStem: 0 31<228 329 420 520> 3 28<228 352.1 396.9 520> 489 32<11.3833 178 300 514 569 730.11> 652 31<11 108.901 230.5 289 525 566.534 610.6 738>
VStem: 331 86<42 273>
Fore
10 505 m 0
 10 519 22 521 42 521 c 2
 178 521 l 1
 121 615 l 2
 105 641 97 652 29 652 c 2
 11 652 l 1
 11 683 l 1
 53 681 99 680 141 680 c 0
 180 680 253 680 289 683 c 1
 289 652 l 1
 244 652 219 648 219 627 c 0
 219 622 219 620 226 610 c 2
 280 521 l 1
 533 521 l 1
 571 582 582 595 582 613 c 0
 582 633 566 652 525 652 c 1
 525 683 l 1
 551 682 609 680 640 680 c 0
 667 680 707 681 738 683 c 1
 738 652 l 1
 640 652 619 604 569 521 c 1
 709 521 l 2
 724 521 738 520 738 505 c 0
 738 491 725 489 712 489 c 2
 550 489 l 1
 417 273 l 1
 417 80 l 2
 417 41 420 31 497 31 c 2
 520 31 l 1
 520 0 l 1xb8
 484 3 413 3 374 3 c 0x78
 335 3 264 3 228 0 c 1
 228 31 l 1
 252 31 l 2xb8
 329 31 331 42 331 78 c 2
 331 273 l 1
 198 489 l 1
 35 489 l 2
 21 489 10 491 10 505 c 0
300 489 m 1x38
 407 315 l 1
 514 489 l 1
 300 489 l 1x38
EndSplineSet
EndChar
StartChar: uni024F
Encoding: 591 591 121
Width: 527
Flags: HW
TeX: 0 0 0 0
HStem: -205 22<84.0187 192.9> 209 32<25.3833 151 235 336 375 500.11> 400 31<19 81.7224 180.763 225 346 378.228 409.6 508>
VStem: 19 84<-143.833 -89.2>
Fore
19 -124 m 0
 19 -94 41 -81 61 -81 c 0
 84 -81 103 -97 103 -123 c 0
 103 -139 95 -161 64 -165 c 1
 83 -183 106 -183 111 -183 c 0
 175 -183 200 -124 250 0 c 1
 164 209 l 1
 49 209 l 2
 35 209 24 211 24 225 c 0
 24 239 36 241 56 241 c 2
 151 241 l 1
 100 365 l 2
 85.6613 399.863 67 400 19 400 c 1
 19 431 l 1
 49 429 89 428 116 428 c 0
 133 428 199 430 225 431 c 1
 225 400 l 1
 206 400 169 400 169 374 c 0
 169 369 185 333 222 241 c 1
 349 241 l 1
 391 343 393 346 393 357 c 0
 393 382 377 399 346 400 c 1
 346 431 l 1
 368 430 415 428 433 428 c 0
 456 428 485 429 508 431 c 1
 508 400 l 1
 429 400 417 340 375 241 c 1
 479 241 l 2
 494 241 508 240 508 225 c 0
 508 211 495 209 482 209 c 2
 362 209 l 1
 239 -91 l 2
 215 -148 174 -205 111 -205 c 0
 61 -205 19 -169 19 -124 c 0
235 209 m 1
 286 87 l 1
 336 209 l 1
 235 209 l 1
EndSplineSet
EndChar
StartChar: kcommaaccent
Encoding: 311 311 123
Width: 527
Flags: HW
TeX: 0 0 0 0
HStem: -147 74<256.3 298.621> 0 31<28 110.266 163.814 247 316 344.409 462.9 511> 400 28<454.447 488> 400 31<304.371 330.734> 652 31<28 67.2727>
VStem: 106 63<31 179 214 645> 309 16<-230.8 -134>
Fore
28 0 m 1
 28 31 l 1
 95 31 106 31 106 76 c 2
 106 596 l 2
 106 645 98 652 28 652 c 1
 28 683 l 1
 172 694 l 1
 172 214 l 1
 335 355 335 350 335 375 c 0xee
 335 388 325 399 306 400 c 1
 306 431 l 1xde
 320 430 382 428 418 428 c 0xee
 446 428 459 428 488 431 c 1xde
 488 400 l 1
 467 399 425.147 396.818 362 346 c 0
 352.023 337.971 281 278 281 274 c 0
 281 271 353.019 169.013 414 84 c 0
 452.012 31.0084 474 31 511 31 c 1
 511 0 l 1
 482 2 453 3 424 3 c 0
 403 3 344 1 316 0 c 1
 316 31 l 1
 335 31 352 35 352 54 c 0
 352 72 310 128 233 234 c 1
 169 179 l 1
 169 76 l 2
 169 31 180 31 247 31 c 1
 247 0 l 1
 207 2 167 3 137 3 c 0
 108 3 61 1 28 0 c 1
EndSplineSet
Refer: 2136 806 S 1 0 0 1 378 -7 2
EndChar
StartChar: kgreenlandic
Encoding: 312 312 124
Width: 531
Flags: HW
TeX: 0 0 0 0
HStem: 0 23<25 101.7 172.438 248 423.395 512> 205 25<170 192> 408 22<25 101.05 171.788 248 361.5 422.336>
VStem: 103 67<14.4 205 230 404> 388 87<329.2 402>
Fore
25 0 m 1
 25 23 l 1
 87 23 103 27 103 69 c 2
 103 362 l 2
 103 404 87 408 25 408 c 1
 25 430 l 1
 58 429 111 428 136 428 c 0
 162 428 215 429 248 430 c 1
 248 408 l 1
 186 408 170 404 170 362 c 2
 170 230 l 1
 192 230 l 2
 239 230 293 359 323 394 c 0
 343 417 360 430 393 430 c 0
 443 430 475 403 475 364 c 0
 475 331 449 319 432 319 c 0
 410 319 388 337 388 363 c 0
 388 393 416 404 418 404 c 1
 417 405 408 408 394 408 c 0
 369 408 355 384 334 352 c 0
 301 301 277 251 277 251 c 1
 442 37 418 23 477 23 c 2
 512 23 l 1
 512 0 l 1
 487 2 463 3 438 3 c 0
 433 3 411 0 406 0 c 0
 383 0 381.1 10.0813 352 46 c 0
 330.076 73.0613 320 94 239 204 c 1
 170 205 l 1
 170 69 l 2
 170 27 186 23 248 23 c 1
 248 0 l 1
 215 1 163 3 137 3 c 0
 112 3 58 1 25 0 c 1
EndSplineSet
EndChar
StartChar: uni0189
Encoding: 393 393 125
Width: 763
Flags: HW
TeX: 0 0 0 0
HStem: 0 31<35 136 211.9 475> 652 31<35 159.1 226 453.6>
VStem: 138 86<31.2 307 347 378 418 651.8> 607 100<191.7 437.4>
Fore
35 0 m 1
 35 31 l 1
 59 31 l 2
 136 31 138 42 138 78 c 2
 138 307 l 1
 70 251 l 1
 50 275 l 1
 138 347 l 1
 138 605 l 2
 138 641 136 652 59 652 c 2
 35 652 l 1
 35 683 l 1
 401 683 l 2
 572 683 707 526 707 336 c 0
 707 148 569 0 401 0 c 2
 35 0 l 1
224 71 m 2
 224 38 226 31 273 31 c 2
 374 31 l 2
 475 31 532 89 552 116 c 0
 588 165 607 225 607 336 c 0
 607 414 597.796 499.852 555 559 c 0
 503.756 629.823 435 652 373 652 c 2
 273 652 l 2
 226 652 224 645 224 612 c 2
 224 418 l 1
 292 474 l 1
 312 450 l 1
 224 378 l 1
 224 71 l 2
EndSplineSet
EndChar
StartChar: grave
Encoding: 96 96 128
Width: 500
Flags: W
TeX: 641 0 32767 32767
HStem: 490 152<135 270>
VStem: 100 185<510 605>
Fore
100 605 m 0
 100 622 114 642 135 642 c 0
 155 642 159 631 285 510 c 1
 270 490 l 1
 252 499 180 540 136 565 c 0
 127.048 570.086 100 581 100 605 c 0
EndSplineSet
EndChar
StartChar: acute
Encoding: 180 180 129
Width: 500
Flags: HW
TeX: 641 0 32767 32767
HStem: 490 152<229 364>
VStem: 214 185<510 605>
Fore
214 510 m 1
 340 633 345 642 364 642 c 0
 385 642 399 622 399 605 c 0
 399 582 392 582 270 513 c 0
 257 505 243 497 229 490 c 1
 214 510 l 1
EndSplineSet
EndChar
StartChar: circumflex
Encoding: 710 710 130
Width: 500
Flags: HW
TeX: 641 0 32767 32767
VStem: 115 268<500 500>
Fore
115 500 m 1
 249 649 l 1
 250 649 l 1
 383 500 l 1
 365 482 l 1
 250 596 l 1
 249 596 l 1
 133 482 l 1
 115 500 l 1
EndSplineSet
EndChar
StartChar: tilde
Encoding: 732 732 131
Width: 500
Flags: HW
TeX: 641 0 32767 32767
HStem: 574 46<257.9 360.6> 621 46<135.1 241.1>
VStem: 83 333<588 653>
Fore
83 588 m 1
 117 628 148 667 191 667 c 0
 238 667 272 620 319 620 c 0
 351 620 374 642 399 668 c 1
 416 653 l 1
 382 614 351 574 308 574 c 0
 262 574 227 621 180 621 c 0
 141 621 109 583 100 574 c 1
 83 588 l 1
EndSplineSet
EndChar
StartChar: dieresis
Encoding: 168 168 132
Width: 500
Flags: HW
TeX: 663 0 32767 32767
HStem: 554 105<116.9 185.8 310.9 380.8>
VStem: 99 105<572.2 646.3> 294 105<569.6 646.3>
Fore
294 606 m 0
 294 637 319 659 346 659 c 0
 374 659 399 637 399 606 c 0
 399 576 373 554 347 554 c 0
 316 554 294 578 294 606 c 0
EndSplineSet
Refer: 138 729 S 1 0 0 1 0 -9 2
EndChar
StartChar: ring
Encoding: 730 730 134
Width: 750
Flags: HW
TeX: 641 0 32767 32767
HStem: 500 22<314.2 421.1> 638 23<308.4 433.8>
VStem: 278 26<552.7 625.5> 445 25<528 608.6>
Fore
278 580 m 0
 278 621 317 661 374 661 c 0
 420 661 470 631 470 580 c 0
 470 540 431 500 374 500 c 0
 328 500 278 530 278 580 c 0
304 580 m 0
 304 559 312 522 373 522 c 0
 410 522 445 534 445 580 c 0
 445 602 437 638 376 638 c 0
 324 638 304 615 304 580 c 0
EndSplineSet
EndChar
StartChar: caron
Encoding: 711 711 135
Width: 500
Flags: HW
TeX: 641 0 32767 32767
VStem: 96 306<631 631>
Fore
96 631 m 1
 109 646 l 1
 243 556 242 556 249 556 c 0
 260 556 279 573 390 646 c 1
 402 631 l 1
 250 484 l 1
 249 484 l 1
 96 631 l 1
EndSplineSet
EndChar
StartChar: breve
Encoding: 728 728 136
Width: 500
Flags: HW
TeX: 641 0 32767 32767
HStem: 503 38<208.4 287.7>
VStem: 99 23<583.75 639> 377 22<533.435 640.549>
Fore
99 639 m 1
 122 639 l 1
 128 554 218 541 250 541 c 0
 279 541 371 554 377 639 c 1
 399 639 l 1
 396 551 323 503 249 503 c 0
 175 503 103 552 99 639 c 1
EndSplineSet
EndChar
StartChar: macron
Encoding: 175 175 137
Width: 500
Flags: W
TeX: 663 0 32767 32767
HStem: 649 32<69 429>
Fore
69 649 m 1
 69 681 l 1
 429 681 l 1
 429 649 l 1
 69 649 l 1
EndSplineSet
EndChar
StartChar: dotaccent
Encoding: 729 729 138
Width: 278
Flags: HW
TeX: 663 0 32767 32767
HStem: 563 105<116.9 185.8>
VStem: 99 105<581.2 655.3>
Fore
99 615 m 0
 99 646 125 668 152 668 c 0
 179 668 204 646 204 615 c 0
 204 584 178 563 152 563 c 0
 121 563 99 589 99 615 c 0
EndSplineSet
EndChar
StartChar: cedilla
Encoding: 184 184 139
Width: 444
Flags: HW
TeX: 0 170 32767 32767
HStem: -204 23<103 232.8> -71 71<187 257>
VStem: 187 70<-54 0> 269 70<-183.2 -97.4>
Fore
103 -181 m 1
 115 -181 l 2
 210 -181 269 -170 269 -126 c 0
 269 -104 252 -74 187 -71 c 1
 187 0 l 1
 257 0 l 1
 257 -54 l 1
 270 -57 339 -69 339 -126 c 0
 339 -200 213 -204 147 -204 c 2
 103 -204 l 1
 103 -181 l 1
EndSplineSet
EndChar
StartChar: ogonek
Encoding: 731 731 140
Width: 278
Flags: HW
TeX: 0 194 32767 32767
HStem: -198 44<101 166>
VStem: 11 73<-146.6 -63.4>
Fore
11 -128 m 0
 11 -52 123 -36 183 18 c 1
 193 0 l 1
 153 -38 84 -76 84 -118 c 0
 84 -140 108 -154 130 -154 c 0
 166 -154 191 -126 206 -102 c 1
 225 -115 l 1
 196 -167 151 -198 101 -198 c 0
 58 -198 11 -170 11 -128 c 0
EndSplineSet
EndChar
StartChar: guilsinglleft
Encoding: 8249 8249 142
Width: 444
Flags: HW
TeX: 483 0 32767 32767
HStem: 2 479<321 321 321 321>
VStem: 113 217<11 242>
Fore
113 242 m 0
 113 261 217 299 303 463 c 0
 310 476 314 481 321 481 c 0
 327 481 330 476 330 472 c 0
 330 450 288.921 371.057 254 323 c 0
 232.952 294.035 210 267 185 241 c 1
 282 146 330 29 330 11 c 0
 330 7 327 2 321 2 c 0
 300 2 292 78 180 181 c 0
 131 226 113 229 113 242 c 0
EndSplineSet
EndChar
StartChar: guilsinglright
Encoding: 8250 8250 143
Width: 444
Flags: HW
TeX: 483 0 32767 32767
HStem: 2 479<121 121 121 121>
Fore
112 11 m 0
 113 33 154 112 188 160 c 0
 209 189 233 216 258 242 c 1
 160 337 112 455 112 472 c 0
 112 476 116 481 121 481 c 0
 133 481 133 469 162 423 c 0
 244 290 330 260 330 242 c 0
 330 221 229.776 188.584 139 20 c 0
 132 7 128 2 121 2 c 0
 116 2 112 6 112 11 c 0
EndSplineSet
EndChar
StartChar: quotedblleft
Encoding: 8220 8220 144
Width: 333
Flags: HW
TeX: 688 0 32767 32767
HStem: 394 105<249.105 313.3> 394 106<38.1049 102.3> 672 20G<79.5 91 289.5 301.5>
VStem: -5 23<472.827 642> 206 22<471.828 639.4>
Fore
206 499 m 0
 206 607 280 692 299 692 c 0
 304 692 309 688 309 682 c 0xb8
 309 666 228 616 228 500 c 0x78
 228 493 229 485 230 478 c 1
 246 496 260 499 273 499 c 0
 304 499 325 476 325 447 c 0
 325 419 304 394 273 394 c 0
 233 394 206 434 206 499 c 0
EndSplineSet
Refer: 1234 699 S 1 0 0 1 -76 -0 2
KernsSLIFO: 144 111 11 0 223 111 11 0
EndChar
StartChar: guillemotleft.lat
Encoding: 61696 61696 147
Width: 555
Flags: HW
TeX: 483 0 32767 32767
HStem: 2 479<487 487 487 487>
VStem: 113 384<11 242>
Fore
113 242 m 0
 113 263 212 292 304 464 c 0
 311 476 314 481 321 481 c 0
 327 481 330 476 330 472 c 0
 330 459 301 389 254 323 c 0
 233 294 210 267 185 241 c 1
 282 147 330 28 330 11 c 0
 330 7 327 2 321 2 c 0
 311 2 305 17 304 20 c 0
 214 189 113 221 113 242 c 0
279 241 m 0
 279 263 379 292 470 464 c 0
 477 476 481 481 487 481 c 0
 493 481 497 476 497 472 c 0
 497 459 468 389 421 323 c 0
 400 294 376 267 351 241 c 1
 448 147 497 28 497 11 c 0
 497 7 493 2 487 2 c 0
 477 2 472 17 470 20 c 0
 382 185 279 223 279 241 c 0
EndSplineSet
EndChar
StartChar: guillemotright.lat
Encoding: 61697 61697 148
Width: 555
Flags: HW
TeX: 483 0 32767 32767
HStem: 2 479<233 233 233 233>
Fore
57 11 m 0
 57 24 84 91 133 160 c 0
 154 189 178 216 203 242 c 1
 106 336 57 455 57 472 c 0
 57 476 61 481 66 481 c 0
 78 481 77 471 107 423 c 0
 189.811 290.503 275 260 275 242 c 0
 275 221 173 188 83 20 c 0
 77 7 73 2 66 2 c 0
 61 2 57 7 57 11 c 0
223 11 m 0
 223 24 250 91 299 160 c 0
 320 189 344 216 369 242 c 1
 273 336 223 455 223 472 c 0
 223 476 227 481 233 481 c 0
 244 481 243 471 273 423 c 0
 356.09 290.056 441 260 441 242 c 0
 441 221 340.358 187.808 250 20 c 0
 243 7 239 2 233 2 c 0
 227 2 223 7 223 11 c 0
EndSplineSet
KernsSLIFO: 171 -83 11 0 173 -83 11 0
EndChar
StartChar: endash
Encoding: 8211 8211 149
Width: 500
Flags: HW
TeX: 430 0 32767 32767
HStem: 255 22<0 499 0 499>
VStem: 0 499<255 277 255 277>
Fore
0 255 m 1
 0 277 l 1
 499 277 l 1
 499 255 l 1
 0 255 l 1
EndSplineSet
Position: 0 0 'ITLC' dx=0 dy=0 dh=27 dv=0
EndChar
StartChar: emdash
Encoding: 8212 8212 150
Width: 1000
Flags: HW
TeX: 430 0 32767 32767
HStem: 255 22<0 999 0 999>
VStem: 0 999<255 277 255 277>
Fore
0 255 m 1
 0 277 l 1
 999 277 l 1
 999 255 l 1
 0 255 l 1
EndSplineSet
Substitution: 0 8 'locl' emdash.cyr
Substitution: 0 8 'salt' emdash.cyr
Position: 0 0 'ITLC' dx=0 dy=0 dh=27 dv=0
EndChar
StartChar: dotlessi
Encoding: 305 305 152
Width: 277
Flags: HW
TeX: 430 0 32767 32767
HStem: 0 31<33 66.5> 400 42
VStem: 111 66<76 345 345 369.5>
AnchorPoint: "below" 144 0 basechar 0
AnchorPoint: "above" 144 448 basechar 0
Fore
33 0 m 1
 33 31 l 1
 100 31 111 31 111 76 c 2
 111 345 l 2
 111 394 102 400 37 400 c 1
 37 431 l 1
 177 442 l 1
 177 75 l 2
 177 36 181 31 247 31 c 1
 247 0 l 1
 213 1 178 3 143 3 c 0
 119 3 65 1 33 0 c 1
EndSplineSet
Substitution: 0 7 'smcp' I.sc
EndChar
StartChar: dotlessj
Encoding: 567 567 153
Width: 305
Flags: HW
TeX: 430 194 32767 32767
HStem: -205 22<68.5 103 68.5 110.5> -167 88 400 42
VStem: -40 92<-138.5 -112 -138.5 -112> 144 66<-52 -50 -50 344 344 368.5>
AnchorPoint: "below" 106 -194 basechar 0
AnchorPoint: "above" 177 448 basechar 0
Fore
-40 -125 m 0
 -40 -99 -22 -79 6 -79 c 0
 34 -79 52 -99 52 -125 c 0
 52 -152 32 -166 17 -170 c 1
 43 -183 66 -183 71 -183 c 0
 135 -183 144 -97 144 -52 c 2
 144 344 l 2
 144 393 135 400 58 400 c 1
 58 431 l 1
 210 442 l 1
 210 -50 l 2
 210 -141 148 -205 73 -205 c 0
 16 -205 -40 -177 -40 -125 c 0
EndSplineSet
Substitution: 0 7 'smcp' J.sc
EndChar
StartChar: ff
Encoding: 64256 64256 154
Width: 583
Flags: HW
TeX: 688 0 32767 32767
HStem: 0 31<27 100 185 250 305 378 447.156 547> 3 28<107.7 119.5 167.9 250 305 397.5> 400 30<27 105 172 382 450 564> 682 23<250.4 376.5 491.2 565.483>
VStem: 105 64<27.6 400 430 688.2> 382 65<39 400 430 578.106> 542 86<600.2 666.5>
Fore
27 0 m 1
 27 31 l 1
 35 31 l 2
 100 31 105 39 105 77 c 2
 105 400 l 1
 27 400 l 1
 27 430 l 1
 105 430 l 1
 105 541 l 2
 105 657 227 705 318 705 c 0
 389 705 416 678 432 663 c 1
 460 687 494 705 538 705 c 0
 586 705 628 677 628 634 c 0
 628 608 609 590 585 590 c 0
 562 590 542 608 542 634 c 0
 542 659 559 670 571 676 c 1
 560 679 549 682 538 682 c 0
 502 682 447 646 447 541 c 2
 447 430 l 1
 564 430 l 1
 564 400 l 1
 450 400 l 1
 450 78 l 2
 450 39 457 31 535 31 c 2
 547 31 l 1
 547 0 l 1xbe
 504 2 461 3 417 3 c 0x7e
 372 3 338 2 305 0 c 1
 305 31 l 1
 313 31 l 2xbe
 378 31 382 39 382 77 c 2
 382 400 l 1
 172 400 l 1
 172 77 l 2
 172 35 185 31 242 31 c 2
 250 31 l 1
 250 0 l 1xbe
 212 2 173 3 135 3 c 0x7e
 114 3 81 3 27 0 c 1
169 430 m 1
 382 430 l 1
 382 515 l 2
 383 537 382 560 385 579 c 1
 366 590 358 603 358 620 c 0
 358 646 378 658 394 664 c 1
 387 667 363 682 318 682 c 0x3e
 266 682 169 654 169 540 c 2
 169 430 l 1
EndSplineSet
KernsSLIFO: 2059 78 11 0 220 78 11 0 168 78 11 0 160 78 11 0 190 78 11 0 145 78 11 0 144 78 11 0 223 78 11 0 166 78 11 0
Substitution: 0 7 'smcp' FF.sc
Ligature: 0 7 'liga' f f
Position: 0 0 'ITLC' dx=0 dy=0 dh=77 dv=0
EndChar
StartChar: fi
Encoding: 64257 64257 155
Width: 555
Flags: HW
TeX: 688 0 32767 32767
HStem: 0 31<27 100 185 250 305 373 462 527> 3 28<107.7 119.5 167.9 250 384.4 390.4 445.5 527> 400 30<27 105 172 305> 682 23<254.6 384.6>
VStem: 105 67<27.6 400 430 654> 356 92<568.9 639.1> 382 68<26.9 398.4>
Fore
27 0 m 1
 27 31 l 1
 35 31 l 2
 100 31 105 39 105 77 c 2
 105 400 l 1
 27 400 l 1
 27 430 l 1
 105 430 l 1
 105 542 l 2
 105 657 226 705 319 705 c 0
 396 705 448 659 448 606 c 0
 448 575 426 558 402 558 c 0
 378 558 356 577 356 604 c 0xbc
 356 631 376 649 404 650 c 1
 397 656 369 682 317 682 c 0
 269 682 169 654 169 541 c 2
 169 430 l 1
 305 430 l 1
 305 432 l 1
 450 443 l 1
 450 72 l 2
 450 37 462 31 517 31 c 2
 527 31 l 1
 527 0 l 1xba
 489 2 451 3 413 3 c 0x7a
 391 3 359 3 305 0 c 1
 305 31 l 1
 315 31 l 2
 373 31 382 38 382 75 c 2
 382 309 l 2
 382 318 383 327 383 336 c 0
 383 384 378 400 327 400 c 2
 172 400 l 1
 172 77 l 2xba
 172 35 185 31 242 31 c 2
 250 31 l 1
 250 0 l 1xba
 212 2 173 3 135 3 c 0x7a
 114 3 81 3 27 0 c 1
EndSplineSet
Substitution: 0 7 'smcp' FI.sc
Ligature: 0 9 'liga' f i
EndChar
StartChar: fl
Encoding: 64258 64258 156
Width: 555
Flags: HW
TeX: 688 0 32767 32767
HStem: 0 31<27 100 185 250 305 378 457 527> 3 28<107.7 119.5 167.9 250 384.4 397.5 437.5 527> 400 30<27 105 172 382> 682 23<245.9 371.002>
VStem: 105 64<27.6 400 430 686.6> 382 68<37 400 430 594 673 674>
Fore
27 0 m 1
 27 31 l 1
 35 31 l 2
 100 31 105 39 105 77 c 2
 105 400 l 1
 27 400 l 1
 27 430 l 1
 105 430 l 1
 105 541 l 2
 105 653 218 705 320 705 c 0
 393 705 391 690 415 690 c 0
 422 690 422 690 450 694 c 1
 450 76 l 2
 450 37 457 31 522 31 c 2
 527 31 l 1
 527 0 l 1xbc
 489 2 451 3 413 3 c 0x7c
 391 3 359 3 305 0 c 1
 305 31 l 1
 313 31 l 2xbc
 378 31 382 39 382 77 c 2
 382 400 l 1
 172 400 l 1
 172 77 l 2
 172 35 185 31 242 31 c 2
 250 31 l 1
 250 0 l 1xbc
 212 2 173 3 135 3 c 0x7c
 114 3 81 3 27 0 c 1
169 430 m 1
 382 430 l 1
 382 594 l 1
 375 599 358 610 358 634 c 0
 358 657 375 668 382 673 c 1
 382 674 l 1
 364 679 345 682 320 682 c 0x3c
 263 682 169 653 169 537 c 2
 169 430 l 1
EndSplineSet
Substitution: 0 7 'smcp' FL.sc
Ligature: 0 7 'liga' f l
EndChar
StartChar: ffi
Encoding: 64259 64259 157
Width: 833
Flags: HW
TeX: 688 0 32767 32767
HStem: 0 31<27 100 185 250 305 378 463 527 582 651 740 805> 3 28<107.7 119.5 167.9 250 384.4 397.5 445.9 527 662.4 668.4 723.5 805> 400 30<27 105 172 382 450 582> 682 23<253.6 382.3 533.9 662.6>
VStem: 105 64<27.6 400 430 688.2> 382 65<39 400 430 561> 634 92<565 624.887> 660 67<26.9 384>
Fore
27 0 m 1
 27 31 l 1
 35 31 l 2
 100 31 105 39 105 77 c 2
 105 400 l 1
 27 400 l 1
 27 430 l 1
 105 430 l 1
 105 541 l 2
 105 657 227 705 316 705 c 0
 386 705 417 671 432 650 c 1
 473 681 524 705 594 705 c 0
 678 705 726 655 726 606 c 0
 726 574 703 559 680 559 c 0
 657 559 634 574 634 604 c 0xbe
 634 618 641 646 682 650 c 1
 675 656 647 682 595 682 c 0
 548 682 447 654 447 541 c 2
 447 430 l 1
 582 430 l 1
 582 432 l 1
 727 443 l 1
 727 72 l 2
 727 37 740 31 795 31 c 2
 805 31 l 1
 805 0 l 1xbd
 767 2 729 3 691 3 c 0x7d
 669 3 637 3 582 0 c 1
 582 31 l 1
 593 31 l 2
 651 31 660 38 660 75 c 2
 660 335 l 2
 660 384 656 400 605 400 c 2
 450 400 l 1
 450 77 l 2
 450 35 463 31 520 31 c 2
 527 31 l 1
 527 0 l 1xbd
 489 2 451 3 413 3 c 0x7d
 391 3 359 3 305 0 c 1
 305 31 l 1
 313 31 l 2xbd
 378 31 382 39 382 77 c 2
 382 400 l 1
 172 400 l 1
 172 77 l 2
 172 35 185 31 242 31 c 2
 250 31 l 1
 250 0 l 1xbd
 212 2 173 3 135 3 c 0x7d
 114 3 81 3 27 0 c 1
169 430 m 1
 382 430 l 1
 382 510 l 1
 383 561 l 1
 366 570 354 582 354 604 c 0
 354 618 360 647 401 650 c 1
 392 659 367 682 316 682 c 0x3c
 268 682 169 654 169 540 c 2
 169 430 l 1
EndSplineSet
Substitution: 0 7 'smcp' FFI.sc
Ligature: 0 9 'liga' ff i
Ligature: 0 9 'liga' f f i
EndChar
StartChar: ffl
Encoding: 64260 64260 158
Width: 833
Flags: HW
TeX: 688 0 32767 32767
HStem: 0 31<27 100 185 250 305 378 463 527 582 656 734 805> 3 28<107.7 119.5 167.9 250 384.4 397.5 445.9 527 662.4 675.8 714.2 805> 400 30<27 105 172 382 450 660> 682 23<250.4 376.5 522.9 649.215>
VStem: 105 64<27.6 400 430 680.1> 382 65<39 400 430 589.917> 660 67<38 400 430 594 673 674>
Fore
27 0 m 1
 27 31 l 1
 35 31 l 2
 100 31 105 39 105 77 c 2
 105 400 l 1
 27 400 l 1
 27 430 l 1
 105 430 l 1
 105 541 l 2
 102 648 215 705 317 705 c 0
 376 705 414 688 437 654 c 1
 450 663 501 705 597 705 c 0
 670 705 668 690 693 690 c 0
 700 690 700 690 727 694 c 1
 727 75 l 2
 728 38 734 31 800 31 c 2
 805 31 l 1
 805 0 l 1xbe
 767 2 729 3 691 3 c 0x7e
 669 3 637 3 582 0 c 1
 582 31 l 1
 590 31 l 2
 656 31 660 39 660 77 c 2
 660 400 l 1
 450 400 l 1
 450 77 l 2
 450 35 463 31 520 31 c 2
 527 31 l 1
 527 0 l 1xbe
 489 2 451 3 413 3 c 0x7e
 391 3 359 3 305 0 c 1
 305 31 l 1
 313 31 l 2xbe
 378 31 382 39 382 77 c 2
 382 400 l 1
 172 400 l 1
 172 77 l 2
 172 35 185 31 242 31 c 2
 250 31 l 1
 250 0 l 1xbe
 212 2 173 3 135 3 c 0x7e
 114 3 81 3 27 0 c 1
169 430 m 1
 382 430 l 1
 382 515 l 2
 383 537 382 560 386 579 c 1
 369 589 358 600 358 620 c 0
 358 646 378 658 394 664 c 1
 387 667 363 682 318 682 c 0
 266 682 169 654 169 540 c 2
 169 430 l 1
447 430 m 1
 660 430 l 1
 660 594 l 1
 653 599 636 610 636 634 c 0
 636 657 653 668 660 673 c 1
 660 674 l 1
 642 679 623 682 597 682 c 0x3e
 540 682 447 653 447 537 c 2
 447 430 l 1
EndSplineSet
Substitution: 0 7 'smcp' FFL.sc
Ligature: 0 7 'liga' ff l
Ligature: 0 7 'liga' f f l
EndChar
StartChar: uni2423
Encoding: 9251 9251 159
Width: 500
Flags: HW
TeX: 430 97 32767 32767
HStem: -97 71<96 388>
VStem: 41 416<71 71>
Fore
41 71 m 1
 66 71 l 1
 92 -4 105 -26 179 -26 c 2
 315 -26 l 2
 388 -26 404 -12 431 71 c 1
 457 71 l 1
 401 -97 l 1
 96 -97 l 1
 41 71 l 1
EndSplineSet
EndChar
StartChar: exclam
Encoding: 33 33 160
Width: 278
Flags: HW
TeX: 688 0 32767 32767
HStem: 1 105<102.9 171.8> 696 20G<125.5 151>
VStem: 85 105<19.2 93.3> 85 106<646.105 706.9>
Fore
85 664 m 0
 85 698 113 716 138 716 c 0xd0
 164 716 191 697 191 664 c 0xd0
 191 661 190 657 190 653 c 2xe0
 152 211 l 2
 151 197 148 188 137 188 c 0
 126 188 125 202 124 215 c 2
 86 650 l 2
 86 655 85 660 85 664 c 0
EndSplineSet
Refer: 138 729 S 1 0 0 1 -14 -562 2
EndChar
StartChar: quotedbl
Encoding: 34 34 161
Width: 500
Flags: HW
TeX: 688 0 32767 32767
HStem: 690 20G<157 173 321 341>
VStem: 119 93<629.014 712.1> 287 92<625.665 704.6>
Fore
119 664 m 0
 119 701 149 710 165 710 c 0
 181 710 212 701 212 664 c 0
 212 653 178 359 177 347 c 1
 154 347 l 1
 147 422 119 653 119 664 c 0
287 663 m 0
 287 695 309 710 333 710 c 0
 349 710 379 701 379 664 c 0
 379 653 352 422 344 347 c 1
 322 347 l 1
 320 361 287 649 287 663 c 0
EndSplineSet
EndChar
StartChar: numbersign
Encoding: 35 35 162
Width: 833
Flags: HW
TeX: 688 194 32767 32767
HStem: 141 23<62.7918 255 285 493 524 768.285> 336 23<56.7295 308 339 547 577 768.779> 672 20G<410 419.5 648.5 657.5>
Fore
57 153 m 0
 57 164 72 164 83 164 c 2
 261 164 l 1
 308 336 l 1
 80 336 l 2
 69 336 57 337 57 347 c 0
 57 358 73 359 87 359 c 2
 315 359 l 1
 396 655 l 2
 400 669 404 692 416 692 c 0
 423 692 425 687 425 680 c 0
 425 670 421 658 419 650 c 2
 339 359 l 1
 554 359 l 1
 635 655 l 2
 639 669 643 692 654 692 c 0
 661 692 664 687 664 680 c 0
 664 670 660 658 657 650 c 2
 577 359 l 1
 750 359 l 2
 761 359 774 358 775 347 c 1
 774 336 760 336 749 336 c 2
 570 336 l 1
 524 164 l 1
 751 164 l 2
 762 164 775 163 775 153 c 0
 775 142 759 141 745 141 c 2
 517 141 l 1
 435 -155 l 2
 432 -169 428 -192 416 -192 c 0
 409 -192 407 -187 407 -180 c 0
 407 -171 411 -158 413 -150 c 2
 493 141 l 1
 278 141 l 1
 197 -155 l 2
 193 -169 189 -192 178 -192 c 0
 170 -192 168 -187 168 -180 c 0
 168 -171 172 -158 175 -150 c 2
 255 141 l 1
 82 141 l 2
 71 141 57 142 57 153 c 0
285 164 m 1
 500 164 l 1
 547 336 l 1
 332 336 l 1
 285 164 l 1
EndSplineSet
EndChar
StartChar: dollar
Encoding: 36 36 163
Width: 500
Flags: HW
TeX: 749 55 32767 32767
HStem: 137 91<81.3479 130.9> 480 91<366.8 417.435>
VStem: 55 92<150.5 218.1> 55 52<467.5 606.6> 234 31<-55 -10 21 311 411 673 705 750> 352 91<489.9 556.2> 392 52<80.5 239.2>
Fore
55 177 m 0
 55 218 84 228 101 228 c 0
 124 228 147 210 147 183 c 0xea
 147 158 129 137 102 137 c 0
 96 137 91 138 85 139 c 1
 109 46 178 26 234 20 c 1
 234 319 l 1
 209 325 132 335 84 412 c 0
 65 443 55 478 55 513 c 0
 55 585 103 690 234 705 c 1
 234 750 l 1
 265 750 l 1
 265 705 l 1
 416 695 443 584 443 530 c 0
 443 489 414 480 398 480 c 0
 374 480 352 498 352 525 c 0xdc
 352 549 370 571 397 571 c 0
 402 571 407 570 413 569 c 1
 387 651 320 669 265 674 c 1
 265 403 l 1
 293 396 374 384 420 295 c 0
 436 264 444 229 444 195 c 0xca
 444 91 369 -0 265 -10 c 1
 265 -55 l 1
 234 -55 l 1
 234 -10 l 1
 81 0 55 122 55 177 c 0
107 543 m 0xd8
 107 479 154 439 191 423 c 0
 205 418 220 414 234 411 c 1
 234 673 l 1
 160 665 107 610 107 543 c 0xd8
265 21 m 1
 348 32 392 100 392 165 c 0xca
 392 227 355 277 307 298 c 0
 294 304 279 307 265 311 c 1
 265 21 l 1
EndSplineSet
EndChar
StartChar: percent
Encoding: 37 37 164
Width: 833
Flags: HW
TeX: 749 55 32767 32767
HStem: -56 22<637 673 637 682.5> 325 22<636.5 673.5> 347 22<194 230 194 239.5> 619 22<445 498.5 427 501> 728 22<193.5 219 165 230.5>
VStem: 56 62<488.5 607.5> 308 25<495 555 492 601.5> 499 62<85.5 204.5> 751 25<92 198.5>
Fore
56 549 m 0
 56 666 127 750 203 750 c 0
 235 750 256 735 275 718 c 0
 330 666 392 641 462 641 c 0
 535 641 602 668 652 736 c 0
 658 743 663 750 673 750 c 0
 684 750 693 741 693 730 c 0
 693 724 691 721 685 712 c 2
 179 -41 l 2
 171 -52 169 -56 159 -56 c 0
 149 -56 139 -47 139 -36 c 0
 139 -34 139 -29 148 -16 c 2
 597 653 l 1
 596 654 l 1
 590 650 539 619 463 619 c 0
 427 619 377 624 312 661 c 1
 333 609 333 562 333 548 c 0
 333 436 276 347 203 347 c 0
 128 347 56 428 56 549 c 0
118 548 m 0
 118 382 184 369 204 369 c 0
 256 369 308 441 308 549 c 0
 308 654 257 728 204 728 c 0
 183 728 118 715 118 548 c 0
499 146 m 0
 499 263 570 347 646 347 c 0
 717 347 776 260 776 145 c 0
 776 33 719 -56 646 -56 c 0
 571 -56 499 25 499 146 c 0
561 145 m 0
 561 -21 627 -34 647 -34 c 0xdf80
 699 -34 751 38 751 146 c 0
 751 251 700 325 647 325 c 0
 626 325 561 312 561 145 c 0
EndSplineSet
EndChar
StartChar: ampersand
Encoding: 38 38 165
Width: 777
Flags: HW
TeX: 688 0 32767 32767
HStem: -22 31<189.5 245 189.5 265.5 557 606.5> 400 31<508 531> 694 22<283.5 331>
VStem: 42 83<133 155> 163 63<562.5 608> 361 25<555 589> 693 28
Fore
42 128 m 0
 42 182 68 209 113 255 c 0
 143 287 184 330 204 352 c 1
 169 441 163 513 163 555 c 0
 163 661 237 716 299 716 c 0
 370 716 386 633 386 587 c 0
 386 521 318 445 264 385 c 1
 308 270 417 133 430 118 c 1
 473 171 518 239 573 336 c 0
 574 339 579 346 579 356 c 0
 579 381 554 400 508 400 c 1
 508 431 l 1
 535 429 619 428 630 428 c 0
 636 428 690 429 727 431 c 1
 727 400 l 1
 638 399 617 364 578 298 c 0
 532 219 492 151 446 98 c 1
 478 60 530 9 584 9 c 0
 629 9 693 42 696 121 c 1
 721 121 l 1
 719 35 656 -22 580 -22 c 0
 532 -22 473 -6 404 54 c 1
 367 21 308 -22 223 -22 c 0
 124 -22 42 41 42 128 c 0
125 160 m 0
 125 106 148 9 231 9 c 0
 259 9 321 16 385 73 c 1
 348 110 312 162 293 190 c 0
 250 252 235 282 213 329 c 1
 159 277 125 241 125 160 c 0
226 578 m 0
 226 547 229 489 256 409 c 1
 280 435 361 522 361 588 c 0
 361 590 361 694 301 694 c 0
 266 694 226 662 226 578 c 0
EndSplineSet
EndChar
StartChar: quoteright
Encoding: 8217 8217 166
Width: 278
Flags: HW
TeX: 688 0 32767 32767
HStem: 588 106<97.7 160.814>
VStem: 182 23<448.6 616.113>
Fore
85 641 m 0
 85 669 106 694 138 694 c 0
 178 694 205 654 205 589 c 0
 205 481 130 396 112 396 c 0
 107 396 102 400 102 406 c 0
 102 421 182 472 182 588 c 0
 182 595 182 602 181 610 c 1
 163 590 149 588 138 588 c 0
 107 588 85 612 85 641 c 0
EndSplineSet
KernsSLIFO: 160 111 11 0 190 111 11 0 145 111 11 0
EndChar
StartChar: parenleft
Encoding: 40 40 167
Width: 388
Flags: HW
TeX: 749 249 32767 32767
HStem: -250 21<316 324> 730 20<316 324>
VStem: 99 58<211 292>
Fore
99 250 m 0
 99 334 111 445 162 555 c 0
 221 682 311 750 321 750 c 0
 327 750 331 747 331 740 c 0
 331 737 331 735 318 723 c 0
 195 598 157 424 157 250 c 0
 157 97 189 -92 314 -218 c 0
 331 -235 331 -237 331 -240 c 0
 331 -247 327 -250 321 -250 c 0
 311 -250 225 -185 165 -62 c 0
 110 51 99 172 99 250 c 0
EndSplineSet
EndChar
StartChar: parenright
Encoding: 41 41 168
Width: 388
Flags: HW
TeX: 749 249 32767 32767
HStem: -250 21<64 72> 730 20<64 72>
VStem: 231 58<208 289 208 354.5>
Fore
57 -240 m 0
 57 -237 57 -235 70 -223 c 0
 194 -97 231 79 231 250 c 0
 231 459 174 618 76 717 c 0
 57 735 57 737 57 740 c 0
 57 746 61 750 67 750 c 0
 77 750 163 685 223 562 c 0
 278 449 289 328 289 250 c 0
 289 166 277 55 226 -55 c 0
 167 -182 77 -250 67 -250 c 0
 61 -250 57 -246 57 -240 c 0
EndSplineSet
EndChar
StartChar: asterisk
Encoding: 42 42 169
Width: 500
Flags: HW
TeX: 749 0 32767 32767
HStem: 319 21<242.5 257> 730 20<242 256.5>
VStem: 65 369<440 446.5 434.5 447 622.5 634.5>
Fore
65 441 m 0
 65 453 69 460 88 469 c 2
 227 535 l 1
 86 601 l 2
 69 609 65 617 65 628 c 0
 65 641 76 656 92 656 c 0
 98 656 100 656 114 645 c 2
 238 555 l 1
 236 577 223 715 223 725 c 0
 223 738 234 750 250 750 c 0
 263 750 276 740 276 725 c 2
 261 555 l 1
 286 573 348 619 372 637 c 0
 398 656 400 656 407 656 c 0
 423 656 434 641 434 628 c 0
 434 616 430 609 411 600 c 2
 272 534 l 1
 413 468 l 2
 430 460 434 452 434 441 c 0
 434 428 423 413 407 413 c 0
 399 413 396 416 391 419 c 0
 386 422 311 478 261 514 c 1
 263 492 276 354 276 344 c 0
 276 331 265 319 249 319 c 0
 236 319 223 329 223 344 c 2
 238 514 l 1
 98 413 l 1
 65 413 65 439 65 441 c 0
EndSplineSet
EndChar
StartChar: plus
Encoding: 43 43 170
Width: 778
Flags: HW
TeX: 583 83 32767 32767
HStem: 239 22<57.6426 377 400 718.357>
VStem: 377 23<-75.198 239 261 574.791>
Fore
57 250 m 0
 57 261 69 261 95 261 c 2
 377 261 l 1
 377 544 l 2
 377 547 376 552 376 557 c 0
 376 568 378 581 388 581 c 0
 398 581 400 568 400 557 c 2
 400 261 l 1
 682 261 l 2
 685 261 690 262 696 262 c 0
 707 262 719 260 719 250 c 0
 719 240 707 238 695 238 c 0
 690 238 685 239 682 239 c 2
 400 239 l 1
 400 -58 l 2
 400 -69 398 -81 388 -81 c 0
 378 -81 376 -68 376 -57 c 0
 376 -52 377 -47 377 -44 c 2
 377 239 l 1
 95 239 l 2
 91 239 86 238 80 238 c 0
 69 238 57 240 57 250 c 0
EndSplineSet
EndChar
StartChar: comma
Encoding: 44 44 171
Width: 277
Flags: HW
TeX: 105 194 32767 32767
HStem: -193 21<109.5 118> 0 106<121.5 147>
VStem: 181 22<-31 8>
Fore
86 53 m 0
 86 79 104 106 139 106 c 0
 179 106 203 65 203 1 c 0
 203 -114 124 -193 112 -193 c 0
 107 -193 102 -189 102 -182 c 0
 102 -178 103 -177 109 -171 c 0
 153 -124 181 -63 181 1 c 0
 181 15 180 16 179 16 c 1
 177 14 l 2
 167 6 155 0 139 0 c 0
 103 0 86 27 86 53 c 0
EndSplineSet
EndChar
StartChar: hyphen
Encoding: 45 45 172
Width: 333
Flags: W
TeX: 430 0 32767 32767
HStem: 186 59<10 276>
Fore
10 186 m 1
 10 245 l 1
 276 245 l 1
 276 186 l 1
 10 186 l 1
EndSplineSet
EndChar
StartChar: period
Encoding: 46 46 173
Width: 278
Flags: HW
TeX: 105 0 32767 32767
HStem: 0 105<97.7 171.8>
VStem: 85 105<17.9 88.1>
Fore
85 53 m 0
 85 80 107 105 138 105 c 0
 165 105 190 84 190 53 c 0
 190 22 164 0 138 0 c 0
 107 0 85 26 85 53 c 0
EndSplineSet
EndChar
StartChar: slash
Encoding: 47 47 174
Width: 500
Flags: W
TeX: 749 249 32767 32767
VStem: 57 385<-236 736>
Fore
57 -236 m 0
 57 -233 57 -231 61 -220 c 2
 414 723 l 2
 417 730 421 748 432 748 c 0
 436 748 442 744 442 736 c 0
 442 732 440 727 439 723 c 2
 85 -221 l 2
 76.7804 -242.919 74 -248 66 -248 c 0
 60 -248 57 -242 57 -236 c 0
EndSplineSet
EndChar
StartChar: zero
Encoding: 48 48 175
Width: 500
Flags: HW
TeX: 641 0 32767 32767
HStem: -22 22<229.5 271.5 229.5 276> 644 22<236.5 265.5>
VStem: 39 83<302.5 360> 377 83<294.5 360 280.5 363.5>
Fore
39 320 m 0
 39 400 44 478 76 547 c 0
 117 640 190 666 250 666 c 0
 292 666 374 650 420 554 c 0
 455 480 460 400 460 320 c 0
 460 241 455 163 423 94 c 0
 379 -1 303 -22 249 -22 c 0
 200 -22 127 -2 84 79 c 0
 43 155 39 245 39 320 c 0
122 332 m 0
 122 273 122 181 133 121 c 0
 151 25 210 0 249 0 c 0
 294 0 351 30 366 125 c 0
 377 189 377 257 377 332 c 0
 377 395 377 471 367 527 c 0
 348 626 282 644 249 644 c 0
 224 644 149 635 130 516 c 0
 122 462 122 396 122 332 c 0
EndSplineSet
Substitution: 0 11 'onum' zerooldstyle
EndChar
StartChar: one
Encoding: 49 49 176
Width: 500
Flags: HW
TeX: 641 0 32767 32767
HStem: 0 31<95 127> 571 31<89 99> 646 20<271 282.5>
VStem: 220 74<79 597 597 597>
Fore
89 571 m 1
 89 602 l 1
 121 602 209 602 271 666 c 1
 294 666 294 664 294 640 c 2
 294 79 l 2
 294 42 297 31 387 31 c 2
 419 31 l 1
 419 0 l 1
 384 3 297 3 257 3 c 0
 217 3 130 3 95 0 c 1
 95 31 l 1
 127 31 l 2
 217 31 220 43 220 79 c 2
 220 597 l 1
 168 571 109 571 89 571 c 1
EndSplineSet
Substitution: 0 11 'onum' oneoldstyle
EndChar
StartChar: two
Encoding: 50 50 177
Width: 500
Flags: HW
TeX: 641 0 32767 32767
HStem: 0 77<127 307 307 318 127 421> 429 105<101.5 111.5> 635 31<195 269.5>
VStem: 50 105<461.5 495 461.5 529.5> 358 91<432 513>
Fore
50 0 m 1
 50 24 50 26 61 37 c 2
 253 251 l 2
 308 313 358 392 358 472 c 0
 358 554 315 635 224 635 c 0
 166 635 112 598 89 533 c 1
 92 534 94 534 102 534 c 0
 137 534 155 508 155 482 c 0
 155 441 120 429 103 429 c 0
 100 429 50 429 50 485 c 0
 50 574 124 666 237 666 c 0
 359 666 449 586 449 472 c 0
 449 372 389 318 233 180 c 2
 127 77 l 1
 307 77 l 2
 329 77 395 77 402 85 c 0
 412 100 419 144 424 174 c 1
 449 174 l 1
 421 0 l 1
 50 0 l 1
EndSplineSet
Substitution: 0 11 'onum' twooldstyle
EndChar
StartChar: three
Encoding: 51 51 178
Width: 500
Flags: HW
TeX: 641 0 32767 32767
HStem: -22 28<219.5 263 219.5 305> 77 116 337 23<182.5 185.5 182 191 182 235> 478 101<109 116.5 109 135.5> 641 25<224 262.5>
VStem: 42 112<118 155 118 157> 69 102<514.5 554 514.5 568> 338 92<523 569 488.5 574> 354 103<120 212 120 220>
Fore
42 135 m 0
 42 179 74 193 98 193 c 0
 127 193 154 173 154 137 c 0
 154 99 123 77 88 82 c 1
 123 23 198 6 241 6 c 0
 285 6 354 35 354 171 c 0
 354 269 317 337 235 337 c 2
 191 337 l 2xfc80
 174 337 167 337 167 348 c 0
 167 358 174 359 182 360 c 0
 189 360 213 362 221 363 c 0
 246 364 280 367 310 415 c 0
 336 459 338 517 338 529 c 0
 338 619 283 641 242 641 c 0
 206 641 140 628 109 579 c 1
 124 579 171 579 171 529 c 0
 171 500 151 478 120 478 c 0
 91 478 69 497 69 530 c 0
 69 606 145 666 246 666 c 0
 342 666 430 610 430 528 c 0
 430 449 372 379 290 352 c 1xfb
 394 331 457 253 457 171 c 0
 457 69 366 -22 244 -22 c 0
 135 -22 42 44 42 135 c 0
EndSplineSet
Substitution: 0 11 'onum' threeoldstyle
EndChar
StartChar: four
Encoding: 52 52 179
Width: 500
Flags: HW
TeX: 641 0 32767 32767
HStem: 0 31<197 218> 165 31<28 28 56 294 371 471> 657 20<350.5 363>
VStem: 294 77<78 165> 300 71<196 569 569 569>
Fore
28 165 m 1xf0
 28 196 l 1
 335 665 l 2
 343 677 346 677 355 677 c 0
 371 677 371 671 371 651 c 2
 371 196 l 1
 471 196 l 1xe8
 471 165 l 1
 371 165 l 1
 371 78 l 2
 371 42 373 31 447 31 c 2
 468 31 l 1
 468 0 l 1
 427 3 374 3 332 3 c 0
 290 3 238 3 197 0 c 1
 197 31 l 1
 218 31 l 2
 292 31 294 42 294 78 c 2
 294 165 l 1
 28 165 l 1xf0
56 196 m 1
 300 196 l 1
 300 569 l 1
 56 196 l 1
EndSplineSet
Substitution: 0 11 'onum' fouroldstyle
EndChar
StartChar: five
Encoding: 53 53 180
Width: 500
Flags: HW
TeX: 641 0 32767 32767
HStem: -22 28<192.5 252 192.5 289> 116 98<93.5 115.5> 398 22<235 283> 551 83<236 278.5>
VStem: 50 99<153 177 153 184> 101 31<369 564 369 641> 360 89<190.5 233>
Fore
50 161 m 0
 50 207 85 214 99 214 c 0
 132 214 149 189 149 165 c 0
 149 141 132 116 99 116 c 0
 88 116 85 117 82 118 c 1
 99 59 156 6 229 6 c 0
 275 6 312 32 336 71 c 0xfa
 360 113 360 173 360 208 c 0
 360 258 358 297 342 334 c 0
 334 352 309 398 257 398 c 0
 176 398 139 344 128 328 c 0
 124 322 122 319 115 319 c 0
 101 319 101 327 101 345 c 2
 101 641 l 2
 101 657 101 665 111 665 c 0
 113 665 115 665 123 662 c 0
 170 641 216 634 256 634 c 0
 323 634 372 654 392 663 c 0
 397 666 399 666 400 666 c 0
 407 666 410 661 410 655 c 0
 410 642 340 551 217 551 c 0
 185 551 152 558 132 564 c 1
 132 369 l 1
 168 404 211 420 259 420 c 0
 367 420 449 320 449 201 c 0xf6
 449 74 347 -22 231 -22 c 0
 119 -22 50 75 50 161 c 0
EndSplineSet
Substitution: 0 11 'onum' fiveoldstyle
EndChar
StartChar: six
Encoding: 54 54 181
Width: 500
Flags: HW
TeX: 641 0 32767 32767
HStem: -22 28<219.5 262.5 219.5 306.5> 404 23<223 264> 510 91<387.5 394> 641 25<281.5 319>
VStem: 42 90<328 328 328 352 328 426.5> 340 92<540.5 578.5> 367 90<181 229.5>
Fore
42 316 m 0
 42 537 177 666 305 666 c 0
 388 666 432 618 432 558 c 0
 432 519 402 510 386 510 c 0
 364 510 340 525 340 556 c 0
 340 601 380 601 395 601 c 1
 373 635 331 641 307 641 c 0
 256 641 132 605 132 352 c 2
 132 328 l 1xfc
 152 376 189 427 257 427 c 0
 368 427 457 331 457 204 c 0
 457 72 362 -22 251 -22 c 0xfa
 158 -22 42 49 42 316 c 0
134 226 m 0
 134 208 134 128 152 81 c 0
 158 66 188 6 251 6 c 0
 274 6 320 11 350 71 c 0
 367 107 367 157 367 205 c 0
 367 254 367 305 349 342 c 0
 318 404 272 404 256 404 c 0
 166 404 134 304 134 226 c 0
EndSplineSet
Substitution: 0 11 'onum' sixoldstyle
EndChar
StartChar: seven
Encoding: 55 55 182
Width: 500
Flags: HW
TeX: 641 0 32767 32767
HStem: -22 21<199 245> 567 77<197.5 485 242 411> 656 20<89 114 114 114>
VStem: 176 92<28 33 33 84>
Fore
56 470 m 1
 89 676 l 1
 114 676 l 1
 118 657 120 644 242 644 c 2
 485 644 l 1
 485 623 485 621 476 609 c 2
 341 419 l 2
 297 357 283 271 279 248 c 0
 271 194 268 139 268 84 c 2
 268 33 l 2
 268 23 268 -22 222 -22 c 0
 176 -22 176 23 176 33 c 0
 176 135 209 274 299 409 c 0
 321 442 400 551 411 567 c 1
 204 567 l 2
 191 567 113 567 106 561 c 0
 93 549 84 486 81 470 c 1
 56 470 l 1
EndSplineSet
Substitution: 0 11 'onum' sevenoldstyle
EndChar
StartChar: eight
Encoding: 56 56 183
Width: 500
Flags: HW
TeX: 641 0 32767 32767
HStem: -22 28<207 291 207 305.5> 641 25<213.5 285.5>
VStem: 42 50<109.5 180 109.5 200.5> 69 44<529.5 545.5> 386 44<488.5 553> 407 50<114.5 162.5>
Fore
42 151 m 0xe4
 42 250 128 306 186 335 c 1
 161 352 124 377 113 389 c 0
 71 436 69 481 69 499 c 0
 69 592 150 666 250 666 c 0
 341 666 430 609 430 517 c 0
 430 451 381 399 309 362 c 1
 373 322 389 312 408 291 c 0
 446 249 457 204 457 168 c 0
 457 61 362 -22 249 -22 c 0
 144 -22 42 45 42 151 c 0xe4
92 151 m 0
 92 68 164 6 250 6 c 0
 332 6 407 58 407 132 c 0
 407 193 360 223 332 242 c 0
 284 273 237 303 209 320 c 1
 124 273 92 209 92 151 c 0
113 538 m 0
 113 521 117 487 163 457 c 2xd8
 287 377 l 1
 347 412 386 460 386 517 c 0
 386 589 322 641 249 641 c 0
 178 641 113 599 113 538 c 0
EndSplineSet
Substitution: 0 11 'onum' eightoldstyle
EndChar
StartChar: nine
Encoding: 57 57 184
Width: 500
Flags: HW
TeX: 641 0 32767 32767
HStem: -22 28<196.5 234 196.5 270.5> 42 92<107 124 105 129> 218 23<235 272.5> 641 25<235.5 276>
VStem: 42 90<415.5 467 415.5 478.5> 67 92<79.5 103.5 79.5 105.5> 367 90<286 318 318 318>
Fore
42 441 m 0
 42 516 65 558 106 603 c 0
 149 648 198 666 253 666 c 0xfa
 342 666 457 598 457 329 c 0
 457 114 335 -22 206 -22 c 0
 121 -22 67 19 67 86 c 0
 67 125 97 134 113 134 c 0
 135 134 159 119 159 88 c 0
 159 71 151 42 107 42 c 1
 134 8 188 6 205 6 c 0
 263 6 367 52 367 286 c 2
 367 318 l 1xf6
 344 260 303 218 242 218 c 0
 130 218 42 316 42 441 c 0
132 440 m 0
 132 391 132 341 150 304 c 0
 181 241 227 241 243 241 c 0
 331 241 365 338 365 421 c 0
 365 467 361 530 349 562 c 0
 332 607 299 641 253 641 c 0
 218 641 180 628 153 578 c 0
 132 541 132 494 132 440 c 0
EndSplineSet
Substitution: 0 11 'onum' nineoldstyle
EndChar
StartChar: colon
Encoding: 58 58 185
Width: 277
Flags: HW
TeX: 430 0 32767 32767
HStem: 0 106<124.5 153.5> 325 106<124.5 153.5>
VStem: 86 106<38.5 67.5 363.5 392.5>
Fore
86 53 m 0
 86 82 110 106 139 106 c 0
 168 106 192 82 192 53 c 0
 192 24 168 0 139 0 c 0
 110 0 86 24 86 53 c 0
86 378 m 0
 86 407 110 431 139 431 c 0
 168 431 192 407 192 378 c 0
 192 349 168 325 139 325 c 0
 110 325 86 349 86 378 c 0
EndSplineSet
EndChar
StartChar: less
Encoding: 60 60 187
Width: 778
Flags: HW
TeX: 533 39 32767 32767
Fore
85 250 m 1
 86 259 95 263 101 266 c 2
 656 519 l 2
 664 523 673 529 681 529 c 0
 686 529 691 525 691 519 c 0
 691 510 680 506 668 500 c 2
 180 276 l 2
 161 268 142 259 122 250 c 1
 142 241 161 232 180 224 c 2
 668 0 l 2
 686 -8 691 -11 691 -19 c 0
 691 -25 686 -29 681 -29 c 0
 673 -29 664 -23 656 -19 c 2
 101 234 l 2
 95 237 86 241 85 250 c 1
EndSplineSet
EndChar
StartChar: equal
Encoding: 61 61 188
Width: 778
Flags: HW
TeX: 366 -133 32767 32767
HStem: 141 23<57.2842 713.357> 336 23<56.5387 712.47>
Fore
57 152 m 1
 59 164 68 164 77 164 c 2
 690 164 l 2
 703 164 719 165 719 153 c 0
 719 141 703 141 692 141 c 2
 84 141 l 2
 73 141 57 142 57 152 c 1
57 347 m 0
 57 352 60 359 78 359 c 2
 689 359 l 2
 702 358 719 359 719 347 c 0
 719 336 705 336 694 336 c 2
 77 336 l 2
 68 336 57 337 57 347 c 0
EndSplineSet
EndChar
StartChar: greater
Encoding: 62 62 189
Width: 778
Flags: HW
TeX: 533 39 32767 32767
Fore
85 -19 m 0
 85 -11 91 -8 109 0 c 2
 597 224 l 2
 616 232 635 241 655 250 c 1
 635 259 616 268 597 276 c 2
 109 500 l 2
 98.0186 505.041 85 510 85 519 c 0
 85 524 90 529 96 529 c 0
 104 529 113 523 121 519 c 2
 676 266 l 2
 681 263 692 259 692 250 c 0
 691 241 684 238 663 228 c 2
 121 -19 l 2
 113 -23 103 -29 96 -29 c 0
 90 -29 85 -25 85 -19 c 0
EndSplineSet
EndChar
StartChar: question
Encoding: 63 63 190
Width: 472
Flags: HW
TeX: 688 0 32767 32767
HStem: 0 106<207.5 236.5> 187 21<216 228.5> 524 91<92 99 92 116> 683 22<202 277.5>
VStem: 56 92<557 592.5 557 604.5> 169 106<38.5 67.5> 210 25<211 214 214 249> 332 83<549 595.5>
Fore
56 572 m 0
 56 637 118 705 226 705 c 0
 375 705 415 628 415 570 c 0
 415 528 394 492 367 472 c 0
 332 446 235 375 235 249 c 2xfb
 235 214 l 2
 235 196 235 187 222 187 c 0
 210 187 210 193 210 211 c 2
 210 256 l 2
 210 317 232 409 298 481 c 0
 316 499 332 517 332 576 c 0
 332 615 332 683 223 683 c 0
 181 683 123 668 92 615 c 1
 106 615 148 615 148 570 c 0
 148 544 130 524 102 524 c 0
 79 524 56 538 56 572 c 0
169 53 m 0
 169 82 193 106 222 106 c 0
 251 106 275 82 275 53 c 0xfd
 275 24 251 0 222 0 c 0
 193 0 169 24 169 53 c 0
EndSplineSet
EndChar
StartChar: at
Encoding: 64 64 191
Width: 777
Flags: HW
TeX: 688 0 32767 32767
HStem: -11 22<302 420> 128 22<354 400 354 414 605.5 656> 461 20<547 564 564 575.5> 544 22<353.5 406> 683 22<306 456.5>
VStem: 56 25<257.5 442.5 257.5 446.5> 189 69<291.5 402.5 291.5 410> 519 69<262 432 432 441> 696 25<286 452.5>
Fore
56 347 m 0
 56 546 206 705 389 705 c 0
 550 705 721 572 721 338 c 0
 721 231 707 128 619 128 c 0
 581 128 529 147 519 199 c 1
 489 157 441 128 387 128 c 0
 284 128 189 221 189 347 c 0
 189 473 284 566 387 566 c 0
 426 566 478 552 524 489 c 0
 530 482 531 481 547 481 c 2
 564 481 l 2
 587 481 588 480 588 457 c 2
 588 216 l 2
 588 201 588 150 623 150 c 0
 689 150 696 240 696 332 c 0
 696 573 525 683 388 683 c 0
 224 683 81 538 81 347 c 0
 81 168 211 11 393 11 c 0
 487 11 580 35 665 75 c 0
 670 78 672 78 688 78 c 2
 697 78 l 2
 713 78 720 78 720 68 c 0
 720 52 600 17 574 11 c 0
 510 -4 446 -11 394 -11 c 0
 194 -11 56 159 56 347 c 0
258 347 m 0
 258 236 318 150 390 150 c 0
 410 150 461 156 505 219 c 0
 519 240 519 244 519 262 c 2
 519 432 l 2
 519 450 519 453 506 472 c 0
 470 528 422 544 390 544 c 0
 317 544 258 458 258 347 c 0
EndSplineSet
EndChar
StartChar: A
Encoding: 65 65 192
Width: 750
Flags: HW
TeX: 688 0 32767 32767
HStem: 0 31<32 32> 228 31<233 458 233 469 222 458> 696 20<351 383 367 398>
VStem: 32 685<0 31 0 31>
AnchorPoint: "below" 374 0 basechar 0
AnchorPoint: "above" 375 705 basechar 0
Fore
32 0 m 1
 32 31 l 1
 86 32 126 47 144 98 c 2
 351 696 l 2
 356 710 359 716 375 716 c 0
 391 716 393 709 398 696 c 2
 614 71 l 2
 625 38 639 31 699 31 c 2
 717 31 l 1
 717 0 l 1
 675 2 629 3 586 3 c 0
 548 3 478 3 442 0 c 1
 442 31 l 1
 469 31 525 31 525 61 c 0
 525 65 523 71 522 75 c 2
 469 228 l 1
 222 228 l 1
 176 97 l 2
 175 95 174 85 174 82 c 0
 174 56 199 31 249 31 c 1
 249 0 l 1
 217 1 165 3 134 3 c 0
 98 3 55 1 32 0 c 1
233 259 m 1
 458 259 l 1
 345 584 l 1
 233 259 l 1
EndSplineSet
KernsSLIFO: 2081 -28 11 0 2080 -28 11 0 2079 -28 11 0 214 -111 11 0 213 -111 11 0 348 -83 11 0 279 -83 11 0 216 -83 11 0 276 -83 11 0 275 -83 11 0 211 -83 11 0 347 -28 11 0 346 -28 11 0 345 -28 11 0 344 -28 11 0 278 -28 11 0 277 -28 11 0 212 -28 11 0 343 -28 11 0 342 -28 11 0 341 -28 11 0 340 -28 11 0 339 -28 11 0 338 -28 11 0 337 -28 11 0 269 -28 11 0 206 -28 11 0 208 -28 11 0 326 -28 11 0 262 -28 11 0 258 -28 11 0 257 -28 11 0 198 -28 11 0 194 -28 11 0 308 -28 11 0 307 -28 11 0 243 -28 11 0 240 -28 11 0 375 -28 11 0 374 -28 11 0 373 -28 11 0 372 -28 11 0 371 -28 11 0 370 -28 11 0 369 -28 11 0 301 -28 11 0 238 -28 11 0 362 -28 11 0 361 -28 11 0 360 -28 11 0 359 -28 11 0 293 -28 11 0 292 -28 11 0 228 -28 11 0 367 -28 11 0 285 -28 11 0 291 -28 11 0 227 -28 11 0 358 -28 11 0 290 -28 11 0 289 -28 11 0 226 -28 11 0 246 -83 11 0 245 -111 11 0 380 -83 11 0 311 -83 11 0 248 -83 11 0
Substitution: 0 12 'c2sc' A.sc
EndChar
StartChar: B
Encoding: 66 66 193
Width: 708
Flags: HW
TeX: 688 0 32767 32767
HStem: 0 31<36 60 60 98.5 271 396 396 428 36 60> 344 22<222 367 367 410 222 367> 652 31<36 60 36 402 247.5 271 271 395>
VStem: 139 83<78 344 366 605 605 612> 527 97<482 540.5> 551 100<148.5 217.5>
AnchorPoint: "below" 322 0 basechar 0
AnchorPoint: "above" 322 705 basechar 0
Fore
36 0 m 1
 36 31 l 1
 60 31 l 2xf4
 137 31 139 42 139 78 c 2
 139 605 l 2
 139 641 137 652 60 652 c 2
 36 652 l 1
 36 683 l 1
 402 683 l 2
 532 683 624 601 624 514 c 0
 624 440 555 376 458 357 c 1
 569 345 651 270 651 183 c 0
 651 89 561 0 428 0 c 2
 36 0 l 1
222 71 m 2
 222 38 224 31 271 31 c 2
 396 31 l 2
 499 31 551 113 551 184 c 0
 551 251 509 344 410 344 c 2
 222 344 l 1
 222 71 l 2
222 366 m 1xf8
 367 366 l 2
 478 366 527 450 527 514 c 0
 527 567 492 652 395 652 c 2
 271 652 l 2
 224 652 222 645 222 612 c 2
 222 366 l 1xf8
EndSplineSet
Substitution: 0 12 'c2sc' B.sc
EndChar
StartChar: C
Encoding: 67 67 194
Width: 722
Flags: HW
TeX: 688 0 32767 32767
HStem: -22 31<385.5 470.5 385.5 485.5> 674 31<384.5 452 310.5 469.5>
VStem: 56 103<238.5 444> 635 30
AnchorPoint: "below" 404 0 basechar 0
AnchorPoint: "above" 404 705 basechar 0
Fore
56 342 m 0
 56 546 217 705 404 705 c 0
 500 705 551 655 588 619 c 1
 638 693 l 2
 646 705 650 705 654 705 c 0
 665 705 665 698 665 681 c 2
 665 444 l 2
 665 423 665 420 649 420 c 0
 635 420 635 423 633 437 c 0
 613 583 524 674 415 674 c 0
 354 674 159 640 159 341 c 0
 159 43 355 9 416 9 c 0
 525 9 632 91 640 234 c 0
 641 244 641 250 652 250 c 0
 665 250 665 243 665 233 c 0
 665 117 567 -22 404 -22 c 0
 218 -22 56 135 56 342 c 0
EndSplineSet
Substitution: 0 12 'c2sc' C.sc
EndChar
StartChar: D
Encoding: 68 68 195
Width: 763
Flags: HW
TeX: 688 0 32767 32767
HStem: 0 31<35 59 59 97.5 273 374 374 401 35 59> 652 31<35 59 35 401 249.5 273 273 373>
VStem: 138 86<78 605 605 612> 607 100<280.5 375>
AnchorPoint: "below" 349 0 basechar 0
AnchorPoint: "above" 349 705 basechar 0
Fore
35 0 m 1
 35 31 l 1
 59 31 l 2
 136 31 138 42 138 78 c 2
 138 605 l 2
 138 641 136 652 59 652 c 2
 35 652 l 1
 35 683 l 1
 401 683 l 2
 572 683 707 526 707 336 c 0
 707 148 569 0 401 0 c 2
 35 0 l 1
224 71 m 2
 224 38 226 31 273 31 c 2
 374 31 l 2
 475 31 532 89 552 116 c 0
 588 165 607 225 607 336 c 0
 607 414 598 500 555 559 c 0
 504 630 435 652 373 652 c 2
 273 652 l 2
 226 652 224 645 224 612 c 2
 224 71 l 2
EndSplineSet
KernsSLIFO: 348 -28 11 0 279 -28 11 0 216 -28 11 0 213 -28 11 0 325 -28 11 0 324 -28 11 0 323 -28 11 0 322 -28 11 0 321 -28 11 0 320 -28 11 0 319 -28 11 0 256 -28 11 0 255 -28 11 0 192 -28 11 0 214 -28 11 0 215 -28 11 0
Substitution: 0 12 'c2sc' D.sc
EndChar
StartChar: E
Encoding: 69 69 196
Width: 680
Flags: HW
TeX: 688 0 32767 32767
HStem: 0 31<33 57 57 95.5 274 407 407 493 33 57> 338 31<225 315 225 315> 649 34
VStem: 136 89<78 338 369 602 602 609> 423 25<221 263.5 443 486>
AnchorPoint: "ogonek" 342 0 basechar 0
AnchorPoint: "below" 342 0 basechar 0
AnchorPoint: "above" 342 705 basechar 0
Fore
33 0 m 1
 33 31 l 1
 57 31 l 2
 134 31 136 42 136 78 c 2
 136 602 l 2
 136 638 134 649 57 649 c 2
 33 649 l 1
 33 680 l 1
 596 680 l 1
 624 455 l 1
 599 455 l 1
 583 594 556 649 403 649 c 2
 274 649 l 2
 227 649 225 642 225 609 c 2
 225 369 l 1
 315 369 l 2
 412 369 423 400 423 486 c 1
 448 486 l 1
 448 221 l 1
 423 221 l 1
 423 306 412 338 315 338 c 2
 225 338 l 1
 225 71 l 2
 225 38 227 31 274 31 c 2
 407 31 l 2
 579 31 602 104 627 258 c 1
 652 258 l 1
 610 0 l 1
 33 0 l 1
EndSplineSet
Substitution: 0 12 'c2sc' E.sc
EndChar
StartChar: F
Encoding: 70 70 197
Width: 652
Flags: HW
TeX: 688 0 32767 32767
HStem: 0 31<33 57> 325 31<225 311 225 311> 649 34
VStem: 136 89<78 79 79 325 356 602 602 609> 417 25<208 250.5 431 473> 585 25<455 455>
AnchorPoint: "below" 322 0 basechar 0
AnchorPoint: "above" 322 705 basechar 0
Fore
33 0 m 1
 33 31 l 1
 57 31 l 2
 134 31 136 42 136 78 c 2
 136 602 l 2
 136 638 134 649 57 649 c 2
 33 649 l 1
 33 680 l 1
 582 680 l 1
 610 455 l 1
 585 455 l 1
 569 593 544 649 394 649 c 2
 274 649 l 2
 227 649 225 642 225 609 c 2
 225 356 l 1
 311 356 l 2
 407 356 417 389 417 473 c 1
 442 473 l 1
 442 208 l 1
 417 208 l 1
 417 293 407 325 311 325 c 2
 225 325 l 1
 225 79 l 2
 225 44 225 31 320 31 c 2
 353 31 l 1
 353 0 l 1
 317 3 226 3 185 3 c 0
 146 3 68 3 33 0 c 1
EndSplineSet
KernsSLIFO: 2080 -83 11 0 2079 -83 11 0 208 -28 11 0 326 -28 11 0 262 -28 11 0 258 -28 11 0 257 -28 11 0 198 -28 11 0 194 -28 11 0 343 -28 11 0 342 -28 11 0 341 -28 11 0 340 -28 11 0 339 -28 11 0 338 -28 11 0 337 -28 11 0 269 -28 11 0 206 -28 11 0 325 -111 11 0 324 -111 11 0 323 -111 11 0 322 -111 11 0 321 -111 11 0 320 -111 11 0 319 -111 11 0 256 -111 11 0 255 -111 11 0 192 -111 11 0 375 -83 11 0 357 -83 11 0 249 -83 11 0 246 -83 11 0 239 -83 11 0 237 -83 11 0 236 -83 11 0 230 -83 11 0 227 -83 11 0 226 -83 11 0 242 -83 11 0 245 -83 11 0 241 -83 11 0 244 -83 11 0 248 -83 11 0 228 -83 11 0 224 -83 11 0 238 -83 11 0
Substitution: 0 12 'c2sc' F.sc
EndChar
StartChar: G
Encoding: 71 71 198
Width: 784
Flags: HW
TeX: 688 0 32767 32767
HStem: -22 31<389.5 436 389.5 442.5> 0 20 242 31<452 484 452 452> 674 31<386 453.5 311 469.5>
VStem: 56 103<239.5 444.5> 577 89<130 194 194 198> 634 32
AnchorPoint: "below" 406 0 basechar 0
AnchorPoint: "above" 403 705 basechar 0
Fore
56 342 m 0
 56 547 218 705 404 705 c 0
 503 705 557 651 589 619 c 1
 639 693 l 2
 647 705 651 705 655 705 c 0
 666 705 666 698 666 681 c 2
 666 444 l 2
 666 423 666 420 650 420 c 0
 636 420 636 423 634 437 c 0
 614 584 523 674 416 674 c 0
 356 674 159 641 159 342 c 0
 159 44 357 9 422 9 c 0xba
 450 9 577 18 577 130 c 2
 577 194 l 2
 577 231 574 242 484 242 c 2
 452 242 l 1
 452 273 l 1
 488 270 573 270 613 270 c 0
 643 270 698 272 735 273 c 1
 735 242 l 1
 670 242 666 237 666 198 c 2
 666 24 l 2
 666 9 666 1 657 1 c 0
 646 1 606 41 593 63 c 1x7c
 559 4 479 -22 406 -22 c 0
 216 -22 56 137 56 342 c 0
EndSplineSet
Substitution: 0 12 'c2sc' G.sc
EndChar
StartChar: H
Encoding: 72 72 199
Width: 750
Flags: HW
TeX: 688 0 32767 32767
HStem: 0 31<33 57> 340 31<225 524 225 524> 652 31<33 57 33 33>
VStem: 136 89<78 340 371 605> 524 89<78 340 340 340 371 605>
AnchorPoint: "below" 374 0 basechar 0
AnchorPoint: "above" 374 705 basechar 0
Fore
33 0 m 1
 33 31 l 1
 57 31 l 2
 134 31 136 42 136 78 c 2
 136 605 l 2
 136 641 134 652 57 652 c 2
 33 652 l 1
 33 683 l 1
 68 680 143 680 181 680 c 0
 219 680 293 680 328 683 c 1
 328 652 l 1
 304 652 l 2
 227 652 225 641 225 605 c 2
 225 371 l 1
 524 371 l 1
 524 605 l 2
 524 641 522 652 445 652 c 2
 421 652 l 1
 421 683 l 1
 456 680 531 680 569 680 c 0
 607 680 681 680 716 683 c 1
 716 652 l 1
 692 652 l 2
 615 652 613 641 613 605 c 2
 613 78 l 2
 613 42 615 31 692 31 c 2
 716 31 l 1
 716 0 l 1
 681 3 606 3 568 3 c 0
 530 3 456 3 421 0 c 1
 421 31 l 1
 445 31 l 2
 522 31 524 42 524 78 c 2
 524 340 l 1
 225 340 l 1
 225 78 l 2
 225 42 227 31 304 31 c 2
 328 31 l 1
 328 0 l 1
 293 3 218 3 180 3 c 0
 142 3 68 3 33 0 c 1
EndSplineSet
Substitution: 0 12 'c2sc' H.sc
EndChar
StartChar: I
Encoding: 73 73 200
Width: 361
Flags: HW
TeX: 688 0 32767 32767
HStem: 0 31<28 54> 652 31<28 54 28 28>
VStem: 136 89<78 605>
AnchorPoint: "ogonek" 180 0 basechar 0
AnchorPoint: "below" 180 0 basechar 0
AnchorPoint: "above" 180 705 basechar 0
Fore
28 0 m 1
 28 31 l 1
 54 31 l 2
 133 31 136 42 136 78 c 2
 136 605 l 2
 136 641 133 652 54 652 c 2
 28 652 l 1
 28 683 l 1
 63 680 142 680 181 680 c 0
 219 680 298 680 333 683 c 1
 333 652 l 1
 307 652 l 2
 228 652 225 641 225 605 c 2
 225 78 l 2
 225 42 228 31 307 31 c 2
 333 31 l 1
 333 0 l 1
 298 3 219 3 180 3 c 0
 142 3 63 3 28 0 c 1
EndSplineSet
KernsSLIFO: 1776 28 11 0 200 28 11 0
Substitution: 0 12 'c2sc' I.sc
EndChar
StartChar: J
Encoding: 74 74 201
Width: 513
Flags: HW
TeX: 688 0 32767 32767
HStem: -22 22<196 225.5 196 252> 58 112<89 111 86 115> 652 31<168 204 168 168>
VStem: 41 112<101 132 101 134> 302 86<150 167 167 604 604 611>
AnchorPoint: "below" 253 0 basechar 0
AnchorPoint: "above" 345 705 basechar 0
Fore
41 112 m 0
 41 156 75 170 97 170 c 0
 125 170 153 150 153 114 c 0
 153 88 141 58 89 58 c 1
 125 0 193 0 199 0 c 0
 252 0 302 56 302 148 c 2
 302 604 l 2
 302 639 302 652 204 652 c 2
 168 652 l 1
 168 683 l 1
 206 680 294 680 336 680 c 0
 383 680 421 681 465 683 c 1
 465 652 l 1
 402 652 388 652 388 611 c 2
 388 167 l 2
 388 133 388 131 387 123 c 0
 376 48 303 -22 201 -22 c 0
 112 -22 41 38 41 112 c 0
EndSplineSet
Substitution: 0 12 'c2sc' J.sc
EndChar
StartChar: K
Encoding: 75 75 202
Width: 777
Flags: HW
TeX: 688 0 32767 32767
HStem: 0 31<33 57> 652 31<33 57 33 33>
VStem: 136 89<78 253 287 605>
AnchorPoint: "below" 384 0 basechar 0
AnchorPoint: "above" 384 705 basechar 0
Fore
33 0 m 1
 33 31 l 1
 57 31 l 2
 134 31 136 42 136 78 c 2
 136 605 l 2
 136 641 134 652 57 652 c 2
 33 652 l 1
 33 683 l 1
 68 680 143 680 181 680 c 0
 219 680 293 680 328 683 c 1
 328 652 l 1
 304 652 l 2
 227 652 225 641 225 605 c 2
 225 287 l 1
 538 586 l 2
 546 593 556 603 556 619 c 0
 556 628 550 651 510 652 c 1
 510 683 l 1
 544 680 601 680 637 680 c 0
 664 680 696 680 722 683 c 1
 722 652 l 1
 641 651 588 600 580 592 c 2
 400 419 l 1
 631 79 l 2
 661 35 682 31 736 31 c 1
 736 0 l 1
 694 2 656 3 621 3 c 0
 583 3 513 3 478 0 c 1
 478 31 l 1
 498 31 537 31 537 61 c 0
 537 73 528 86 522 95 c 2
 341 363 l 1
 225 253 l 1
 225 78 l 2
 225 42 227 31 304 31 c 2
 328 31 l 1
 328 0 l 1
 293 3 218 3 180 3 c 0
 142 3 68 3 33 0 c 1
EndSplineSet
KernsSLIFO: 208 -28 11 0 326 -28 11 0 262 -28 11 0 258 -28 11 0 257 -28 11 0 198 -28 11 0 194 -28 11 0 375 -28 11 0 374 -28 11 0 373 -28 11 0 372 -28 11 0 371 -28 11 0 370 -28 11 0 369 -28 11 0 301 -28 11 0 238 -28 11 0 246 -28 11 0 245 -83 11 0
Substitution: 0 12 'c2sc' K.sc
EndChar
StartChar: L
Encoding: 76 76 203
Width: 625
Flags: HW
TeX: 688 0 32767 32767
HStem: 0 31<33 57 57 95.5 274 356 356 444 33 57> 238 20<557 582 582 582> 652 31<33 57 33 33>
VStem: 136 89<78 604> 557 25<258 258>
AnchorPoint: "below" 308 0 basechar 0
AnchorPoint: "above" 308 705 basechar 0
Fore
33 0 m 1
 33 31 l 1
 57 31 l 2
 134 31 136 42 136 78 c 2
 136 605 l 2
 136 641 134 652 57 652 c 2
 33 652 l 1
 33 683 l 1
 68 680 146 680 185 680 c 0
 226 680 317 680 353 683 c 1
 353 652 l 1
 320 652 l 2
 225 652 225 638 225 604 c 2
 225 71 l 2
 225 38 227 31 274 31 c 2
 356 31 l 2
 532 31 546 156 557 258 c 1
 582 258 l 1
 554 0 l 1
 33 0 l 1
EndSplineSet
KernsSLIFO: 214 -111 11 0 213 -111 11 0 348 -83 11 0 279 -83 11 0 216 -83 11 0 276 -83 11 0 275 -83 11 0 211 -83 11 0
Substitution: 0 12 'c2sc' L.sc
EndChar
StartChar: M
Encoding: 77 77 204
Width: 916
Flags: HW
TeX: 688 0 32767 32767
HStem: 0 31<37 88.5> 652 31<37 61 37 206 816.5 855 855 879>
VStem: 140 28<105 605 605 623> 695 81<78 605>
AnchorPoint: "below" 458 0 basechar 0
AnchorPoint: "above" 458 705 basechar 0
Fore
37 0 m 1
 37 31 l 1
 140 31 140 78 140 105 c 2
 140 605 l 2
 140 641 138 652 61 652 c 2
 37 652 l 1
 37 683 l 1
 206 683 l 2
 229 683 232 683 241 661 c 2
 458 101 l 1
 677 664 l 2
 684 682 684 683 710 683 c 2
 879 683 l 1
 879 652 l 1
 855 652 l 2
 778 652 776 641 776 605 c 2
 776 78 l 2
 776 42 778 31 855 31 c 2
 879 31 l 1
 879 0 l 1
 842 3 775 3 736 3 c 0
 697 3 629 3 592 0 c 1
 592 31 l 1
 616 31 l 2
 693 31 695 42 695 78 c 2
 695 652 l 1
 694 652 l 1
 448 19 l 2
 444 8 441 0 430 0 c 0
 420 0 415 9 410 22 c 2
 169 644 l 1
 168 644 l 1
 168 105 l 2
 168 78 168 31 271 31 c 1
 271 0 l 1
 236 1 187 3 154 3 c 0
 121 3 72 1 37 0 c 1
EndSplineSet
Substitution: 0 12 'c2sc' M.sc
EndChar
StartChar: N
Encoding: 78 78 205
Width: 750
Flags: HW
TeX: 688 0 32767 32767
HStem: 0 31<33 84.5> 652 31<33 62 33 203>
VStem: 136 28<105 625> 585 28<151 578>
AnchorPoint: "below" 374 0 basechar 0
AnchorPoint: "above" 374 705 basechar 0
Fore
33 0 m 1
 33 31 l 1
 136 31 136 78 136 105 c 2
 136 627 l 2
 136 646 135 647 112 650 c 0
 97 651 77 652 62 652 c 2
 33 652 l 1
 33 683 l 1
 203 683 l 2
 222 683 223 682 232 670 c 2
 585 151 l 1
 585 578 l 2
 585 605 585 652 482 652 c 1
 482 683 l 1
 517 682 566 680 599 680 c 0
 632 680 681 682 716 683 c 1
 716 652 l 1
 613 652 613 605 613 578 c 2
 613 26 l 2
 613 7 613 0 599 0 c 0
 592 0 591 1 582 13 c 2
 174 613 l 2
 170 619 169 620 164 625 c 1
 164 105 l 2
 164 78 164 31 267 31 c 1
 267 0 l 1
 232 1 183 3 150 3 c 0
 117 3 68 1 33 0 c 1
EndSplineSet
Substitution: 0 12 'c2sc' N.sc
EndChar
StartChar: O
Encoding: 79 79 206
Width: 777
Flags: HW
TeX: 688 0 32767 32767
HStem: -22 26<341 435 341 479> 680 25<346.5 431.5>
VStem: 56 103<236.5 442> 618 103<238 441 238 481>
AnchorPoint: "ogonek" 388 0 basechar 0
AnchorPoint: "below" 388 0 basechar 0
AnchorPoint: "above" 388 705 basechar 0
Fore
56 339 m 0
 56 545 209 705 388 705 c 0
 570 705 721 543 721 339 c 0
 721 137 570 -22 388 -22 c 0
 210 -22 56 134 56 339 c 0
159 353 m 0
 159 92 293 4 389 4 c 0
 481 4 618 88 618 353 c 0
 618 609 475 680 388 680 c 0
 305 680 159 612 159 353 c 0
EndSplineSet
KernsSLIFO: 348 -28 11 0 279 -28 11 0 216 -28 11 0 213 -28 11 0 325 -28 11 0 324 -28 11 0 323 -28 11 0 322 -28 11 0 321 -28 11 0 320 -28 11 0 319 -28 11 0 256 -28 11 0 255 -28 11 0 192 -28 11 0 214 -28 11 0 215 -28 11 0
Substitution: 0 12 'c2sc' O.sc
EndChar
StartChar: P
Encoding: 80 80 207
Width: 680
Flags: HW
TeX: 688 0 32767 32767
HStem: 0 31<35 59> 316 26<227 227 227 362 362 396> 652 31<35 59 35 388 249.5 273 273 362>
VStem: 138 86<342 342 342 605 605 612> 521 103<473.5 521.5>
AnchorPoint: "below" 308 0 basechar 0
AnchorPoint: "above" 308 705 basechar 0
Fore
35 0 m 1
 35 31 l 1
 59 31 l 2
 136 31 138 42 138 78 c 2
 138 605 l 2
 138 641 136 652 59 652 c 2
 35 652 l 1
 35 683 l 1
 388 683 l 2
 525 683 624 595 624 497 c 0
 624 397 516 316 396 316 c 2
 227 316 l 1
 227 78 l 2
 227 42 229 31 306 31 c 2
 330 31 l 1
 330 0 l 1
 295 3 220 3 182 3 c 0
 144 3 70 3 35 0 c 1
224 342 m 1
 362 342 l 2
 521 342 521 450 521 497 c 0
 521 546 521 652 362 652 c 2
 273 652 l 2
 226 652 224 645 224 612 c 2
 224 342 l 1
EndSplineSet
KernsSLIFO: 171 -83 11 0 173 -83 11 0 357 -28 11 0 356 -28 11 0 355 -28 11 0 354 -28 11 0 353 -28 11 0 352 -28 11 0 351 -28 11 0 288 -28 11 0 287 -28 11 0 224 -28 11 0 362 -28 11 0 361 -28 11 0 360 -28 11 0 359 -28 11 0 293 -28 11 0 292 -28 11 0 228 -28 11 0 375 -28 11 0 374 -28 11 0 373 -28 11 0 372 -28 11 0 371 -28 11 0 370 -28 11 0 369 -28 11 0 301 -28 11 0 238 -28 11 0 325 -83 11 0 324 -83 11 0 323 -83 11 0 322 -83 11 0 321 -83 11 0 320 -83 11 0 319 -83 11 0 256 -83 11 0 255 -83 11 0 192 -83 11 0
Substitution: 0 12 'c2sc' P.sc
EndChar
StartChar: Q
Encoding: 81 81 208
Width: 777
Flags: HW
TeX: 688 194 32767 32767
HStem: -194 103<590.5 635.5 590.5 657> -22 25<363.5 400 363.5 404.5> 126 22<370.5 417> 680 25<342 436.5>
VStem: 56 100<238 442> 308 22<56.5 78.5 56.5 84.5> 621 100<300 441 263.5 466.5>
AnchorPoint: "below" 388 -194 basechar 0
AnchorPoint: "above" 388 705 basechar 0
Fore
56 339 m 0
 56 545 209 705 388 705 c 0
 570 705 721 543 721 339 c 0
 721 188 636 60 518 7 c 1
 542 -57 567 -91 614 -91 c 0
 657 -91 699 -61 705 -7 c 0
 706 3 707 11 716 11 c 0
 727 11 727 0 727 -10 c 0
 727 -61 708 -194 606 -194 c 0
 513 -194 499 -102 484 -7 c 1
 455 -16 420 -22 389 -22 c 0
 207 -22 56 137 56 339 c 0
156 339 m 0
 156 109 268 36 322 16 c 1
 321 18 308 37 308 64 c 0
 308 105 339 148 390 148 c 0
 449 148 481 98 503 42 c 1
 609 120 621 261 621 339 c 0
 621 594 485 680 388 680 c 0
 296 680 156 599 156 339 c 0
330 64 m 0
 330 49 338 3 389 3 c 0
 411 3 443 7 477 26 c 1
 466 84 444 126 390 126 c 0
 351 126 330 93 330 64 c 0
EndSplineSet
Substitution: 0 12 'c2sc' Q.sc
EndChar
StartChar: R
Encoding: 82 82 209
Width: 736
Flags: HW
TeX: 688 0 32767 32767
HStem: -22 22<622 653.5> 0 31<35 59> 331 22<224 335 335 339 224 335> 652 31<35 59 35 349 295 349 349 350>
VStem: 138 86<78 331 353 605 605 612> 470 113 507 103<468.5 551 464 575.5> 706 26
AnchorPoint: "below" 308 0 basechar 0
AnchorPoint: "above" 308 705 basechar 0
Fore
35 0 m 1
 35 31 l 1
 59 31 l 2
 136 31 138 42 138 78 c 2
 138 605 l 2
 138 641 136 652 59 652 c 2
 35 652 l 1
 35 683 l 1
 349 683 l 2
 496 683 610 599 610 503 c 0
 610 425 532 364 435 340 c 1
 490 321 539 288 557 224 c 2
 570 144 l 2
 584 51 592 0 641 0 c 0
 666 0 701 18 707 89 c 0
 708 96 708 105 719 105 c 0
 732 105 732 94 732 88 c 0
 732 60 715 -22 637 -22 c 0
 607 -22 552 -16 511 20 c 0
 470 58 470 98 470 163 c 0
 470 230 470 261 432 297 c 0
 397 331 355 331 339 331 c 2xbd
 224 331 l 1
 224 78 l 2
 224 42 226 31 303 31 c 2
 327 31 l 1
 327 0 l 1
 291 3 220 3 181 3 c 0
 142 3 71 3 35 0 c 1
224 353 m 1x7a
 335 353 l 2
 483 353 507 434 507 503 c 0
 507 648 395 652 305 652 c 0
 285 652 256 652 246 650 c 0
 224 647 224 635 224 612 c 2
 224 353 l 1x7a
EndSplineSet
KernsSLIFO: 2081 -28 11 0 214 -111 11 0 213 -111 11 0 348 -83 11 0 279 -83 11 0 216 -83 11 0 276 -83 11 0 275 -83 11 0 211 -83 11 0 347 -28 11 0 346 -28 11 0 345 -28 11 0 344 -28 11 0 278 -28 11 0 277 -28 11 0 212 -28 11 0 343 -28 11 0 342 -28 11 0 341 -28 11 0 340 -28 11 0 339 -28 11 0 338 -28 11 0 337 -28 11 0 269 -28 11 0 206 -28 11 0 208 -28 11 0 326 -28 11 0 262 -28 11 0 258 -28 11 0 257 -28 11 0 198 -28 11 0 194 -28 11 0 308 -28 11 0 307 -28 11 0 243 -28 11 0
Substitution: 0 12 'c2sc' R.sc
EndChar
StartChar: S
Encoding: 83 83 210
Width: 555
Flags: HW
TeX: 688 0 32767 32767
HStem: -22 31<286.5 343 286.5 360.5> 677 28<213 295.5 195.5 335.5>
VStem: 56 26<-9 202> 56 64<517 564> 435 64<131 168.5> 446 26
AnchorPoint: "below" 302 0 basechar 0
AnchorPoint: "above" 251 705 basechar 0
Fore
56 2 m 2
 56 202 l 2
 56 220 56 227 69 227 c 0
 72 227 80 227 81 217 c 0
 82 181 85 117 143 63 c 0
 196 14 272 9 301 9 c 0
 385 9 435 81 435 152 c 0
 435 185 425 218 404 244 c 0xe8
 376 281 346 288 319 295 c 0
 249 312 198 324 187 328 c 0
 109 355 56 428 56 511 c 0
 56 617 140 705 251 705 c 0
 340 705 381 664 411 635 c 1
 446 692 l 2
 453 704 454 705 461 705 c 0
 472 705 472 698 472 681 c 2
 472 480 l 2
 472 461 472 456 459 456 c 0
 448 456 448 462 447 468 c 0
 441 513 419 677 252 677 c 0
 174 677 120 616 120 546 c 0
 120 488 159 434 221 419 c 2
 349 388 l 2xd4
 433 368 499 286 499 186 c 0
 499 76 419 -22 302 -22 c 0
 213 -22 149 14 118 48 c 1
 85 -5 82 -8 82 -9 c 1
 75 -20 74 -22 67 -22 c 0
 56 -22 56 -15 56 2 c 2
EndSplineSet
Substitution: 0 12 'c2sc' S.sc
EndChar
StartChar: T
Encoding: 84 84 211
Width: 722
Flags: HW
TeX: 688 0 32767 32767
HStem: 0 31<171 211> 452 21<36 61 36 36 660 685 660 660> 646 37
VStem: 36 25<452 452> 316 89<79 606> 660 25<452 452>
AnchorPoint: "below" 360 0 basechar 0
AnchorPoint: "above" 360 705 basechar 0
Fore
36 452 m 1
 55 677 l 1
 666 677 l 1
 685 452 l 1
 660 452 l 1
 646 613 631 646 480 646 c 0
 461 646 434 646 423 644 c 0
 405 640 405 626 405 606 c 2
 405 79 l 2
 405 45 405 31 510 31 c 2
 550 31 l 1
 550 0 l 1
 509 3 406 3 360 3 c 0
 314 3 212 3 171 0 c 1
 171 31 l 1
 211 31 l 2
 316 31 316 45 316 79 c 2
 316 606 l 2
 316 629 316 640 295 644 c 0
 285 646 259 646 241 646 c 0
 90 646 75 613 61 452 c 1
 36 452 l 1
EndSplineSet
KernsSLIFO: 2080 -83 11 0 2079 -83 11 0 325 -83 11 0 324 -83 11 0 323 -83 11 0 322 -83 11 0 321 -83 11 0 320 -83 11 0 319 -83 11 0 256 -83 11 0 255 -83 11 0 192 -83 11 0 249 -83 11 0 247 -83 11 0 246 -83 11 0 245 -83 11 0 242 -83 11 0 239 -83 11 0 230 -83 11 0 227 -83 11 0 226 -83 11 0 152 -83 11 0 237 -83 11 0 244 -83 11 0 224 -83 11 0 241 -83 11 0 238 -83 11 0 228 -83 11 0 248 -28 11 0
Substitution: 0 12 'c2sc' T.sc
EndChar
StartChar: U
Encoding: 85 85 212
Width: 750
Flags: HW
TeX: 688 0 32767 32767
HStem: -22 31<366.5 437.5 366.5 445.5> 652 31<33 57 33 33>
VStem: 136 89<228 605> 582 31<234 254 254 574>
AnchorPoint: "ogonek" 388 0 basechar 0
AnchorPoint: "below" 388 0 basechar 0
AnchorPoint: "above" 374 705 basechar 0
Fore
33 652 m 1
 33 683 l 1
 68 680 143 680 181 680 c 0
 219 680 293 680 328 683 c 1
 328 652 l 1
 304 652 l 2
 227 652 225 641 225 605 c 2
 225 224 l 2
 225 34 343 9 390 9 c 0
 485 9 582 89 582 231 c 2
 582 578 l 2
 582 605 582 652 479 652 c 1
 479 683 l 1
 515 682 563 680 598 680 c 0
 632 680 680 682 716 683 c 1
 716 652 l 1
 613 652 613 607 613 574 c 2
 613 254 l 2
 613 214 613 205 610 185 c 0
 593 71 503 -22 388 -22 c 0
 252 -22 136 87 136 228 c 2
 136 605 l 2
 136 641 134 652 57 652 c 2
 33 652 l 1
EndSplineSet
Substitution: 0 12 'c2sc' U.sc
EndChar
StartChar: V
Encoding: 86 86 213
Width: 750
Flags: HW
TeX: 688 0 32767 32767
HStem: -22 21<367.5 382.5> 652 31<19 51.5>
VStem: 19 711<652 683 652 683>
AnchorPoint: "below" 374 0 basechar 0
AnchorPoint: "above" 374 705 basechar 0
Fore
19 652 m 1
 19 683 l 1
 55 682 98 680 146 680 c 0
 184 680 253 680 289 683 c 1
 289 652 l 1
 264 652 207 652 207 623 c 0
 207 621 207 619 213 605 c 2
 404 100 l 1
 587 582 l 2
 589 588 592 594 592 602 c 0
 592 625 571 651 519 652 c 1
 519 683 l 1
 545 682 603 680 633 680 c 0
 659 680 699 681 730 683 c 1
 730 652 l 1
 662 651 635 622 621 585 c 2
 398 -3 l 2
 393 -17 391 -22 374 -22 c 0
 361 -22 356 -19 349 0 c 2
 117 614 l 2
 103 652 84 652 19 652 c 1
EndSplineSet
KernsSLIFO: 2080 -83 11 0 2079 -83 11 0 208 -28 11 0 326 -28 11 0 262 -28 11 0 258 -28 11 0 257 -28 11 0 198 -28 11 0 194 -28 11 0 343 -28 11 0 342 -28 11 0 341 -28 11 0 340 -28 11 0 339 -28 11 0 338 -28 11 0 337 -28 11 0 269 -28 11 0 206 -28 11 0 325 -111 11 0 324 -111 11 0 323 -111 11 0 322 -111 11 0 321 -111 11 0 320 -111 11 0 319 -111 11 0 256 -111 11 0 255 -111 11 0 192 -111 11 0 375 -83 11 0 357 -83 11 0 249 -83 11 0 246 -83 11 0 239 -83 11 0 237 -83 11 0 236 -83 11 0 230 -83 11 0 227 -83 11 0 226 -83 11 0 242 -83 11 0 245 -83 11 0 241 -83 11 0 244 -83 11 0 248 -83 11 0 228 -83 11 0 224 -83 11 0 238 -83 11 0
Substitution: 0 12 'c2sc' V.sc
Position: 0 0 'ITLC' dx=0 dy=0 dh=13 dv=0
EndChar
StartChar: W
Encoding: 87 87 214
Width: 1027
Flags: HW
TeX: 688 0 32767 32767
HStem: -22 21<321.5 335 691.5 705> 652 31<18 55.5>
VStem: 18 991<652 683 652 683>
AnchorPoint: "below" 512 0 basechar 0
AnchorPoint: "above" 512 705 basechar 0
Fore
18 652 m 1
 18 683 l 1
 59 682 102 680 140 680 c 0
 178 680 246 680 282 683 c 1
 282 652 l 1
 256 652 198 652 198 622 c 0
 198 619 199 612 200 609 c 2
 361 117 l 1
 500 546 l 1
 478 616 l 2
 466 652 445 652 388 652 c 1
 388 683 l 1
 429 682 472 680 510 680 c 0
 548 680 616 680 652 683 c 1
 652 652 l 1
 626 652 568 652 568 622 c 0
 568 617 570 611 571 607 c 2
 731 117 l 1
 881 579 l 2
 883 585 886 593 886 599 c 0
 886 618 866 651 799 652 c 1
 799 683 l 1
 825 682 889 680 918 680 c 0
 948 680 979 681 1009 683 c 1
 1009 652 l 1
 970 652 927 642 909 585 c 2
 718 -2 l 2
 714 -15 712 -22 698 -22 c 0
 685 -22 682 -12 679 -3 c 2
 513 506 l 1
 348 -2 l 2
 344 -15 342 -22 328 -22 c 0
 315 -22 312 -12 309 -3 c 2
 109 610 l 2
 97 647 93 652 18 652 c 1
EndSplineSet
KernsSLIFO: 2080 -83 11 0 2079 -83 11 0 208 -28 11 0 326 -28 11 0 262 -28 11 0 258 -28 11 0 257 -28 11 0 198 -28 11 0 194 -28 11 0 343 -28 11 0 342 -28 11 0 341 -28 11 0 340 -28 11 0 339 -28 11 0 338 -28 11 0 337 -28 11 0 269 -28 11 0 206 -28 11 0 325 -111 11 0 324 -111 11 0 323 -111 11 0 322 -111 11 0 321 -111 11 0 320 -111 11 0 319 -111 11 0 256 -111 11 0 255 -111 11 0 192 -111 11 0 375 -83 11 0 357 -83 11 0 249 -83 11 0 246 -83 11 0 239 -83 11 0 237 -83 11 0 236 -83 11 0 230 -83 11 0 227 -83 11 0 226 -83 11 0 242 -83 11 0 245 -83 11 0 241 -83 11 0 244 -83 11 0 248 -83 11 0 228 -83 11 0 224 -83 11 0 238 -83 11 0
Substitution: 0 12 'c2sc' W.sc
Position: 0 0 'ITLC' dx=0 dy=0 dh=13 dv=0
EndChar
StartChar: X
Encoding: 88 88 215
Width: 750
Flags: HW
TeX: 688 0 32767 32767
HStem: 0 31<24 74.5> 652 31<37 56 37 37>
VStem: 24 702<0 31 0 31>
AnchorPoint: "below" 375 0 basechar 0
AnchorPoint: "above" 375 705 basechar 0
Fore
24 0 m 1
 24 31 l 1
 125 31 155 77 169 97 c 2
 333 339 l 1
 149 617 l 2
 130 645 111 652 56 652 c 2
 37 652 l 1
 37 683 l 1
 74 681 136 680 167 680 c 0
 205 680 278 680 313 683 c 1
 313 652 l 1
 270 651 248 634 248 622 c 0
 248 618 253 610 255 607 c 2
 384 414 l 1
 498 583 l 2
 505 594 507 596 507 606 c 0
 507 629 485 651 445 652 c 1
 445 683 l 1
 485 680 533 680 573 680 c 0
 598 680 645 682 684 683 c 1
 684 652 l 1
 595 651 561 619 539 587 c 2
 402 386 l 1
 613 67 l 2
 634 36 655 31 707 31 c 2
 726 31 l 1
 726 0 l 1
 684 2 638 3 596 3 c 0
 558 3 485 3 450 0 c 1
 450 31 l 1
 493 32 515 49 515 61 c 0
 515 64 512 68 510 72 c 2
 352 311 l 1
 210 101 l 2
 203 90 200 86 200 77 c 0
 200 59 217 32 263 31 c 1
 263 0 l 1
 227 3 172 3 135 3 c 0
 102 3 60 1 24 0 c 1
EndSplineSet
KernsSLIFO: 208 -28 11 0 326 -28 11 0 262 -28 11 0 258 -28 11 0 257 -28 11 0 198 -28 11 0 194 -28 11 0 343 -28 11 0 342 -28 11 0 341 -28 11 0 340 -28 11 0 339 -28 11 0 338 -28 11 0 337 -28 11 0 269 -28 11 0 206 -28 11 0
Substitution: 0 12 'c2sc' X.sc
EndChar
StartChar: Y
Encoding: 89 89 216
Width: 750
Flags: HW
TeX: 688 0 32767 32767
HStem: 0 31<228 252> 652 31<11 29 11 11>
VStem: 331 86<78 80 80 273>
AnchorPoint: "below" 374 0 basechar 0
AnchorPoint: "above" 374 705 basechar 0
Fore
11 652 m 1
 11 683 l 1
 53 681 99 680 141 680 c 0
 180 680 253 680 289 683 c 1
 289 652 l 1
 244 652 219 648 219 627 c 0
 219 622 219 620 226 610 c 2
 407 315 l 1
 572 583 l 2
 576 589 582 602 582 613 c 0
 582 633 566 652 525 652 c 1
 525 683 l 1
 551 682 609 680 640 680 c 0
 667 680 707 681 738 683 c 1
 738 652 l 1
 706 652 647 648 610 587 c 2
 417 273 l 1
 417 80 l 2
 417 41 420 31 497 31 c 2
 520 31 l 1
 520 0 l 1
 484 3 413 3 374 3 c 0
 335 3 264 3 228 0 c 1
 228 31 l 1
 252 31 l 2
 329 31 331 42 331 78 c 2
 331 273 l 1
 121 615 l 2
 105 641 97 652 29 652 c 2
 11 652 l 1
EndSplineSet
KernsSLIFO: 2080 -83 11 0 2079 -83 11 0 325 -83 11 0 324 -83 11 0 323 -83 11 0 322 -83 11 0 321 -83 11 0 320 -83 11 0 319 -83 11 0 256 -83 11 0 255 -83 11 0 192 -83 11 0 249 -83 11 0 247 -83 11 0 246 -83 11 0 245 -83 11 0 242 -83 11 0 239 -83 11 0 230 -83 11 0 227 -83 11 0 226 -83 11 0 152 -83 11 0 237 -83 11 0 244 -83 11 0 224 -83 11 0 241 -83 11 0 238 -83 11 0 228 -83 11 0
Substitution: 0 12 'c2sc' Y.sc
Position: 0 0 'ITLC' dx=0 dy=0 dh=24 dv=0
EndChar
StartChar: Z
Encoding: 90 90 217
Width: 611
Flags: HW
TeX: 688 0 32767 32767
HStem: 0 34<159 323 323 415.5> 652 31<213 295 295 452>
VStem: 56 504<8.5 267>
AnchorPoint: "below" 308 0 basechar 0
AnchorPoint: "above" 308 705 basechar 0
Fore
56 17 m 0
 56 25 56 26 63 37 c 2
 452 652 l 1
 295 652 l 2
 131 652 101 571 94 458 c 1
 69 458 l 1
 80 683 l 1
 528 683 l 2
 548 683 554 683 554 667 c 0
 554 660 554 659 547 648 c 2
 159 34 l 1
 323 34 l 2
 508 34 527 128 535 267 c 1
 560 267 l 1
 543 0 l 1
 82 0 l 2
 61 0 56 0 56 17 c 0
EndSplineSet
Substitution: 0 12 'c2sc' Z.sc
EndChar
StartChar: bracketleft
Encoding: 91 91 218
Width: 278
Flags: W
TeX: 749 249 32767 32767
HStem: -250 23<171 255> 727 23<171 255>
VStem: 104 67<-227 727>
Fore
104 -250 m 1
 104 750 l 1
 255 750 l 1
 255 727 l 1
 171 727 l 1
 171 -227 l 1
 255 -227 l 1
 255 -250 l 1
 104 -250 l 1
EndSplineSet
EndChar
StartChar: backslash
Encoding: 92 92 219
Width: 500
Flags: HW
TeX: 749 249 32767 32767
VStem: 57 385<-236 736>
Fore
57 736 m 0
 57 743 61 748 66 748 c 0
 76 748 81 732 83 727 c 2
 437 -218 l 2
 439 -224 442 -231 442 -236 c 0
 442 -243 438 -248 432 -248 c 0
 422 -248 417 -230 415 -225 c 2
 61 721 l 2
 57 731 57 733 57 736 c 0
EndSplineSet
EndChar
StartChar: bracketright
Encoding: 93 93 220
Width: 278
Flags: W
TeX: 749 249 32767 32767
HStem: -250 23<21 105> 727 23<21 105>
VStem: 105 67<-227 727>
Fore
21 -227 m 1
 105 -227 l 1
 105 727 l 1
 21 727 l 1
 21 750 l 1
 172 750 l 1
 172 -250 l 1
 21 -250 l 1
 21 -227 l 1
EndSplineSet
EndChar
StartChar: asciicircum
Encoding: 94 94 221
Width: 611
Flags: HW
TeX: 688 0 32767 32767
HStem: 463 165<132 304>
VStem: 117 375<484 484>
Fore
117 484 m 1
 304 628 l 1
 492 484 l 1
 477 463 l 1
 304 575 l 1
 132 463 l 1
 117 484 l 1
EndSplineSet
EndChar
StartChar: underscore
Encoding: 95 95 222
Width: 778
Flags: HW
TeX: 0 232 32767 32767
HStem: -233 40<95.5686 684.018>
Fore
84 -213 m 0
 84 -197 99 -193 114 -193 c 2
 662 -193 l 2
 676 -193 692 -195 692 -213 c 0
 692 -230 675 -232 664 -233 c 2
 113 -233 l 2
 89 -233 84 -221 84 -213 c 0
EndSplineSet
EndChar
StartChar: a
Encoding: 97 97 224
Width: 500
Flags: HW
TeX: 430 0 32767 32767
HStem: -11 22<184.5 231.5 184.5 235> -6 31<415.5 421.5> 240 21<326 326> 288 90 426 22<204 244.5>
VStem: 42 77<71 117> 71 92<321 340 321 368> 326 69<140 240 240 240 261 275> 468 25<89 145>
AnchorPoint: "ogonek" 362 0 basechar 0
AnchorPoint: "below" 222 0 basechar 0
AnchorPoint: "above" 222 448 basechar 0
Fore
42 95 m 0
 42 139 67 191 142 225 c 0xbd80
 205 255 275 258 326 261 c 1
 326 298 l 2
 326 387 269 426 220 426 c 0
 188 426 139 415 112 380 c 1
 158 379 163 346 163 334 c 0
 163 308 145 288 117 288 c 0
 91 288 71 305 71 335 c 0
 71 401 140 448 222 448 c 0
 270 448 320 432 359 393 c 0
 395 356 395 317 395 275 c 2
 395 75 l 2
 395 70 399 25 432 25 c 0
 443 25 468 31 468 89 c 2
 468 145 l 1
 493 145 l 1
 493 89 l 2
 493 8 432 -6 411 -6 c 0
 364 -6 337 36 333 76 c 1x7b80
 314 29 268 -11 202 -11 c 0
 139 -11 42 14 42 95 c 0
119 96 m 0
 119 46 160 11 209 11 c 0
 254 11 326 45 326 140 c 2
 326 240 l 1
 161 234 119 151 119 96 c 0
EndSplineSet
KernsSLIFO: 246 -28 11 0 380 -28 11 0 311 -28 11 0 248 -28 11 0 233 56 11 0 245 -28 11 0
Substitution: 0 7 'smcp' A.sc
EndChar
StartChar: b
Encoding: 98 98 225
Width: 555
Flags: HW
TeX: 688 0 32767 32767
HStem: -11 22<271.5 321 271.5 357.5> 0 20 420 22<292 326.5> 652 42
VStem: 106 66<377 377 377 596 596 620.5> 438 83<198.5 237.5>
AnchorPoint: "below" 313 0 basechar 0
AnchorPoint: "above" 313 694 basechar 0
Fore
28 652 m 1
 28 683 l 1
 172 694 l 1
 172 377 l 1xbc
 188 395 231 442 309 442 c 0
 423 442 521 343 521 216 c 0
 521 87 417 -11 298 -11 c 0x7c
 224 -11 182 39 167 62 c 1
 140 15 132 1 131 0 c 1
 106 0 l 1
 106 596 l 2
 106 645 98 652 28 652 c 1
175 114 m 2
 175 96 175 93 189 72 c 0
 213 35 249 11 294 11 c 0
 348 11 386 44 407 75 c 0
 436 120 438 180 438 217 c 0
 438 258 435 315 409 356 c 0
 385 394 349 420 304 420 c 0
 280 420 225 412 186 356 c 0
 175 340 175 339 175 320 c 2
 175 114 l 2
EndSplineSet
KernsSLIFO: 2080 28 11 0 2079 28 11 0 246 -28 11 0 380 -28 11 0 311 -28 11 0 248 -28 11 0 233 56 11 0 245 -28 11 0 240 28 11 0 358 28 11 0 290 28 11 0 289 28 11 0 226 28 11 0 227 28 11 0 247 -28 11 0 375 28 11 0 374 28 11 0 373 28 11 0 372 28 11 0 371 28 11 0 370 28 11 0 369 28 11 0 301 28 11 0 238 28 11 0 362 28 11 0 361 28 11 0 360 28 11 0 359 28 11 0 293 28 11 0 292 28 11 0 228 28 11 0
Substitution: 0 7 'smcp' B.sc
EndChar
StartChar: c
Encoding: 99 99 226
Width: 444
Flags: HW
TeX: 430 0 32767 32767
HStem: -11 25<231.5 276.5 231.5 316> 294 92<358 358> 423 25<225.5 256.5>
VStem: 34 83<152 278> 312 92<327 346.5>
AnchorPoint: "below" 249 0 basechar 0
AnchorPoint: "above" 251 448 basechar 0
Fore
34 216 m 0
 34 340 126 448 251 448 c 0
 328 448 404 409 404 341 c 0
 404 311 384 294 358 294 c 0
 330 294 312 314 312 340 c 0
 312 353 318 383 359 386 c 1
 324 422 261 423 252 423 c 0
 199 423 117 381 117 218 c 0
 117 57 205 14 258 14 c 0
 295 14 360 26 389 119 c 0
 391 125 393 129 402 129 c 0
 405 129 415 129 415 119 c 0
 415 109 383 -11 249 -11 c 0
 133 -11 34 88 34 216 c 0
EndSplineSet
KernsSLIFO: 234 -28 11 0 231 -28 11 0
Substitution: 0 7 'smcp' C.sc
EndChar
StartChar: d
Encoding: 100 100 227
Width: 555
Flags: HW
TeX: 688 0 32767 32767
HStem: -11 22<228.5 272.5 228.5 278> -11 42 420 22<234 278.5> 652 42
VStem: 34 83<193.5 232.5 193.5 279.5> 383 66<380 596 596 620.5>
AnchorPoint: "below" 280 0 basechar 0
AnchorPoint: "above" 242 694 basechar 0
Fore
34 215 m 0
 34 344 139 442 257 442 c 0xbc
 311 442 354 416 383 380 c 1
 383 596 l 2
 383 645 375 652 305 652 c 1
 305 683 l 1
 449 694 l 1
 449 87 l 2
 449 38 457 31 527 31 c 1
 527 0 l 1
 380 -11 l 1
 380 55 l 1x7c
 355 23 310 -11 246 -11 c 0
 132 -11 34 88 34 215 c 0
117 214 m 0
 117 173 120 116 146 75 c 0
 170 37 206 11 251 11 c 0
 294 11 339 33 369 81 c 0
 380 98 380 100 380 118 c 2
 380 323 l 2
 380 341 380 343 369 360 c 0
 338 405 296 420 261 420 c 0
 207 420 169 387 148 356 c 0
 119 311 117 251 117 214 c 0
EndSplineSet
Substitution: 0 7 'smcp' D.sc
EndChar
StartChar: e
Encoding: 101 101 228
Width: 444
Flags: HW
TeX: 430 0 32767 32767
HStem: -11 25<229 259 229 309> 231 21<112 349 112 390 111 349> 426 22<219 287.5>
VStem: 28 83<213 231 213 282.5> 349 66<252 271.5>
AnchorPoint: "ogonek" 248 0 basechar 0
AnchorPoint: "below" 248 0 basechar 0
AnchorPoint: "above" 236 448 basechar 0
Fore
28 220 m 0
 28 345 120 448 236 448 c 0
 361 448 415 351 415 252 c 0
 415 231 412 231 390 231 c 2
 111 231 l 1
 111 195 111 129 141 81 c 0
 164 44 204 14 254 14 c 0
 264 14 354 14 389 117 c 0
 391 125 393 131 402 131 c 0
 407 131 415 129 415 119 c 0
 415 100 370 -11 248 -11 c 0
 133 -11 28 86 28 220 c 0
112 252 m 1
 349 252 l 1
 349 291 339 426 236 426 c 0
 202 426 118 401 112 252 c 1
EndSplineSet
KernsSLIFO: 213 -83 11 0
Substitution: 0 7 'smcp' E.sc
EndChar
StartChar: f
Encoding: 102 102 229
Width: 305
Flags: HW
TeX: 688 0 32767 32767
HStem: 0 31<34 67.5> 400 31<33 112 33 112 178 292 178 178> 591 84 683 22<245 268.5>
VStem: 112 66<76 78 78 400> 270 87<623 646.5>
AnchorPoint: "above" 267 694 basechar 0
AnchorPoint: "below" 145 0 basechar 0
Fore
33 400 m 1
 33 431 l 1
 112 431 l 1
 112 546 l 2
 112 652 197 705 267 705 c 0
 320 705 357 672 357 635 c 0
 357 611 342 591 313 591 c 0
 286 591 270 611 270 634 c 0
 270 659 288 672 300 676 c 1
 285 683 270 683 267 683 c 0
 223 683 175 635 175 547 c 2
 175 431 l 1
 292 431 l 1
 292 400 l 1
 178 400 l 1
 178 78 l 2
 178 42 180 31 254 31 c 2
 275 31 l 1
 275 0 l 1
 235 3 188 3 148 3 c 0
 120 3 73 1 34 0 c 1
 34 31 l 1
 101 31 112 31 112 76 c 2
 112 400 l 1
 33 400 l 1
EndSplineSet
KernsSLIFO: 2059 78 11 0 220 78 11 0 168 78 11 0 160 78 11 0 190 78 11 0 145 78 11 0 144 78 11 0 223 78 11 0 166 78 11 0
Substitution: 0 7 'smcp' F.sc
Position: 0 0 'ITLC' dx=0 dy=0 dh=77 dv=0
EndChar
StartChar: g
Encoding: 103 103 230
Width: 500
Flags: HW
TeX: 430 194 32767 32767
HStem: -206 23<199.5 299 199.5 308> 7 58<162 264.5> 149 23<212.5 242 178.5 268.5> 419 23<202 233 175.5 265.5>
VStem: 28 52<-105.5 -59> 60 75<283.5 308.5 283.5 334.5> 309 75<282.5 307.5> 419 52<-106 -59.5 -116 -36>
AnchorPoint: "below" 249 -194 basechar 0
AnchorPoint: "above" 222 448 basechar 0
Fore
28 -79 m 0
 28 -39 60 4 120 21 c 1xf9
 89 41 76 79 76 110 c 0
 76 145 94 178 107 193 c 1
 82 214 60 252 60 296 c 0
 60 373 129 442 222 442 c 0
 244 442 286 439 328 406 c 1
 370 447 414 453 434 453 c 0
 473 453 485 421 485 404 c 0
 485 381 466 374 456 374 c 0
 440 374 427 386 427 403 c 0
 427 415 432 426 443 430 c 1
 440 431 435 431 433 431 c 0
 415 431 379 426 343 392 c 1
 368 369 384 332 384 295 c 0
 384 218 315 149 222 149 c 0
 203 149 162 152 123 180 c 1
 106 160 106 137 106 133 c 0
 106 101 127 70 159 66 c 0
 166 65 209 65 234 65 c 0
 295 65 353 65 406 37 c 0
 457 9 471 -42 471 -77 c 0
 471 -155 367 -206 249 -206 c 0
 127 -206 28 -151 28 -79 c 0
80 -79 m 0
 80 -132 149 -183 250 -183 c 0
 348 -183 419 -133 419 -79 c 0
 419 7 307 7 221 7 c 2
 162 7 l 2
 118 4 80 -33 80 -79 c 0
135 295 m 0
 135 272 135 172 222 172 c 0xf6
 262 172 285 200 293 212 c 0
 308 237 309 269 309 296 c 0
 309 319 309 419 222 419 c 0
 182 419 159 391 151 379 c 0
 136 354 135 322 135 295 c 0
EndSplineSet
KernsSLIFO: 233 28 11 0
Substitution: 0 7 'smcp' G.sc
Position: 0 0 'ITLC' dx=0 dy=0 dh=13 dv=0
EndChar
StartChar: h
Encoding: 104 104 231
Width: 555
Flags: HW
TeX: 688 0 32767 32767
HStem: 0 31<32 65.5> 420 22<282 345.5> 652 42
VStem: 110 69<76 260> 388 69<76 252 61 309 61 337.5>
AnchorPoint: "below" 284 0 basechar 0
AnchorPoint: "above" 284 694 basechar 0
Fore
32 0 m 1
 32 31 l 1
 99 31 110 31 110 76 c 2
 110 596 l 2
 110 645 102 652 32 652 c 1
 32 683 l 1
 176 694 l 1
 176 346 l 1
 177 346 l 1
 193 382 237 442 321 442 c 0
 379 442 412 422 426 405 c 0
 457 369 457 338 457 252 c 2
 457 61 l 2
 458 31 483 31 535 31 c 1
 535 0 l 1
 501 1 449 3 423 3 c 0
 396 3 345 1 310 0 c 1
 310 31 l 1
 377 31 388 31 388 76 c 2
 388 309 l 2
 388 366 377 420 314 420 c 0
 250 420 179 364 179 260 c 2
 179 76 l 2
 179 31 190 31 257 31 c 1
 257 0 l 1
 223 1 171 3 145 3 c 0
 118 3 67 1 32 0 c 1
EndSplineSet
KernsSLIFO: 2081 -28 11 0 246 -28 11 0 245 -28 11 0 248 -28 11 0 225 -28 11 0 379 -28 11 0 378 -28 11 0 377 -28 11 0 376 -28 11 0 310 -28 11 0 309 -28 11 0 244 -28 11 0 243 -28 11 0 213 -83 11 0 214 -83 11 0
Substitution: 0 7 'smcp' H.sc
EndChar
StartChar: i
Encoding: 105 105 232
Width: 277
Flags: HW
TeX: 663 0 32767 32767
HStem: 0 31<33 66.5> 400 42 563 106<112.5 142>
VStem: 75 106<602.5 629> 111 66<76 345 345 369.5>
AnchorPoint: "ogonek" 140 0 basechar 0
AnchorPoint: "below" 144 0 basechar 0
Fore
75 616 m 0
 75 642 97 669 128 669 c 0
 156 669 181 648 181 616 c 0xf0
 181 584 156 563 128 563 c 0
 97 563 75 589 75 616 c 0
EndSplineSet
Refer: 152 305 S 1 0 0 1 0 0 2
Substitution: 0 7 'smcp' I.sc
EndChar
StartChar: j
Encoding: 106 106 233
Width: 305
Flags: HW
TeX: 663 194 32767 32767
HStem: -205 22<68.5 103 68.5 110.5> -167 88 400 42 563 106<142.5 171.5>
VStem: -40 92<-138.5 -112 -138.5 -112> 104 105 144 66<-52 -50 -50 344 344 368.5>
AnchorPoint: "below" 106 -194 basechar 0
Fore
104 616 m 0
 104 645 128 669 157 669 c 0
 186 669 210 645 210 616 c 0xfc
 210 587 186 563 157 563 c 0
 128 563 104 587 104 616 c 0
EndSplineSet
Refer: 153 567 S 1 0 0 1 0 0 2
Substitution: 0 7 'smcp' J.sc
EndChar
StartChar: k
Encoding: 107 107 234
Width: 527
Flags: HW
TeX: 688 0 32767 32767
HStem: 0 31<28 61.5> 402 29 652 42
VStem: 106 66<214 596 596 620.5>
AnchorPoint: "below" 270 0 basechar 0
AnchorPoint: "above" 270 694 basechar 0
Fore
28 0 m 1
 28 31 l 1
 95 31 106 31 106 76 c 2
 106 596 l 2
 106 645 98 652 28 652 c 1
 28 683 l 1
 172 694 l 1
 172 214 l 1
 313 336 l 2
 321 343 335 355 335 375 c 0
 335 388 325 399 306 400 c 1
 306 431 l 1
 320 430 382 428 418 428 c 0
 446 428 459 428 488 431 c 1
 488 400 l 1
 467 399 425 397 362 346 c 0
 352 338 281 278 281 274 c 0
 281 271 286 265 287 263 c 2
 414 84 l 2
 452 31 474 31 511 31 c 1
 511 0 l 1
 482 2 453 3 424 3 c 0
 403 3 344 1 316 0 c 1
 316 31 l 1
 335 31 352 35 352 54 c 0
 352 72 310 128 233 234 c 1
 169 179 l 1
 169 76 l 2
 169 31 180 31 247 31 c 1
 247 0 l 1
 207 2 167 3 137 3 c 0
 108 3 61 1 28 0 c 1
EndSplineSet
KernsSLIFO: 358 -28 11 0 290 -28 11 0 289 -28 11 0 226 -28 11 0 375 -28 11 0 374 -28 11 0 373 -28 11 0 372 -28 11 0 371 -28 11 0 370 -28 11 0 369 -28 11 0 301 -28 11 0 238 -28 11 0 362 -28 11 0 361 -28 11 0 360 -28 11 0 359 -28 11 0 293 -28 11 0 292 -28 11 0 228 -28 11 0 357 -28 11 0 356 -28 11 0 355 -28 11 0 354 -28 11 0 353 -28 11 0 352 -28 11 0 351 -28 11 0 288 -28 11 0 287 -28 11 0 224 -28 11 0 213 -83 11 0 214 -83 11 0
Substitution: 0 7 'smcp' K.sc
EndChar
StartChar: l
Encoding: 108 108 235
Width: 277
Flags: HW
TeX: 688 0 32767 32767
HStem: 0 31<33 66.5> 652 42
VStem: 111 66<76 596 596 620.5>
AnchorPoint: "below" 144 0 basechar 0
AnchorPoint: "above" 144 694 basechar 0
Fore
33 0 m 1
 33 31 l 1
 100 31 111 31 111 76 c 2
 111 596 l 2
 111 645 103 652 33 652 c 1
 33 683 l 1
 177 694 l 1
 177 76 l 2
 177 31 188 31 255 31 c 1
 255 0 l 1
 218 1 169 3 144 3 c 0
 119 3 66 1 33 0 c 1
EndSplineSet
Substitution: 0 7 'smcp' L.sc
EndChar
StartChar: m
Encoding: 109 109 236
Width: 833
Flags: HW
TeX: 430 0 32767 32767
HStem: 0 31<32 65.5> 400 42 420 22<284.5 343.5 560 623.5>
VStem: 110 63<337 344 344 368.5> 110 69<76 260> 388 69<76 260> 666 69<76 252 61 309 61 337.5>
AnchorPoint: "below" 422 0 basechar 0
AnchorPoint: "above" 422 448 basechar 0
Fore
32 0 m 1
 32 31 l 1
 99 31 110 31 110 76 c 2
 110 344 l 2xae
 110 393 102 400 32 400 c 1
 32 431 l 1
 173 442 l 1xd6
 173 337 l 1
 201 399 248 442 321 442 c 0
 366 442 440 431 454 344 c 1
 471 382 515 442 599 442 c 0
 657 442 690 422 704 405 c 0
 735 369 735 338 735 252 c 2
 735 61 l 2
 736 31 761 31 813 31 c 1
 813 0 l 1
 779 1 727 3 701 3 c 0
 674 3 623 1 588 0 c 1
 588 31 l 1
 655 31 666 31 666 76 c 2
 666 309 l 2
 666 366 655 420 592 420 c 0
 528 420 457 364 457 260 c 2
 457 76 l 2
 457 31 468 31 535 31 c 1
 535 0 l 1
 501 1 449 3 423 3 c 0
 396 3 345 1 310 0 c 1
 310 31 l 1
 377 31 388 31 388 76 c 2
 388 309 l 2
 388 366 377 420 314 420 c 0
 250 420 179 364 179 260 c 2
 179 76 l 2
 179 31 190 31 257 31 c 1
 257 0 l 1
 223 1 171 3 145 3 c 0
 118 3 67 1 32 0 c 1
EndSplineSet
KernsSLIFO: 2081 -28 11 0 246 -28 11 0 245 -28 11 0 248 -28 11 0 225 -28 11 0 379 -28 11 0 378 -28 11 0 377 -28 11 0 376 -28 11 0 310 -28 11 0 309 -28 11 0 244 -28 11 0 243 -28 11 0 213 -83 11 0 214 -83 11 0
Substitution: 0 7 'smcp' M.sc
EndChar
StartChar: n
Encoding: 110 110 237
Width: 555
Flags: HW
TeX: 430 0 32767 32767
HStem: 0 31<32 65.5> 400 42 420 22<284.5 345.5>
VStem: 110 63<337 344 344 368.5> 110 69<76 260> 388 69<76 252 61 309 61 337.5>
AnchorPoint: "below" 284 0 basechar 0
AnchorPoint: "above" 284 448 basechar 0
Fore
32 0 m 1
 32 31 l 1
 99 31 110 31 110 76 c 2
 110 344 l 2xac
 110 393 102 400 32 400 c 1
 32 431 l 1
 173 442 l 1xd4
 173 337 l 1
 201 399 248 442 321 442 c 0
 379 442 412 422 426 405 c 0
 457 369 457 338 457 252 c 2
 457 61 l 2
 458 31 483 31 535 31 c 1
 535 0 l 1
 501 1 449 3 423 3 c 0
 396 3 345 1 310 0 c 1
 310 31 l 1
 377 31 388 31 388 76 c 2
 388 309 l 2
 388 366 377 420 314 420 c 0
 250 420 179 364 179 260 c 2
 179 76 l 2
 179 31 190 31 257 31 c 1
 257 0 l 1
 223 1 171 3 145 3 c 0
 118 3 67 1 32 0 c 1
EndSplineSet
KernsSLIFO: 2081 -28 11 0 246 -28 11 0 245 -28 11 0 248 -28 11 0 225 -28 11 0 379 -28 11 0 378 -28 11 0 377 -28 11 0 376 -28 11 0 310 -28 11 0 309 -28 11 0 244 -28 11 0 243 -28 11 0 213 -83 11 0 214 -83 11 0
Substitution: 0 7 'smcp' N.sc
EndChar
StartChar: o
Encoding: 111 111 238
Width: 500
Flags: HW
TeX: 430 0 32767 32767
HStem: -11 25<228.5 275 228.5 309.5> 426 22<229 271>
VStem: 28 83<204 241.5 204 276.5> 388 83<204 241>
AnchorPoint: "ogonek" 249 0 basechar 0
AnchorPoint: "below" 249 0 basechar 0
AnchorPoint: "above" 250 448 basechar 0
Fore
28 214 m 0
 28 339 125 448 250 448 c 0
 371 448 471 342 471 214 c 0
 471 87 370 -11 249 -11 c 0
 132 -11 28 85 28 214 c 0
111 222 m 0
 111 186 111 125 136 81 c 0
 163 35 207 14 250 14 c 0
 300 14 344 43 366 88 c 0
 388 132 388 186 388 222 c 0
 388 260 388 318 362 361 c 0
 336 404 293 426 249 426 c 0
 209 426 162 405 135 359 c 0
 111 315 111 261 111 222 c 0
EndSplineSet
KernsSLIFO: 2080 28 11 0 2079 28 11 0 246 -28 11 0 380 -28 11 0 311 -28 11 0 248 -28 11 0 233 56 11 0 245 -28 11 0 240 28 11 0 358 28 11 0 290 28 11 0 289 28 11 0 226 28 11 0 227 28 11 0 247 -28 11 0 375 28 11 0 374 28 11 0 373 28 11 0 372 28 11 0 371 28 11 0 370 28 11 0 369 28 11 0 301 28 11 0 238 28 11 0 362 28 11 0 361 28 11 0 360 28 11 0 359 28 11 0 293 28 11 0 292 28 11 0 228 28 11 0
Substitution: 0 7 'smcp' O.sc
EndChar
StartChar: p
Encoding: 112 112 239
Width: 555
Flags: HW
TeX: 430 194 32767 32767
HStem: -194 31<28 61.5> -11 22<274 331 274 357.5> 400 42 417 25<278.5 340.5>
VStem: 106 69<-118 50 50 59 104 114 114 337> 438 83<155.5 272.5>
AnchorPoint: "below" 313 -194 basechar 0
AnchorPoint: "above" 313 448 basechar 0
Fore
28 -163 m 1
 95 -163 106 -163 106 -118 c 2
 106 350 l 2
 106 394 99 400 28 400 c 1
 28 431 l 1
 172 442 l 1xec
 172 376 l 1
 192 398 234 442 312 442 c 0
 424 442 521 343 521 216 c 0
 521 87 417 -11 298 -11 c 0
 222 -11 180 43 175 59 c 1
 175 50 l 1
 175 -118 l 2
 175 -163 186 -163 253 -163 c 1
 253 -194 l 1
 218 -193 167 -191 140 -191 c 0
 114 -191 62 -193 28 -194 c 1
 28 -163 l 1
175 114 m 2
 175 94 175 93 189 72 c 0
 216 31 254 11 294 11 c 0
 368 11 438 95 438 216 c 0
 438 329 377 417 304 417 c 0
 253 417 204 388 175 337 c 1xdc
 175 114 l 2
EndSplineSet
KernsSLIFO: 2080 28 11 0 2079 28 11 0 246 -28 11 0 380 -28 11 0 311 -28 11 0 248 -28 11 0 233 56 11 0 245 -28 11 0 240 28 11 0 358 28 11 0 290 28 11 0 289 28 11 0 226 28 11 0 227 28 11 0 247 -28 11 0 375 28 11 0 374 28 11 0 373 28 11 0 372 28 11 0 371 28 11 0 370 28 11 0 369 28 11 0 301 28 11 0 238 28 11 0 362 28 11 0 361 28 11 0 360 28 11 0 359 28 11 0 293 28 11 0 292 28 11 0 228 28 11 0
Substitution: 0 7 'smcp' P.sc
EndChar
StartChar: q
Encoding: 113 113 240
Width: 527
Flags: HW
TeX: 430 194 32767 32767
HStem: -194 31<302 335.5> -11 22<214.5 274.5 214.5 282> 417 25<224 295 197 301> 422 20<197 295 427 449 449 449>
VStem: 34 83<157.5 274.5 157.5 280> 380 69<-118 61 61 61>
AnchorPoint: "below" 242 -194 basechar 0
AnchorPoint: "above" 242 448 basechar 0
Fore
34 215 m 0
 34 345 139 442 255 442 c 0xec
 335 442 376 379 389 351 c 1
 427 442 l 1
 449 442 l 1
 449 -118 l 2
 449 -163 460 -163 527 -163 c 1
 527 -194 l 1
 492 -193 441 -191 414 -191 c 0
 388 -191 336 -193 302 -194 c 1
 302 -163 l 1
 369 -163 380 -163 380 -118 c 2
 380 61 l 1xdc
 358 32 317 -11 247 -11 c 0
 131 -11 34 90 34 215 c 0
117 215 m 0
 117 100 178 11 251 11 c 0
 298 11 330 38 343 52 c 0
 365 76 383 104 383 136 c 2
 383 277 l 2
 383 330 341 417 261 417 c 0
 187 417 117 334 117 215 c 0
EndSplineSet
Substitution: 0 7 'smcp' Q.sc
EndChar
StartChar: r
Encoding: 114 114 241
Width: 391
Flags: HW
TeX: 430 0 32767 32767
HStem: 0 31<28 61.5> 400 42 420 22<253.5 293.5>
VStem: 106 66<76 78 78 232> 278 86<366 393>
AnchorPoint: "below" 148 0 basechar 0
AnchorPoint: "above" 182 448 basechar 0
Fore
28 0 m 1
 28 31 l 1
 95 31 106 31 106 76 c 2
 106 344 l 2
 106 393 98 400 28 400 c 1
 28 431 l 1
 167 442 l 1xd8
 167 332 l 1
 181 375 217 442 290 442 c 0
 333 442 364 413 364 381 c 0
 364 349 339 337 321 337 c 0
 299 337 278 352 278 380 c 0
 278 406 298 418 301 419 c 1
 299 420 297 420 290 420 c 0
 214 420 172 331 172 232 c 2
 172 78 l 2xb8
 172 42 174 31 248 31 c 2
 269 31 l 1
 269 0 l 1
 229 3 182 3 142 3 c 0
 114 3 67 1 28 0 c 1
EndSplineSet
Substitution: 0 7 'smcp' R.sc
EndChar
StartChar: s
Encoding: 115 115 242
Width: 394
Flags: HW
TeX: 430 0 32767 32767
HStem: -11 22<188.5 238 157 256.5> 429 19<150 200.5 132 248>
VStem: 33 23 33 48<324 353> 312 23 312 48<92 138>
AnchorPoint: "below" 199 0 basechar 0
AnchorPoint: "above" 193 448 basechar 0
Fore
33 13 m 2
 33 145 l 2
 33 163 33 170 46 170 c 0
 56 170 57 166 60 153 c 0
 79 68 115 11 199 11 c 0
 277 11 312 51 312 102 c 0
 312 174 230 190 208 194 c 0xe4
 136 208 108 214 76 240 c 0
 49 262 33 290 33 325 c 0
 33 381 71 448 193 448 c 0
 208 448 249 448 287 420 c 1
 291 423 301 432 304 436 c 1
 317 448 319 448 324 448 c 0
 335 448 335 441 335 424 c 2
 335 323 l 2
 335 304 335 299 322 299 c 0
 320 299 311 299 310 308 c 0
 308 339 303 429 193 429 c 0
 107 429 81 388 81 353 c 0xd8
 81 295 148 282 204 271 c 0
 246 263 285 255 318 223 c 0
 330 211 360 181 360 128 c 0
 360 56 314 -11 199 -11 c 0
 178 -11 133 -10 89 32 c 1
 71 13 71 11 69 9 c 0
 50 -10 49 -11 44 -11 c 0
 33 -11 33 -4 33 13 c 2
EndSplineSet
Substitution: 0 7 'smcp' S.sc
EndChar
StartChar: t
Encoding: 116 116 243
Width: 388
Flags: HW
TeX: 614 0 32767 32767
HStem: -11 25<215 258.5 206.5 268.5> 161 20<307 332 332 332> 400 31<173 316 173 316> 595 20<148 173 173 173>
VStem: 104 69<124 400> 307 25<126 181>
AnchorPoint: "below" 211 0 basechar 0
AnchorPoint: "above" 138 615 basechar 0
Fore
19 400 m 1
 19 422 l 1
 117 426 147 533 148 615 c 1
 173 615 l 1
 173 431 l 1
 316 431 l 1
 316 400 l 1
 173 400 l 1
 173 122 l 2
 173 105 173 14 240 14 c 0
 277 14 307 52 307 126 c 2
 307 181 l 1
 332 181 l 1
 332 124 l 2
 332 60 304 -11 233 -11 c 0
 197 -11 104 1 104 124 c 2
 104 400 l 1
 19 400 l 1
EndSplineSet
KernsSLIFO: 246 -28 11 0 380 -28 11 0 311 -28 11 0 248 -28 11 0
Substitution: 0 7 'smcp' T.sc
EndChar
StartChar: u
Encoding: 117 117 244
Width: 555
Flags: HW
TeX: 430 0 32767 32767
HStem: -11 22<225 290> -11 42 400 42
VStem: 110 69<158 308 308 352.5> 388 69<166 344 344 368.5>
AnchorPoint: "ogonek" 424 0 basechar 0
AnchorPoint: "below" 284 0 basechar 0
AnchorPoint: "above" 284 448 basechar 0
Fore
32 400 m 1
 32 431 l 1
 179 442 l 1
 179 110 l 2
 179 58 183 11 267 11 c 0
 340 11 388 79 388 166 c 2
 388 344 l 2
 388 393 380 400 310 400 c 1
 310 431 l 1
 457 442 l 1xb8
 457 87 l 2
 457 38 465 31 535 31 c 1
 535 0 l 1
 391 -11 l 1
 391 79 l 1x78
 362 17 318 -11 262 -11 c 0
 110 -11 110 80 110 158 c 2
 110 308 l 2
 110 397 110 400 32 400 c 1
EndSplineSet
KernsSLIFO: 246 -28 11 0
Substitution: 0 7 'smcp' U.sc
EndChar
StartChar: v
Encoding: 118 118 245
Width: 527
Flags: HW
TeX: 430 0 32767 32767
HStem: -11 21<257.5 270.5> 400 31<19 50.5>
VStem: 19 489<400 431 400 431>
AnchorPoint: "below" 264 0 basechar 0
AnchorPoint: "above" 264 448 basechar 0
Fore
19 400 m 1
 19 431 l 1
 49 429 89 428 116 428 c 0
 139 428 195 430 225 431 c 1
 225 400 l 1
 207 400 168 400 168 374 c 0
 168 372 168 370 174 357 c 2
 286 78 l 1
 388 333 l 2
 392 344 394 348 394 357 c 0
 394 376 383 399 346 400 c 1
 346 431 l 1
 363 430 409 428 433 428 c 0
 456 428 485 429 508 431 c 1
 508 400 l 1
 442 399 425 356 416 333 c 2
 285 8 l 2
 281 -2 277 -11 264 -11 c 0
 251 -11 249 -6 243 8 c 2
 99 363 l 2
 86 394 82 400 19 400 c 1
EndSplineSet
KernsSLIFO: 358 -28 11 0 290 -28 11 0 289 -28 11 0 226 -28 11 0 375 -28 11 0 374 -28 11 0 373 -28 11 0 372 -28 11 0 371 -28 11 0 370 -28 11 0 369 -28 11 0 301 -28 11 0 238 -28 11 0 362 -28 11 0 361 -28 11 0 360 -28 11 0 359 -28 11 0 293 -28 11 0 292 -28 11 0 228 -28 11 0 357 -28 11 0 356 -28 11 0 355 -28 11 0 354 -28 11 0 353 -28 11 0 352 -28 11 0 351 -28 11 0 288 -28 11 0 287 -28 11 0 224 -28 11 0
Substitution: 0 7 'smcp' V.sc
Position: 0 0 'ITLC' dx=0 dy=0 dh=13 dv=0
EndChar
StartChar: w
Encoding: 119 119 246
Width: 722
Flags: HW
TeX: 430 0 32767 32767
HStem: -11 21<232.5 245.5 475.5 488.5> 400 31<18 43>
VStem: 18 685<400 431 400 431>
AnchorPoint: "below" 360 0 basechar 0
AnchorPoint: "above" 360 448 basechar 0
Fore
18 400 m 1
 18 431 l 1
 54 429 107 428 111 428 c 0
 134 428 190 430 220 431 c 1
 220 400 l 1
 200 400 161 400 161 373 c 0
 161 369 161 367 166 355 c 2
 261 88 l 1
 347 330 l 1
 340 349 329 379 324 385 c 0
 314 398 298 400 261 400 c 1
 261 431 l 1
 291 429 320 428 350 428 c 0
 374 428 425 430 454 431 c 1
 454 400 l 1
 434 400 395 400 395 373 c 0
 395 368 396 366 400 354 c 2
 499 75 l 1
 590 331 l 2
 595 344 595 346 595 352 c 0
 595 381 573 399 537 400 c 1
 537 431 l 1
 556 430 601 428 630 428 c 0
 652 428 681 429 703 431 c 1
 703 400 l 1
 668 399 637 386 619 336 c 2
 502 8 l 2
 498 -2 495 -11 482 -11 c 0
 469 -11 466 -3 462 8 c 2
 360 292 l 1
 259 9 l 2
 254 -5 252 -11 239 -11 c 0
 226 -11 223 -3 218 11 c 2
 92 365 l 2
 80 397 68 400 18 400 c 1
EndSplineSet
KernsSLIFO: 358 -28 11 0 290 -28 11 0 289 -28 11 0 226 -28 11 0 375 -28 11 0 374 -28 11 0 373 -28 11 0 372 -28 11 0 371 -28 11 0 370 -28 11 0 369 -28 11 0 301 -28 11 0 238 -28 11 0 357 -28 11 0 356 -28 11 0 355 -28 11 0 354 -28 11 0 353 -28 11 0 352 -28 11 0 351 -28 11 0 288 -28 11 0 287 -28 11 0 224 -28 11 0 362 -28 11 0 361 -28 11 0 360 -28 11 0 359 -28 11 0 293 -28 11 0 292 -28 11 0 228 -28 11 0
Substitution: 0 7 'smcp' W.sc
Position: 0 0 'ITLC' dx=0 dy=0 dh=13 dv=0
EndChar
StartChar: x
Encoding: 120 120 247
Width: 527
Flags: HW
TeX: 430 0 32767 32767
HStem: 0 31<12 22.5> 400 31<17 52>
VStem: 12 504<0 31 0 31>
AnchorPoint: "below" 264 0 basechar 0
AnchorPoint: "above" 264 448 basechar 0
Fore
12 0 m 1
 12 31 l 1
 33 31 92 33 140 91 c 0
 187 148 187 150 234 210 c 1
 135 339 l 2
 88 399 87 400 17 400 c 1
 17 431 l 1
 44 429 91 428 112 428 c 0
 128 428 194 430 220 431 c 1
 220 400 l 1
 200 399 185 390 185 375 c 0
 185 369 185 367 194 357 c 2
 272 256 l 1
 334 334 l 2
 339 340 349 353 349 369 c 0
 349 385 341 398 320 400 c 1
 320 431 l 1
 333 430 386 428 416 428 c 0
 442 428 472 429 498 431 c 1
 498 400 l 1
 451 399 410 384 379 348 c 0
 355 322 317 273 287 235 c 1
 421 62 l 2
 444 33 462 31 516 31 c 1
 516 0 l 1
 486 2 447 3 420 3 c 0
 398 3 342 1 312 0 c 1
 312 31 l 1
 339 32 348 47 348 56 c 0
 348 62 335 78 327 89 c 0
 288 139 280 150 251 189 c 1
 190 117 161 84 161 62 c 0
 161 47 168 34 190 31 c 1
 190 0 l 1
 166 1 124 3 95 3 c 0
 69 3 38 2 12 0 c 1
EndSplineSet
Substitution: 0 7 'smcp' X.sc
EndChar
StartChar: y
Encoding: 121 121 248
Width: 527
Flags: HW
TeX: 430 194 32767 32767
HStem: -205 22<108.5 142.5> -165 84 400 31<19 43>
VStem: 19 84<-131 -110 -131 -109>
AnchorPoint: "below" 264 -194 basechar 0
AnchorPoint: "above" 263 448 basechar 0
Fore
19 -124 m 0
 19 -94 41 -81 61 -81 c 0
 84 -81 103 -97 103 -123 c 0
 103 -139 95 -161 64 -165 c 1
 83 -183 106 -183 111 -183 c 0
 175 -183 203 -114 225 -59 c 0
 231 -46 245 -13 250 0 c 1
 100 365 l 2
 86 400 67 400 19 400 c 1
 19 431 l 1
 49 429 89 428 116 428 c 0
 133 428 199 430 225 431 c 1
 225 400 l 1
 206 400 169 400 169 374 c 0
 169 370 171 366 175 356 c 2
 286 87 l 1
 387 333 l 2
 392 345 393 347 393 357 c 0
 393 382 377 399 346 400 c 1
 346 431 l 1
 368 430 415 428 433 428 c 0
 456 428 485 429 508 431 c 1
 508 400 l 1
 492 400 441 399 415 336 c 2
 239 -91 l 2
 215 -148 174 -205 111 -205 c 0
 61 -205 19 -169 19 -124 c 0
EndSplineSet
KernsSLIFO: 171 -83 11 0 173 -83 11 0 357 -28 11 0 356 -28 11 0 355 -28 11 0 354 -28 11 0 353 -28 11 0 352 -28 11 0 351 -28 11 0 288 -28 11 0 287 -28 11 0 224 -28 11 0 362 -28 11 0 361 -28 11 0 360 -28 11 0 359 -28 11 0 293 -28 11 0 292 -28 11 0 228 -28 11 0 375 -28 11 0 374 -28 11 0 373 -28 11 0 372 -28 11 0 371 -28 11 0 370 -28 11 0 369 -28 11 0 301 -28 11 0 238 -28 11 0
Substitution: 0 7 'smcp' Y.sc
Position: 0 0 'ITLC' dx=0 dy=0 dh=13 dv=0
EndChar
StartChar: z
Encoding: 122 122 249
Width: 444
Flags: HW
TeX: 430 0 32767 32767
HStem: 0 25<112 230 230 288> 409 22<147 202 202 316>
VStem: 28 373<7 187>
AnchorPoint: "below" 214 0 basechar 0
AnchorPoint: "above" 214 448 basechar 0
Fore
28 14 m 0
 28 19 28 21 37 32 c 2
 316 409 l 1
 202 409 l 2
 92 409 73 372 67 270 c 1
 42 270 l 1
 53 431 l 1
 373 431 l 2
 391 431 399 431 399 418 c 0
 399 414 399 412 390 401 c 2
 112 25 l 1
 230 25 l 2
 346 25 367 69 376 187 c 1
 401 187 l 1
 384 0 l 1
 54 0 l 2
 35 0 28 0 28 14 c 0
EndSplineSet
Substitution: 0 7 'smcp' Z.sc
EndChar
StartChar: braceleft
Encoding: 123 123 250
Width: 500
Flags: HW
TeX: 749 249 32767 32767
VStem: 214 70<-130.532 156.709 348.908 637.607>
Fore
73 250 m 0
 73 264 87 260 111 265 c 0
 155 273 204 305 212 357 c 0
 214 367 214 376 214 386 c 2
 214 604 l 2
 214 630 214 672 262 708 c 0
 284 724 336 750 407 750 c 0
 422 750 425 743 425 739 c 0
 425 724 401 730 369 720 c 0
 289 694 284 634 284 611 c 2
 284 385 l 2
 284 354 282 281 165 250 c 1
 278 221 284 148 284 121 c 2
 284 -101 l 2
 284 -113 284 -125 286 -137 c 0
 295 -180 338 -219 401 -226 c 0
 408 -227 425 -227 425 -238 c 0
 425 -248 417 -250 407 -250 c 2
 406 -250 l 2
 326 -250 225 -214 215 -131 c 0
 214 -121 214 -112 214 -102 c 2
 214 117 l 2
 214 213 127 233 105 237 c 0
 91 239 73 237 73 250 c 0
EndSplineSet
EndChar
StartChar: bar
Encoding: 124 124 251
Width: 278
Flags: HW
TeX: 749 249 32767 32767
VStem: 118 40<-237.375 745.972>
Fore
118 -219 m 2
 118 712 l 2
 118 734 120 749 138 749 c 0
 146 749 158 745 158 719 c 2
 158 -212 l 2
 158 -237 155 -249 138 -249 c 0
 119 -249 118 -228 118 -219 c 2
EndSplineSet
EndChar
StartChar: braceright
Encoding: 125 125 252
Width: 500
Flags: HW
TeX: 749 249 32767 32767
VStem: 214 70<-137.171 151.091 342.859 630.532>
Fore
73 -239 m 0
 73 -223 97 -230 129 -220 c 0
 209 -194 214 -133 214 -111 c 2
 214 115 l 2
 214 136 210 218 333 250 c 1
 222 278 214 352 214 378 c 2
 214 601 l 2
 214 613 214 625 212 637 c 0
 203 680 160 719 97 726 c 0
 90 727 73 727 73 738 c 0
 73 748 81 750 91 750 c 2
 92 750 l 2
 172 750 274 715 283 631 c 0
 284 621 284 612 284 602 c 2
 284 383 l 2
 284 287 370 267 393 263 c 0
 407 261 425 262 425 250 c 0
 425 236 411 240 386 235 c 0
 343 227 295 195 286 143 c 0
 284 133 284 123 284 114 c 2
 284 -104 l 2
 284 -130 284.948 -171.93 236 -208 c 0
 189.951 -241.934 127 -250 91 -250 c 0
 75 -250 73 -243 73 -239 c 0
EndSplineSet
EndChar
StartChar: asciitilde
Encoding: 126 126 253
Width: 611
Flags: HW
TeX: 663 0 32767 32767
HStem: 574 46<321 474.4> 621 47<136.9 289>
VStem: 83 444<588 653>
Fore
83 588 m 1
 116 626 144 668 208 668 c 0
 278 668 342 620 412 620 c 0
 460 620 484 642 510 668 c 1
 527 653 l 1
 495 614 463 574 402 574 c 0
 332 574 268 621 198 621 c 0
 151 621 126 599 100 574 c 1
 83 588 l 1
EndSplineSet
EndChar
StartChar: Abreve
Encoding: 258 258 255
Width: 750
Flags: HW
TeX: 891 0 32767 32767
HStem: -0 31<32 97 197.3 248 442 487.854 627.8 717> 228 31<232 458> 696 20<366.5 384> 753 38<307.4 428.3>
VStem: 225 22<843.55 891> 502 23<817.607 892.72>
Fore
225 891 m 1
 247 891 l 1
 253 818 323 791 375 791 c 0
 416 791 496 811 502 891 c 1
 525 891 l 1
 523 804 449 753 375 753 c 0
 300 753 227 805 225 891 c 1
EndSplineSet
Refer: 192 65 S 1 0 0 1 0 -0 2
KernsSLIFO: 2081 -28 11 0 2080 -28 11 0 2079 -28 11 0 214 -111 11 0 213 -111 11 0 348 -83 11 0 279 -83 11 0 216 -83 11 0 276 -83 11 0 275 -83 11 0 211 -83 11 0 347 -28 11 0 346 -28 11 0 345 -28 11 0 344 -28 11 0 278 -28 11 0 277 -28 11 0 212 -28 11 0 343 -28 11 0 342 -28 11 0 341 -28 11 0 340 -28 11 0 339 -28 11 0 338 -28 11 0 337 -28 11 0 269 -28 11 0 206 -28 11 0 208 -28 11 0 326 -28 11 0 262 -28 11 0 258 -28 11 0 257 -28 11 0 198 -28 11 0 194 -28 11 0 308 -28 11 0 307 -28 11 0 243 -28 11 0 240 -28 11 0 375 -28 11 0 374 -28 11 0 373 -28 11 0 372 -28 11 0 371 -28 11 0 370 -28 11 0 369 -28 11 0 301 -28 11 0 238 -28 11 0 362 -28 11 0 361 -28 11 0 360 -28 11 0 359 -28 11 0 293 -28 11 0 292 -28 11 0 228 -28 11 0 367 -28 11 0 285 -28 11 0 291 -28 11 0 227 -28 11 0 358 -28 11 0 290 -28 11 0 289 -28 11 0 226 -28 11 0 246 -83 11 0 245 -111 11 0 380 -83 11 0 311 -83 11 0 248 -83 11 0
Substitution: 0 7 'ss01' Abreve.vn
Substitution: 0 7 'salt' Abreve.vn
Substitution: 0 13 'locl' Abreve.vn
Substitution: 0 12 'c2sc' Abreve.sc
EndChar
StartChar: Aogonek
Encoding: 260 260 256
Width: 750
Flags: HW
TeX: 688 194 32767 32767
HStem: -217 46<578.6 689.1> 0 31<32 97 197.3 248 442 487.854 627.8 717> 3 28<106.3 155.5 627.8 633.2> 228 31<232 458> 696 20G<366.5 384>
VStem: 500 45<-153.8 -47.8>
AnchorPoint: "above" 374 705 basechar 0
Fore
32 0 m 1
 32 31 l 1
 127 33 138 83 150 116 c 2
 349 690 l 2
 354 705 359 716 374 716 c 0
 394 716 395 701 405 675 c 2
 614 74 l 2
 629 32 647 31 711 31 c 2
 717 31 l 1
 717 0 l 1xdc
 693 1 668 2 644 2 c 2
 642 2 l 2
 637 2 632 3 628 3 c 2
 627 3 l 2
 595 3 545 -50 545 -94 c 0
 545 -140 590 -171 628 -171 c 0
 675 -171 689 -128 696 -121 c 0
 700 -117 706 -115 710 -119 c 1
 712 -120 713 -123 713 -127 c 0
 713 -153 676 -217 608 -217 c 0
 556 -217 500 -180 500 -118 c 0
 500 -64 544 -23 574 3 c 1xbc
 442 0 l 1
 442 31 l 1
 444 31 l 2xdc
 476 31 523 32 523 63 c 0
 523 67 522 72 521 77 c 0
 511 107 478 197 469 228 c 1
 221 228 l 1
 205 176 174 100 174 81 c 0
 174 62 191 33 248 31 c 1
 248 0 l 1xdc
 209 2 170 3 131 3 c 0xbc
 112 3 82 3 32 0 c 1
232 259 m 1x9c
 458 259 l 1
 345 584 l 1
 232 259 l 1x9c
EndSplineSet
Substitution: 0 12 'c2sc' Aogonek.sc
Ligature: 0 7 'liga' A uni0328
EndChar
StartChar: Cacute
Encoding: 262 262 257
Width: 722
Flags: HW
TeX: 856 0 32767 32767
HStem: -22 31<301.6 565.5> 674 31<284 515.8> 741 121<324 481>
VStem: 55 103<69 605.9> 313 202<765 825>
Fore
313 765 m 1
 462 857 466 862 481 862 c 0
 502 862 515 841 515 825 c 0
 515 795 491 793 369 755 c 0
 354 750 339 745 324 741 c 1
 313 765 l 1
EndSplineSet
Refer: 194 67 S 1 0 0 1 0 0 2
KernsSLIFO: 2081 -28 11 0 2080 -28 11 0 2079 -28 11 0 214 -111 11 0 213 -111 11 0 348 -83 11 0 279 -83 11 0 216 -83 11 0 276 -83 11 0 275 -83 11 0 211 -83 11 0 347 -28 11 0 346 -28 11 0 345 -28 11 0 344 -28 11 0 278 -28 11 0 277 -28 11 0 212 -28 11 0 343 -28 11 0 342 -28 11 0 341 -28 11 0 340 -28 11 0 339 -28 11 0 338 -28 11 0 337 -28 11 0 269 -28 11 0 206 -28 11 0 208 -28 11 0 326 -28 11 0 262 -28 11 0 258 -28 11 0 257 -28 11 0 198 -28 11 0 194 -28 11 0 308 -28 11 0 307 -28 11 0 243 -28 11 0 240 -28 11 0 375 -28 11 0 374 -28 11 0 373 -28 11 0 372 -28 11 0 371 -28 11 0 370 -28 11 0 369 -28 11 0 301 -28 11 0 238 -28 11 0 362 -28 11 0 361 -28 11 0 360 -28 11 0 359 -28 11 0 293 -28 11 0 292 -28 11 0 228 -28 11 0 367 -28 11 0 285 -28 11 0 291 -28 11 0 227 -28 11 0 358 -28 11 0 290 -28 11 0 289 -28 11 0 226 -28 11 0 246 -83 11 0 245 -111 11 0
Substitution: 0 12 'c2sc' Cacute.sc
EndChar
StartChar: Ccaron
Encoding: 268 268 258
Width: 722
Flags: HW
TeX: 891 0 32767 32767
HStem: -22 31<301.6 565.5> 674 31<284 515.8>
VStem: 55 103<69 605.9> 263 306<919 919>
Fore
263 919 m 1
 275 935 l 1
 381 873 405 856 418 856 c 0
 428 856 503 906 557 935 c 1
 569 919 l 1
 425 797 423 794 416 794 c 0
 404 794 322 872 263 919 c 1
EndSplineSet
Refer: 194 67 S 1 0 0 1 0 -0 2
Substitution: 0 12 'c2sc' Ccaron.sc
EndChar
StartChar: Dcaron
Encoding: 270 270 259
Width: 763
Flags: HW
TeX: 891 0 32767 32767
HStem: -0 31<34 123 220.1 407.758> 652 31<34 143.9 235 425.4>
VStem: 137 87<27.5 646> 182 305<919 919> 607 100<237.7 434>
Fore
182 919 m 1
 193 935 l 1
 194 935 l 1
 300 873 324 856 336 856 c 0
 346 856 423 907 476 935 c 1
 487 919 l 1
 344 797 342 794 334 794 c 0xd8
 323 794 240 872 182 919 c 1
EndSplineSet
Refer: 195 68 S 1 0 0 1 0 -0 2
KernsSLIFO: 348 -28 11 0 279 -28 11 0 216 -28 11 0 213 -28 11 0 325 -28 11 0 324 -28 11 0 323 -28 11 0 322 -28 11 0 321 -28 11 0 320 -28 11 0 319 -28 11 0 256 -28 11 0 255 -28 11 0 192 -28 11 0 214 -28 11 0 215 -28 11 0
Substitution: 0 12 'c2sc' Dcaron.sc
EndChar
StartChar: Ecaron
Encoding: 282 282 260
Width: 680
Flags: HW
TeX: 891 0 32767 32767
HStem: -0 31<33 116 220 497> 338 31<225 370.54> 650 30<33 141.6 234 468.63>
VStem: 136 89<31 338 369 643> 165 306<919 919> 423 25<221 345.7 419.736 485> 599 25<455 567.711>
Fore
165 919 m 1
 177 935 l 1
 178 935 l 1
 284 873 307 856 320 856 c 0
 330 856 406 907 459 935 c 1
 471 919 l 1
 327 797 325 794 318 794 c 0xea
 307 794 224 872 165 919 c 1
EndSplineSet
Refer: 196 69 S 1 0 0 1 0 -0 2
Substitution: 0 12 'c2sc' Ecaron.sc
EndChar
StartChar: Eogonek
Encoding: 280 280 261
Width: 680
Flags: HW
TeX: 688 194 32767 32767
HStem: -217 46<484.9 603.7> -0 31<33 116 220 477> 338 31<225 374.004> 650 30<33 141.6 234 583.3>
VStem: 136 89<31 338 369 643> 406 45<-153.8 -86.3534> 423 25<221 343.4 418.437 485> 599 25<455 678.416>
AnchorPoint: "above" 315 705 basechar 0
Fore
33 -0 m 1
 33 31 l 1
 48 31 l 2
 116 31 135 35 136 74 c 2
 136 608 l 2
 135 643 120 650 48 650 c 2
 33 650 l 1
 33 680 l 1
 597 680 l 1
 624 455 l 1
 599 455 l 1
 577 626 538 648 387 650 c 2
 295 650 l 2
 234 650 226 647 225 613 c 2
 225 369 l 1
 305 369 l 2
 354 369 410 369 420 433 c 0
 423 450 423 468 423 485 c 1
 448 485 l 1
 448 221 l 1
 423 221 l 1
 423 229 l 2xfb
 423 317 399 338 310 338 c 2
 225 338 l 1
 225 69 l 2
 226 31 238 31 298 31 c 2
 391 31 l 2
 497 31 566 43 601 142 c 0
 614 179 620 219 627 258 c 1
 652 258 l 1
 610 -0 l 1
 532 -0 l 2
 514 0 507 -3 486 -24 c 0
 467 -42 451 -66 451 -94 c 0
 451 -140 496 -171 533 -171 c 0
 588 -171 596 -116 610 -116 c 0
 612 -116 614 -117 617 -119 c 1
 618 -121 619 -123 619 -127 c 0
 619 -151 583 -217 514 -217 c 0
 462 -217 406 -180 406 -118 c 0xfd
 406 -94 414 -52 477 -0 c 1
 33 -0 l 1
EndSplineSet
Substitution: 0 12 'c2sc' Eogonek.sc
EndChar
StartChar: Gbreve
Encoding: 286 286 262
Width: 785
Flags: HW
TeX: 891 0 32767 32767
HStem: -22 31<298.8 509> 241 31<451 582.625 678 735> 674 31<286.9 478.5> 753 38<338.4 459.3>
VStem: 55 103<72.9 585.1> 256 23<834.06 891> 533 23<817.607 892.72> 576 90<101.516 247.1>
Fore
55 342 m 0
 55 529 199 705 407 705 c 0
 462 705 530 696 591 657 c 1
 647 703 645 704 654 704 c 0
 662 704 666 696 666 684 c 2
 666 558 l 2
 666 544 663 535 649 535 c 0
 623 535 645 589 567 638 c 0
 520 667 461 674 426 674 c 0
 319 674 158 608 158 341 c 0
 158 68 327 9 421 9 c 0
 506 9 563 53 574 101 c 0
 576 112 576 123 576 134 c 2
 576 192 l 2
 576 239 559 241 464 241 c 2
 451 241 l 1
 451 272 l 1
 505 271 559 269 613 269 c 2
 620 269 l 2
 637 269 673 270 735 272 c 1
 735 241 l 1
 730 241 l 2
 678 241 666 236 666 199 c 2
 666 24 l 2
 667 4 658 1 652 3 c 0
 638 9 611 35 593 63 c 1
 592 63 l 1
 556 5 485 -22 405 -22 c 0
 218 -22 55 135 55 342 c 0
256 891 m 1
 279 891 l 1
 284 818 354 791 406 791 c 0
 447 791 527 811 533 891 c 1
 556 891 l 1
 554 804 480 753 406 753 c 0
 331 753 258 805 256 891 c 1
EndSplineSet
Substitution: 0 12 'c2sc' Gbreve.sc
EndChar
StartChar: Lcaron
Encoding: 317 317 264
Width: 625
Flags: HW
TeX: 891 0 32767 32767
HStem: 0 31<33 122 229.9 537> 652 31<33 139.8 242 353> 672 106<423.7 497.8>
VStem: 136 89<27.5 646> 508 23<647.2 694> 557 26<131.092 258>
Fore
411 725 m 0
 411 751 429 778 464 778 c 0
 502 778 531 742 531 693 c 0
 531 603 455 545 439 545 c 0
 436 545 428 546 428 554 c 0
 428 566 445 567 471 596 c 0
 494 624 507 658 508 694 c 1
 502 687 490 672 464 672 c 0xbc
 433 672 411 696 411 725 c 0
EndSplineSet
Refer: 203 76 S 1 0 0 1 0 0 2
KernsSLIFO: 214 -111 11 0 213 -111 11 0 348 -83 11 0 279 -83 11 0 216 -83 11 0 276 -83 11 0 275 -83 11 0 211 -83 11 0
Substitution: 0 12 'c2sc' Lcaron.sc
EndChar
StartChar: Lslash
Encoding: 321 321 265
Width: 625
Flags: HW
TeX: 688 0 32767 32767
HStem: -0 31<33 121 232.8 535> 652 31<33 136.775 236 353>
VStem: 136 89<22.8 298 326.7 372 413 644> 557 26<114.005 258>
Fore
33 -0 m 1
 33 31 l 1
 43 31 l 2
 121 31 135 35 136 76 c 2
 136 298 l 1
 63 238 l 1
 43 262 l 1
 131 335 136 333 136 354 c 2
 136 607 l 2
 135 644 125 652 44 652 c 2
 33 652 l 1
 33 683 l 1
 77 682 122 680 181 680 c 0
 238 680 296 681 353 683 c 1
 353 652 l 1
 342 652 l 2
 236 652 225 646 225 603 c 2
 225 413 l 1
 372 534 l 1
 392 510 l 1
 244 388 l 2
 226 373 225 372 225 349 c 2
 225 67 l 2
 225 33 243 31 277 31 c 2
 345 31 l 2
 535 31 544 148 557 258 c 1
 583 258 l 1
 555 -0 l 1
 33 -0 l 1
EndSplineSet
KernsSLIFO: 214 -111 11 0 213 -111 11 0 348 -83 11 0 279 -83 11 0 216 -83 11 0 276 -83 11 0 275 -83 11 0 211 -83 11 0
EndChar
StartChar: Ncaron
Encoding: 327 327 267
Width: 750
Flags: HW
TeX: 891 0 32767 32767
HStem: -0 31<33 101.088 197.681 267> 652 31<33 130.482 483 551.888 636.7 716>
VStem: 136 28<47.5 625> 222 306<919 919> 585 28<152 622>
Fore
222 919 m 1
 233 935 l 1
 234 935 l 1
 340 873 364 856 377 856 c 0
 387 856 461 906 516 935 c 1
 528 919 l 1
 384 797 382 794 375 794 c 0
 363 794 281 872 222 919 c 1
EndSplineSet
Refer: 205 78 S 1 0 0 1 0 -0 2
Substitution: 0 12 'c2sc' Ncaron.sc
EndChar
StartChar: Eng
Encoding: 330 330 268
Width: 791
Flags: HW
TeX: 688 0 32767 32767
HStem: -22 23<508.412 596.3> -0 31<33 122 224.762 328> 652 31<33 142.9> 679 31<314.8 547.1>
VStem: 136 89<38 572.034 613 656.8> 388 111<80.2 156.9> 646 89<-6.1 492>
Fore
33 -0 m 1
 33 31 l 1
 49 31 l 2
 122 31 135 38 136 73 c 2
 136 610 l 2
 135 646 121 652 48 652 c 2
 33 652 l 1
 33 683 l 1
 128 681 l 1
 195 681 l 1
 225 683 l 1x6e
 225 613 l 1
 275 665 346 710 450 710 c 0
 587 710 735 621 735 444 c 2
 735 155 l 2
 735 25 623 -22 548 -22 c 0
 457 -22 388 40 388 111 c 0
 388 147 412 169 443 169 c 0
 473 169 499 147 499 114 c 0
 499 88 483 59 439 59 c 2
 434 59 l 1
 475 5 525 1 543 1 c 0x9e
 584 1 646 32 646 159 c 2
 646 441 l 2
 646 492 639 520 623 553 c 0
 591 618 518 679 421 679 c 0x9e
 303 679 235 590 227 567 c 0
 225 561 225 555 225 549 c 2
 225 74 l 2
 226 38 239 31 314 31 c 2
 328 31 l 1
 328 -0 l 1
 277 2 225 3 174 3 c 0
 117 3 75 1 33 -0 c 1
EndSplineSet
Substitution: 0 12 'c2sc' Eng.sc
EndChar
StartChar: Ohungarumlaut
Encoding: 336 336 269
Width: 777
Flags: HW
TeX: 856 0 32767 32767
HStem: -22 27<268.4 507.6> 680 25<268.4 507.6> 741 121<435 592>
VStem: 55 103<67.3 596.4> 258 369<765 825> 618 103<81.6 610.7>
Fore
258 765 m 1
 406 857 411 862 425 862 c 0
 447 862 460 841 460 825 c 0
 460 795 435 793 313 755 c 0
 298 750 283 745 268 741 c 1
 258 765 l 1
425 765 m 1
 573 857 578 862 592 862 c 0xf8
 614 862 627 841 627 825 c 0
 627 795 602 793 480 755 c 0
 465 750 450 745 435 741 c 1
 425 765 l 1
EndSplineSet
Refer: 206 79 S 1 0 0 1 0 0 2
KernsSLIFO: 348 -28 11 0 279 -28 11 0 216 -28 11 0 213 -28 11 0 325 -28 11 0 324 -28 11 0 323 -28 11 0 322 -28 11 0 321 -28 11 0 320 -28 11 0 319 -28 11 0 256 -28 11 0 255 -28 11 0 192 -28 11 0 214 -28 11 0 215 -28 11 0
Substitution: 0 12 'c2sc' Ohungarumlaut.sc
EndChar
StartChar: Racute
Encoding: 340 340 270
Width: 736
Flags: HW
TeX: 856 0 32767 32767
HStem: -22 23<599.4 721.6> 0 31<34 123 220.07 326> 330 23<224 334> 652 31<34 143.9 235 421> 741 121<296 453>
VStem: 137 87<38 330 353 656.8> 285 202<765 825> 507 103<418.5 578.4>
Fore
285 765 m 1
 434 857 439 862 453 862 c 0x3f
 475 862 487 841 487 825 c 0
 487 795 463 793 341 755 c 0
 326 750 311 745 296 741 c 1
 285 765 l 1
EndSplineSet
Refer: 209 82 S 1 0 0 1 -0 0 2
KernsSLIFO: 2081 -28 11 0 214 -111 11 0 213 -111 11 0 348 -83 11 0 279 -83 11 0 216 -83 11 0 276 -83 11 0 275 -83 11 0 211 -83 11 0 347 -28 11 0 346 -28 11 0 345 -28 11 0 344 -28 11 0 278 -28 11 0 277 -28 11 0 212 -28 11 0 343 -28 11 0 342 -28 11 0 341 -28 11 0 340 -28 11 0 339 -28 11 0 338 -28 11 0 337 -28 11 0 269 -28 11 0 206 -28 11 0 208 -28 11 0 326 -28 11 0 262 -28 11 0 258 -28 11 0 257 -28 11 0 198 -28 11 0 194 -28 11 0 308 -28 11 0 307 -28 11 0 243 -28 11 0
Substitution: 0 12 'c2sc' Racute.sc
EndChar
StartChar: Rcaron
Encoding: 344 344 271
Width: 736
Flags: HW
TeX: 891 0 32767 32767
HStem: -22 23<599.4 721.6> -0 31<34 123 220.07 326> 330 23<224 334> 652 31<34 143.9 235 421>
VStem: 137 87<38 330 353 656.8> 165 306<919 919> 507 103<418.5 578.4>
Fore
165 919 m 1
 177 935 l 1
 178 935 l 1
 284 873 307 856 320 856 c 0
 330 856 405 906 459 935 c 1
 471 919 l 1
 327 797 325 794 318 794 c 0x36
 307 794 224 872 165 919 c 1
EndSplineSet
Refer: 209 82 S 1 0 0 1 -0 -0 2
Substitution: 0 12 'c2sc' Rcaron.sc
EndChar
StartChar: Scaron
Encoding: 352 352 273
Width: 555
Flags: HW
TeX: 891 0 32767 32767
HStem: -22 31<229.8 407.9> 677 28<149.3 374.5>
VStem: 55 65<471.6 634.1> 125 305<919 919> 434 65<57.4 232.9>
Fore
125 919 m 1
 136 935 l 1
 137 935 l 1
 243 873 267 856 279 856 c 0
 289 856 364 906 419 935 c 1
 430 919 l 1
 287 797 284 794 277 794 c 0
 266 794 183 872 125 919 c 1
EndSplineSet
Refer: 210 83 S 1 0 0 1 -0 -0 2
EndChar
StartChar: Scedilla
Encoding: 350 350 274
Width: 555
Flags: HW
TeX: 688 170 32767 32767
HStem: -204 23<186 321.5> -71 80<270 355.8> 677 28<148 374.5>
VStem: 55 65<470.3 634.1> 352 71<-183.2 -97.4> 434 65<57.4 232.9>
Fore
55 5 m 2
 55 207 l 2
 56 221 61 226 67 226 c 0
 97 226 60 146 136 70 c 0
 181 25 247 9 300 9 c 0
 383 9 434 79 434 151 c 0
 434 214 399 265 350 285 c 0
 327 295 217 317 185 329 c 0
 120 351 55 417 55 511 c 0
 55 613 136 705 251 705 c 0
 346 705 391 656 410 635 c 1
 441 689 450 704 460 704 c 0
 471 704 472 690 471 679 c 2
 471 492 l 2
 471 491 472 488 472 483 c 0
 472 473 470 457 460 457 c 0
 448 457 446.017 467.002 445 475 c 0
 430 593 368 677 252 677 c 0
 172 677 120 614 120 547 c 0
 120 488 157 443 203 425 c 0
 226 416 334 394 365 383 c 0
 442 357 499 279 499 185 c 0
 499 85 434 1 340 -19 c 1
 340 -54 l 1
 353 -57 423 -69 423 -126 c 0
 423 -188 344 -204 199 -204 c 2
 186 -204 l 1
 186 -181 l 1
 198 -181 l 2
 293 -181 352 -170 352 -126 c 0
 352 -104 336 -74 270 -71 c 1
 270 -20 l 1
 194 -13 150 16 117 48 c 1
 85 -9 75 -21 67 -21 c 0
 65 -21 64 -20 63 -20 c 1
 55 -17 55 -6 55 5 c 2
EndSplineSet
Substitution: 0 12 'c2sc' Scedilla.sc
EndChar
